<?xml version="1.0" encoding="UTF-8"?>
<svg version="1.1" xmlns="http://www.w3.org/2000/svg" width="399" height="409">
<path d="M0 0 C0.68586182 -0.0010675 1.37172363 -0.00213501 2.07836914 -0.00323486 C13.73128638 0.02290036 24.14653049 1.43585187 35.125 5.4375 C35.77774902 5.65680176 36.43049805 5.87610352 37.10302734 6.10205078 C61.76474076 14.38883342 82.59409084 32.11521051 94.375 55.3125 C106.86068689 81.05016533 110.5859204 110.22753171 101.17602539 137.69702148 C99.94979203 141.00197375 98.57884714 144.22685229 97.125 147.4375 C96.8455957 148.06076172 96.56619141 148.68402344 96.27832031 149.32617188 C84.46885333 174.97339847 62.52581149 193.65224761 36.37060547 203.62402344 C14.51022601 211.54300412 -14.38058799 212.16883185 -35.6875 202.5 C-36.48091797 202.15259766 -37.27433594 201.80519531 -38.09179688 201.44726562 C-39.64281057 200.76717622 -41.19080389 200.08014728 -42.73535156 199.38549805 C-44.65113157 198.53668771 -46.59192505 197.74486641 -48.53515625 196.9609375 C-52.1405584 195.3163681 -55.29277788 193.29799767 -58.5 191 C-59.31984375 190.42668945 -59.31984375 190.42668945 -60.15625 189.84179688 C-83.3486646 173.50168659 -97.55140807 148.31821624 -103.1875 120.8125 C-105.23027318 106.41487751 -104.7158215 91.45980952 -100.875 77.4375 C-100.5965625 76.41785156 -100.318125 75.39820313 -100.03125 74.34765625 C-92.10643338 48.35289137 -73.94356903 26.18544384 -50.6953125 12.296875 C-47.51743985 10.79659177 -44.31553268 10.11331892 -40.875 9.4375 C-40.875 8.7775 -40.875 8.1175 -40.875 7.4375 C-38.23027877 6.64195814 -35.58431884 5.85100837 -32.9375 5.0625 C-32.20208984 4.84078125 -31.46667969 4.6190625 -30.70898438 4.390625 C-28.4370284 3.71598305 -26.15872787 3.07108031 -23.875 2.4375 C-22.85937988 2.1429895 -22.85937988 2.1429895 -21.82324219 1.8425293 C-14.64591839 -0.02239828 -7.37575768 -0.00243644 0 0 Z " fill="#F9B200" transform="translate(198.875,99.5625)"/>
<path d="M0 0 C1.65625 1.16015625 1.65625 1.16015625 4.15625 4.16015625 C5.02213979 9.11934325 4.9734008 10.73440823 2.47265625 15.09765625 C-1.84538345 19.97741712 -8.58575026 21.30711671 -14.59375 23.22265625 C-15.90672181 23.65677876 -17.21922114 24.09233281 -18.53125 24.52929688 C-26.84953849 27.28024827 -35.21626474 29.87052921 -43.65625 32.22265625 C-46.79907404 33.09072949 -46.79907404 33.09072949 -49.5625 34.2578125 C-52.87296726 35.56726102 -55.31999598 35.6006255 -58.84375 35.16015625 C-61.71875 32.72265625 -61.71875 32.72265625 -63.84375 30.16015625 C-64.17375 29.83015625 -64.50375 29.50015625 -64.84375 29.16015625 C-65.15234375 27.26953125 -65.15234375 27.26953125 -65.28125 24.91015625 C-65.34183594 24.141875 -65.40242188 23.37359375 -65.46484375 22.58203125 C-64.5171649 18.88667976 -61.92312404 17.15881306 -58.84375 15.16015625 C-55.66106308 13.73626883 -52.39222575 12.70446319 -49.0625 11.6796875 C-48.13078979 11.38076096 -47.19907959 11.08183441 -46.23913574 10.77384949 C-43.27798915 9.82701483 -40.31119728 8.89953154 -37.34375 7.97265625 C-35.34985146 7.33917638 -33.35635705 6.70442304 -31.36328125 6.06835938 C-27.70362105 4.90196625 -24.04169805 3.74332956 -20.37695312 2.59301758 C-17.69576009 1.75115202 -15.02940104 0.88638228 -12.36523438 -0.00927734 C-8.13036428 -1.40422584 -4.15074994 -1.89070177 0 0 Z " fill="#F9B408" transform="translate(74.84375,237.83984375)"/>
<path d="M0 0 C2.8100346 1.79363911 4.50940468 3.01880935 6 6 C6.11127935 7.81623587 6.15922896 9.63649981 6.17700195 11.45605469 C6.18983719 12.59774109 6.20267242 13.73942749 6.21589661 14.91571045 C6.22328354 16.15524475 6.23067047 17.39477905 6.23828125 18.671875 C6.246353 19.94218567 6.25442474 21.21249634 6.26274109 22.52130127 C6.27659326 25.21475888 6.28760594 27.90809362 6.29516602 30.6015625 C6.3062115 34.04268584 6.34058823 37.48315911 6.38033772 40.92405319 C6.41286078 44.21492911 6.41728827 47.50586286 6.42578125 50.796875 C6.44328934 52.02831238 6.46079742 53.25974976 6.47883606 54.52850342 C6.45165313 65.25364173 6.45165313 65.25364173 2 70 C-1.21694364 71.60847182 -4.52137222 71.61309149 -8 71 C-10.69105198 68.82425584 -12.45532928 67.08934144 -14 64 C-14.11129206 62.17846808 -14.1592305 60.35291825 -14.17700195 58.52807617 C-14.18983719 57.38316208 -14.20267242 56.23824799 -14.21589661 55.05863953 C-14.22328354 53.81596817 -14.23067047 52.57329681 -14.23828125 51.29296875 C-14.246353 50.02028641 -14.25442474 48.74760406 -14.26274109 47.43635559 C-14.27659227 44.73870188 -14.28760561 42.04117082 -14.29516602 39.34350586 C-14.30622269 35.89331751 -14.34061336 32.44377551 -14.38033772 28.99381542 C-14.41281973 25.69776401 -14.41728435 22.40165583 -14.42578125 19.10546875 C-14.44328934 17.86887009 -14.46079742 16.63227142 -14.47883606 15.35820007 C-14.47591049 14.2038295 -14.47298492 13.04945892 -14.4699707 11.86010742 C-14.47583694 10.84687912 -14.48170319 9.83365082 -14.48774719 8.78971863 C-13.86858892 5.24838125 -12.45631733 3.57425147 -10 1 C-6.79826746 -0.60086627 -3.47422941 -0.49917089 0 0 Z " fill="#F9B407" transform="translate(204,5)"/>
<path d="M0 0 C3.87871552 0.86913884 7.61638674 2.07200596 11.38671875 3.32421875 C12.44736038 3.6674971 13.50800201 4.01077545 14.6007843 4.36445618 C16.83080338 5.09018976 19.05866411 5.82258583 21.28442383 6.5612793 C24.68140969 7.68548446 28.0868572 8.78050605 31.49414062 9.87304688 C33.66723484 10.58420367 35.83978096 11.29703793 38.01171875 12.01171875 C39.02433273 12.33589279 40.03694672 12.66006683 41.08024597 12.99406433 C46.71074706 14.88736558 50.80275991 16.74503159 55 21 C56.04072928 24.11685078 55.76030235 26.82055379 55 30 C52.54211284 33.5751086 51.01542372 34.75501527 46.80029297 35.77197266 C42.47579916 36.0314534 39.24114883 35.13285134 35.2578125 33.6484375 C34.53117401 33.39252838 33.80453552 33.13661926 33.05587769 32.87295532 C30.74017364 32.05465175 28.43254656 31.2160005 26.125 30.375 C23.86188412 29.56278638 21.59723023 28.75514131 19.33123779 27.95098877 C17.82378148 27.41589326 16.31762859 26.87711151 14.81280518 26.33465576 C10.98962991 24.97453626 7.17503373 23.74077228 3.25292969 22.69628906 C2.48520233 22.48920319 1.71747498 22.28211731 0.92648315 22.0687561 C-0.52333514 21.68662384 -1.97809662 21.32256986 -3.43795776 20.98080444 C-8.85608266 19.55234367 -10.91725441 17.45654612 -14 13 C-14.95683996 9.88745591 -14.5344816 8.3672341 -14 5 C-10.35102647 -0.65002353 -6.22600425 -0.65605722 0 0 Z " fill="#F9B307" transform="translate(24,136)"/>
<path d="M0 0 C5.57894737 3.15789474 5.57894737 3.15789474 7 6 C7.7431786 10.35290324 6.7986355 12.65065928 4.3828125 16.15625 C3.8364917 16.95039307 3.2901709 17.74453613 2.72729492 18.56274414 C0.01348033 22.39200366 -2.75802199 26.17425677 -5.5625 29.9375 C-11.05534662 37.34106253 -16.47973765 44.78922526 -21.82446289 52.30053711 C-22.58231079 53.35833374 -22.58231079 53.35833374 -23.35546875 54.4375 C-24.01518677 55.36369141 -24.01518677 55.36369141 -24.68823242 56.30859375 C-27.33120886 59.71647404 -28.47331109 60.86185209 -32.8125 62 C-36.19364881 62.33062894 -37.81083569 61.83831932 -40.4375 59.6875 C-43.29313187 56.69256902 -43.87726846 55.92164438 -44.4140625 51.890625 C-43.85164408 46.60601422 -41.58005048 43.86340691 -38.375 39.75 C-37.50560791 38.59286499 -37.50560791 38.59286499 -36.61865234 37.41235352 C-35.38806442 35.77492287 -34.1510701 34.14229019 -32.90820312 32.51416016 C-30.37060211 29.17073446 -27.89725334 25.78209114 -25.42041016 22.39355469 C-22.63320925 18.58076694 -19.82882739 14.78200119 -17 11 C-16.09459473 9.76854248 -16.09459473 9.76854248 -15.17089844 8.51220703 C-14.56536133 7.70509277 -13.95982422 6.89797852 -13.3359375 6.06640625 C-12.79243652 5.33494385 -12.24893555 4.60348145 -11.68896484 3.84985352 C-8.28485969 0.12147757 -4.9505459 -0.59406551 0 0 Z " fill="#F9B407" transform="translate(315,41)"/>
<path d="M0 0 C3.6585462 2.56876648 4.78983387 4.15933548 5.875 8.5 C5.42098682 14.61782764 1.07787394 19.30174929 -2.49755859 24.01464844 C-4.14011291 26.18514757 -5.75340088 28.37547702 -7.36328125 30.5703125 C-9.74900333 33.82273295 -12.14631885 37.06610378 -14.55078125 40.3046875 C-16.73689077 43.26104817 -18.88303783 46.23791027 -20.98046875 49.2578125 C-21.65638062 50.22763062 -21.65638062 50.22763062 -22.34594727 51.21704102 C-23.17295579 52.41027588 -23.99297122 53.60840142 -24.80444336 54.81225586 C-26.88327368 57.80586299 -28.48944934 59.83908523 -32 61 C-36.47977927 61.42664564 -38.92057694 61.49473557 -43 59.625 C-45.64163313 56.15785652 -45.48429518 53.85955548 -45.38818359 49.59912109 C-44.74674821 45.30432797 -42.57940841 42.73126374 -39.8125 39.5 C-38.70620795 38.12149466 -37.60212223 36.7412164 -36.5 35.359375 C-35.92378906 34.64974609 -35.34757812 33.94011719 -34.75390625 33.20898438 C-31.80096389 29.48985541 -29.0673621 25.61675937 -26.3125 21.75 C-25.22751914 20.24410196 -24.14160204 18.73887796 -23.0546875 17.234375 C-21.57332622 15.18212059 -20.09275147 13.12939322 -18.61816406 11.07226562 C-17.3992645 9.37552808 -16.17015224 7.68675975 -14.9375 6 C-14.26589844 5.071875 -13.59429687 4.14375 -12.90234375 3.1875 C-8.95407567 -1.35260292 -5.74991027 -1.51313428 0 0 Z " fill="#F9B408" transform="translate(124,306)"/>
<path d="M0 0 C3.58080799 0.81854935 7.00957099 1.96942282 10.4765625 3.17578125 C11.44604828 3.5016069 12.41553406 3.82743256 13.41439819 4.16313171 C16.48904513 5.20029916 19.55681412 6.25639355 22.625 7.3125 C24.69230987 8.01094615 26.7600152 8.70822292 28.828125 9.40429688 C51.08738123 16.94018466 51.08738123 16.94018466 53.9375 20.25 C55.24522852 23.6347091 55.21162142 26.40243588 55 30 C54.34 30 53.68 30 53 30 C52.71125 30.639375 52.4225 31.27875 52.125 31.9375 C51 34 51 34 49 35 C41.76777344 35.47330741 36.09691138 34.14908905 29.26953125 31.859375 C28.27547775 31.53592102 27.28142426 31.21246704 26.25724792 30.87921143 C24.16850587 30.19620095 22.08187725 29.50669645 19.99731445 28.81103516 C16.81671878 27.75140551 13.62895159 26.71607513 10.43945312 25.68359375 C8.40317621 25.01444825 6.36735242 24.34392194 4.33203125 23.671875 C3.3850386 23.36441345 2.43804596 23.0569519 1.46235657 22.74017334 C-4.8515018 20.61530859 -10.17696847 18.73454729 -14 13 C-14.5449818 8.17301831 -14.71304929 6.10407631 -12.0625 2 C-7.90716887 -0.71368563 -4.85134313 -0.50533612 0 0 Z " fill="#F9B306" transform="translate(336,237)"/>
<path d="M0 0 C5.40947409 3.54791742 9.07151276 8.45162373 12.625 13.75 C13.65904379 15.25336994 14.69424188 16.75594646 15.73046875 18.2578125 C16.2620459 19.03286133 16.79362305 19.80791016 17.34130859 20.60644531 C20.14723639 24.65550568 23.04352503 28.63863034 25.9375 32.625 C27.48176447 34.75615054 29.02567425 36.88748189 30.56396484 39.02294922 C31.52107479 40.34064326 32.49022562 41.64967505 33.47119141 42.94970703 C35.75355541 46.01256018 36.96820349 47.7694753 37.5 51.625 C36.9656559 55.23182265 36.26930956 57.16336305 34 60 C30.78446554 62.32849047 27.88978623 62.54457007 24 62 C19.52847261 58.72168342 16.36440173 55.1513278 13.25 50.5625 C12.38042917 49.31364828 11.51063108 48.06495479 10.640625 46.81640625 C9.98416992 45.86531982 9.98416992 45.86531982 9.31445312 44.89501953 C7.24181621 41.90694232 5.11976909 38.95472838 3 36 C2.17809138 34.8504706 1.35647846 33.70072971 0.53515625 32.55078125 C0.12410645 31.97537598 -0.28694336 31.3999707 -0.71044922 30.80712891 C-2.08071586 28.88688776 -3.44872492 26.965052 -4.81640625 25.04296875 C-5.27595703 24.39779297 -5.73550781 23.75261719 -6.20898438 23.08789062 C-7.09517186 21.8436476 -7.98061751 20.5988758 -8.86523438 19.35351562 C-10.786743 16.55741708 -10.786743 16.55741708 -13 14 C-13.54003583 9.63544812 -13.82152749 6.13314137 -11.1875 2.5 C-7.49822473 -0.02978876 -4.3881334 -0.59071027 0 0 Z " fill="#F9B407" transform="translate(92,41)"/>
<path d="M0 0 C5.87077268 3.0993744 8.7009901 7.44159852 12.25 12.9375 C13.39281707 14.65955759 14.53866888 16.37960496 15.6875 18.09765625 C16.24824219 18.93699707 16.80898438 19.77633789 17.38671875 20.64111328 C19.55765753 23.81538848 21.87032502 26.85566309 24.25 29.875 C27.59353167 34.17226038 30.92449851 38.47018609 34.125 42.875 C34.87007813 43.88304687 35.61515625 44.89109375 36.3828125 45.9296875 C38.31950866 49.6066034 38.49086266 51.89813779 38 56 C35.5625 58.875 35.5625 58.875 33 61 C32.67 61.33 32.34 61.66 32 62 C28.7370928 63.05542784 26.26262601 63.07284549 23 62 C19.5371653 58.57445736 16.86984945 54.75782948 14.16259766 50.72216797 C12.55657999 48.34315734 10.83849031 46.05239175 9.125 43.75 C6.72705876 40.4339061 4.36184129 37.09614292 2.01171875 33.74609375 C1.48368652 32.99424805 0.9556543 32.24240234 0.41162109 31.46777344 C-0.62849098 29.98462126 -1.66606661 28.49968597 -2.70068359 27.01269531 C-4.95103154 23.80005216 -7.20133699 20.72716347 -9.8203125 17.8046875 C-12.7061387 14.09138426 -12.79096186 11.89736323 -12.55078125 7.34765625 C-11.94154281 4.75083141 -11.31651418 3.67307777 -9.375 1.875 C-5.6806608 -0.17741067 -4.12830183 -0.77405659 0 0 Z " fill="#F9B305" transform="translate(284,305)"/>
<path d="M0 0 C1.98949973 1.82719844 2.57193443 2.87615463 3.140625 5.54296875 C3.41284566 12.12487542 3.41284566 12.12487542 1.07104492 15.09765625 C-2.04756766 17.68244105 -5.31062866 18.77000864 -9.11328125 19.96484375 C-9.87110397 20.21367813 -10.6289267 20.46251251 -11.40971375 20.71888733 C-13.83210466 21.51149117 -16.25948898 22.28730476 -18.6875 23.0625 C-20.27705762 23.57895633 -21.86625434 24.09652485 -23.45507812 24.61523438 C-26.58277079 25.63518501 -29.71286055 26.6472406 -32.84472656 27.65429688 C-35.81308759 28.61208846 -38.77257759 29.59158277 -41.72558594 30.59570312 C-42.40687057 30.8268129 -43.08815521 31.05792267 -43.79008484 31.29603577 C-45.627551 31.92181163 -47.46337495 32.55240372 -49.29907227 33.18334961 C-53.41828687 34.44438705 -56.12684146 34.91169603 -60.375 34.125 C-63.51336313 32.09814048 -65.03370267 30.67202808 -65.8515625 26.96484375 C-66.1147454 22.81625007 -66.08108061 20.97122131 -63.32324219 17.66601562 C-59.95029069 14.75895375 -56.71446698 13.47877607 -52.5390625 12.1875 C-51.78265472 11.94008057 -51.02624695 11.69266113 -50.24691772 11.43774414 C-47.83563453 10.65251529 -45.41828339 9.88836291 -43 9.125 C-41.4149093 8.61338758 -39.83026894 8.10037772 -38.24609375 7.5859375 C-35.12840688 6.5746912 -32.00731139 5.57508952 -28.88378906 4.58203125 C-25.93372292 3.63869339 -23.00092652 2.65858248 -20.07714844 1.63671875 C-19.40211273 1.40283447 -18.72707703 1.1689502 -18.03158569 0.92797852 C-16.2144532 0.29478245 -14.40078438 -0.34832932 -12.58740234 -0.9921875 C-7.57090989 -2.37078886 -4.58579811 -2.54766562 0 0 Z " fill="#F9B306" transform="translate(387.375,136.875)"/>
<path d="M0 0 C3.03978021 0.68164768 4.80055419 2.23591662 6.93359375 4.43359375 C8.24535709 7.05712044 8.0896222 9.04332387 8.12646484 11.98144531 C8.15055923 13.72400604 8.15055923 13.72400604 8.17514038 15.50177002 C8.21952719 20.82198629 8.2611025 26.14205398 8.28369141 31.46240234 C8.29701578 34.26970108 8.32483841 37.07627032 8.36572266 39.88330078 C8.42460496 43.92623123 8.44236213 47.96838173 8.45703125 52.01171875 C8.47970062 53.26502991 8.50237 54.51834106 8.52572632 55.80963135 C8.50215702 65.52101337 8.50215702 65.52101337 5.54345703 69.22485352 C2.87458263 71.48353515 1.8694255 72.23602474 -1.56640625 72.12109375 C-2.6646875 72.12689453 -2.6646875 72.12689453 -3.78515625 72.1328125 C-7.25744609 71.06853188 -9.31442105 69.57182695 -11.06640625 66.43359375 C-11.83916392 61.88918654 -11.76648355 57.37763406 -11.73046875 52.77734375 C-11.73384001 51.42882857 -11.73869522 50.08031635 -11.7449646 48.73181152 C-11.75232166 45.91059332 -11.7416702 43.09016864 -11.71826172 40.26904297 C-11.68977211 36.66052847 -11.70618271 33.05387327 -11.73612404 29.44542694 C-11.75423011 26.66227315 -11.7484244 23.87955706 -11.73548508 21.09638977 C-11.73054829 19.12166124 -11.74567957 17.1469154 -11.76113892 15.17224121 C-11.63092168 5.21848544 -11.63092168 5.21848544 -8.65380859 2.11938477 C-5.39881186 -0.00136938 -3.76149421 -0.23464898 0 0 Z " fill="#F8B203" transform="translate(202.06640625,331.56640625)"/>
<path d="M0 0 C0.66 0.33 1.32 0.66 2 1 C-3.94 6.94 -9.88 12.88 -16 19 C-16.66 18.67 -17.32 18.34 -18 18 C-6.66287016 5.33029613 -6.66287016 5.33029613 0 0 Z " fill="#F9C135" transform="translate(135,121)"/>
<path d="M0 0 C0.66 0.66 1.32 1.32 2 2 C-0.97 2 -3.94 2 -7 2 C-7.66 3.32 -8.32 4.64 -9 6 C-9.33 6.33 -9.66 6.66 -10 7 C-10.23075082 8.34747084 -10.41153063 9.70377565 -10.5625 11.0625 C-10.706875 12.361875 -10.85125 13.66125 -11 15 C-11.33 15 -11.66 15 -12 15 C-12.89953149 6.42113483 -12.89953149 6.42113483 -10.875 3.22265625 C-7.43236975 0.12966814 -4.50604692 -0.7168711 0 0 Z " fill="#FAC541" transform="translate(284,305)"/>
<path d="M0 0 C1.21236328 0.02707031 1.21236328 0.02707031 2.44921875 0.0546875 C3.37154297 0.08949219 3.37154297 0.08949219 4.3125 0.125 C4.3125 0.455 4.3125 0.785 4.3125 1.125 C2.518125 1.2178125 2.518125 1.2178125 0.6875 1.3125 C-4.09480383 1.87412287 -6.29257231 3.81494551 -9.6875 7.125 C-7.82206758 1.67219755 -5.82891046 -0.16895393 0 0 Z " fill="#F9BB24" transform="translate(331.6875,236.875)"/>
<path d="M0 0 C-1.875 3.875 -1.875 3.875 -3 5 C-3.36760731 7.32817964 -3.70241581 9.6618385 -4 12 C-4.33 12 -4.66 12 -5 12 C-5.36666667 4.66666667 -5.36666667 4.66666667 -3.625 1.5 C-2 0 -2 0 0 0 Z " fill="#F9C239" transform="translate(15,137)"/>
<path d="M0 0 C0.99 0.33 1.98 0.66 3 1 C1.37660195 2.70884005 -0.29319053 4.37446717 -2 6 C-2.66 6 -3.32 6 -4 6 C-2.84826645 3.53199953 -1.95216435 1.95216435 0 0 Z " fill="#F9BD27" transform="translate(306,42)"/>
</svg>
