<?xml version="1.0" encoding="UTF-8"?>
<svg version="1.1" xmlns="http://www.w3.org/2000/svg" width="445" height="298">
<path d="M0 0 C2.26021025 1.46357877 4.42551459 2.97796904 6.5703125 4.60546875 C7.385 5.19457031 8.1996875 5.78367187 9.0390625 6.390625 C11.99152228 8.97402731 14.10136742 11.86529062 16.2578125 15.10546875 C16.64775391 15.67394531 17.03769531 16.24242187 17.43945312 16.828125 C22.60194467 24.43507836 22.60194467 24.43507836 22.5078125 27.91796875 C21.20351753 31.65694766 18.9922655 34.50429646 16.5703125 37.60546875 C17.93349609 36.82623047 17.93349609 36.82623047 19.32421875 36.03125 C39.37569519 24.81588056 61.79853876 19.34323097 84.5703125 25.60546875 C85.6221875 25.87359375 86.6740625 26.14171875 87.7578125 26.41796875 C102.329669 30.46570667 113.5768598 38.75238031 122.609375 50.87890625 C123.5703125 52.60546875 123.5703125 52.60546875 123.5703125 55.60546875 C121.21593659 57.71272505 118.69656775 59.50860636 116.1484375 61.375 C113.21404014 63.91369832 111.58189425 66.31079864 109.5703125 69.60546875 C110.47910156 69.1465625 111.38789063 68.68765625 112.32421875 68.21484375 C133.37095201 57.82450515 154.27599188 55.23778832 176.8449707 62.53588867 C190.54141052 67.1955332 204.28460248 74.23986504 212.5703125 86.60546875 C215.50395843 95.40640654 214.58710613 107.66290076 210.890625 116.08984375 C202.10195455 132.83512117 188.92496745 142.92618268 171.0234375 148.8671875 C170.21390625 149.11082031 169.404375 149.35445312 168.5703125 149.60546875 C167.86390625 149.81816406 167.1575 150.03085937 166.4296875 150.25 C149.01865613 155.01404205 129.98919356 153.17857256 112.5703125 149.60546875 C112.31378906 150.22292969 112.05726563 150.84039062 111.79296875 151.4765625 C105.48801143 165.42389234 94.57422459 171.87260333 81.02734375 177.69921875 C62.37283579 184.49503221 40.42371318 183.13285905 22.4296875 175.1328125 C17.4324878 172.46354326 13.0138569 169.09891319 8.5703125 165.60546875 C7.23914093 164.60259287 5.9066095 163.60150494 4.5703125 162.60546875 C4.0340625 163.02957031 3.4978125 163.45367187 2.9453125 163.890625 C-2.12712458 167.68660999 -7.29120357 170.71176348 -13.0546875 173.29296875 C-13.64378906 173.56568604 -14.23289063 173.83840332 -14.83984375 174.11938477 C-27.05854992 179.38886057 -39.45725715 181.27865173 -52.65649414 181.12695312 C-54.86391338 181.10550057 -57.06806844 181.12690193 -59.27539062 181.15234375 C-82.0766698 181.19845543 -103.80288457 173.85342853 -120.4296875 157.91796875 C-126.4296875 151.61581048 -126.4296875 151.61581048 -126.4296875 147.60546875 C-127.05746094 147.76660156 -127.68523437 147.92773438 -128.33203125 148.09375 C-148.69103212 151.45696452 -170.90837673 147.23611489 -187.96875 135.50390625 C-196.86654596 128.63989222 -204.3263609 120.0203975 -206.4296875 108.60546875 C-207.67036995 97.94687862 -207.67036995 97.94687862 -205.1484375 93.1875 C-203.37281591 91.10114463 -201.53231154 89.3596811 -199.4296875 87.60546875 C-198.87410156 87.09886719 -198.31851563 86.59226562 -197.74609375 86.0703125 C-182.326211 73.19179127 -163.02269271 68.66750573 -143.4296875 69.60546875 C-143.4090625 68.36796875 -143.3884375 67.13046875 -143.3671875 65.85546875 C-142.08103383 54.7841189 -133.83355704 45.35020525 -125.4296875 38.60546875 C-121.57454025 36.13796584 -117.68899013 34.27071868 -113.4296875 32.60546875 C-112.56472656 32.26644531 -111.69976562 31.92742187 -110.80859375 31.578125 C-92.87413659 25.92968203 -71.24014651 28.97491478 -54.4296875 36.60546875 C-54.0996875 36.27546875 -53.7696875 35.94546875 -53.4296875 35.60546875 C-56.0696875 33.29546875 -58.7096875 30.98546875 -61.4296875 28.60546875 C-59.65439515 19.72900699 -53.354545 10.18861828 -45.9921875 4.83203125 C-43.188451 2.98623805 -40.34007989 1.27722405 -37.4296875 -0.39453125 C-36.36427734 -1.05388672 -36.36427734 -1.05388672 -35.27734375 -1.7265625 C-24.99553132 -7.31150092 -9.89329737 -5.67830733 0 0 Z " fill="#E2F1FE" transform="translate(217.4296875,112.39453125)"/>
<path d="M0 0 C0.33 0 0.66 0 1 0 C1.68331177 16.19069289 -0.72002811 28.64784012 -11.9609375 41.1875 C-20.85305357 49.64988556 -32.31744442 55.48407165 -44 59 C-44.70640625 59.21269531 -45.4128125 59.42539062 -46.140625 59.64453125 C-63.55165637 64.4085733 -82.58111894 62.57310381 -100 59 C-100.25652344 59.61746094 -100.51304687 60.23492187 -100.77734375 60.87109375 C-107.08230107 74.81842359 -117.99608791 81.26713458 -131.54296875 87.09375 C-150.19747671 93.88956346 -172.14659932 92.5273903 -190.140625 84.52734375 C-195.1378247 81.85807451 -199.5564556 78.49344444 -204 75 C-205.33117157 73.99712412 -206.663703 72.99603619 -208 72 C-208.53625 72.42410156 -209.0725 72.84820312 -209.625 73.28515625 C-214.69743708 77.08114124 -219.86151607 80.10629473 -225.625 82.6875 C-226.21410156 82.96021729 -226.80320313 83.23293457 -227.41015625 83.51391602 C-239.62886242 88.78339182 -252.02756965 90.67318298 -265.22680664 90.52148438 C-267.43422588 90.50003182 -269.63838094 90.52143318 -271.84570312 90.546875 C-294.6469823 90.59298668 -316.37319707 83.24795978 -333 67.3125 C-339 61.01034173 -339 61.01034173 -339 57 C-339.62777344 57.16113281 -340.25554687 57.32226562 -340.90234375 57.48828125 C-361.26134462 60.85149577 -383.47868923 56.63064614 -400.5390625 44.8984375 C-409.33894616 38.10995582 -417.08658569 29.3729907 -419 18 C-419.06790675 15.75092848 -419.08499984 13.49998395 -419.0625 11.25 C-419.05347656 10.07953125 -419.04445313 8.9090625 -419.03515625 7.703125 C-419.02355469 6.81109375 -419.01195312 5.9190625 -419 5 C-418.34 4.67 -417.68 4.34 -417 4 C-416.72027344 4.6290625 -416.44054687 5.258125 -416.15234375 5.90625 C-409.46734636 20.17904185 -398.40520846 28.48527926 -383.8125 33.9375 C-381.55258297 34.66007546 -379.28215521 35.35107176 -377 36 C-376.15824219 36.24492187 -375.31648438 36.48984375 -374.44921875 36.7421875 C-352.41189341 41.8736859 -331.83332908 36.38918239 -312 27 C-315.83487184 35.14910266 -322.30139426 40.50279467 -330 45 C-332.3046875 45.6953125 -332.3046875 45.6953125 -334 46 C-322.87313319 61.20671798 -303.26576735 67.12242724 -285.5546875 70.4609375 C-262.62260996 73.68712331 -244.57659128 67.14231305 -226 54 C-223.22184737 51.77258247 -220.56101528 49.47352718 -218 47 C-218.75023437 46.72027344 -219.50046875 46.44054687 -220.2734375 46.15234375 C-230.93027688 41.9781913 -239.26049049 36.43145241 -247 28 C-246.01 27.505 -246.01 27.505 -245 27 C-243.2858343 27.68687132 -241.60316443 28.45268058 -239.9375 29.25 C-220.41368865 37.61401942 -198.82154398 36.86974684 -179 30 C-175.57588192 28.57169621 -172.33449994 26.88924501 -169.1171875 25.0390625 C-168.41851562 24.69617188 -167.71984375 24.35328125 -167 24 C-166.34 24.33 -165.68 24.66 -165 25 C-172.98100641 34.58106325 -181.67041886 42.6637604 -194 46 C-196.79296875 46.09765625 -196.79296875 46.09765625 -199 46 C-190.46325195 56.76111197 -178.08601229 68.58378621 -164 71 C-145.48117123 72.24410634 -126.97457796 68.50778223 -112.13671875 56.7265625 C-107.84129462 52.60689222 -104.52934267 48.3885996 -102 43 C-102 42.34 -102 41.68 -102 41 C-103.45186399 39.82758306 -104.90438289 38.65596415 -106.36083984 37.48925781 C-109.09617195 35.00407375 -110.89633865 32.00813818 -112.8125 28.875 C-113.20630859 28.25496094 -113.60011719 27.63492188 -114.00585938 26.99609375 C-115.66032798 24.35688997 -117.01150911 21.96547266 -118 19 C-114.99774792 20.36828303 -112.74448205 21.97974544 -110.25 24.125 C-97.49553583 34.17333608 -81.19348037 40.43458518 -65 41 C-63.99453125 41.06316406 -62.9890625 41.12632812 -61.953125 41.19140625 C-45.36604499 41.81847879 -28.06695551 35.43657933 -15.4375 24.625 C-8.11167436 17.44692211 -3.31519645 9.67790269 0 0 Z " fill="#B6D5F0" transform="translate(430,203)"/>
<path d="M0 0 C0.68642578 0.39775635 1.37285156 0.7955127 2.08007812 1.20532227 C17.40529283 10.35828152 29.25340204 24.49370148 33.81762695 41.859375 C37.62505973 58.33717727 33.67336321 72.33575118 28 87.9375 C16.12 88.9275 16.12 88.9275 4 89.9375 C3.030625 88.16375 2.06125 86.39 1.0625 84.5625 C-8.02251881 69.14879543 -20.87538085 60.06891898 -38 54.9375 C-45.47445752 53.00707182 -52.6773992 52.60147433 -60.375 52.625 C-61.42171875 52.60888672 -62.4684375 52.59277344 -63.546875 52.57617188 C-71.1050708 52.57150632 -77.7569284 53.85296084 -85 55.9375 C-86.58167665 56.33990211 -88.16482933 56.73658988 -89.75 57.125 C-90.8225 57.393125 -91.895 57.66125 -93 57.9375 C-94.33769442 41.08255031 -87.01066982 26.51574311 -76.46484375 13.90625 C-69.82830452 6.79078526 -62.66724779 2.12814882 -54 -2.0625 C-53.10410156 -2.51753906 -52.20820313 -2.97257812 -51.28515625 -3.44140625 C-36.42838945 -9.70262809 -13.86687131 -8.18501505 0 0 Z " fill="#F9B202" transform="translate(336,69.0625)"/>
<path d="M0 0 C3.79537709 3.17818493 6.92105218 6.69407837 10 10.5625 C8.783125 10.15 7.56625 9.7375 6.3125 9.3125 C5.06702393 8.90511597 5.06702393 8.90511597 3.79638672 8.48950195 C1.90405701 7.86219482 0.02019815 7.20883627 -1.85498047 6.53198242 C-10.20217741 3.67733916 -17.6540738 2.98008983 -26.4375 3.125 C-27.64470703 3.11791016 -28.85191406 3.11082031 -30.09570312 3.10351562 C-41.71952393 3.18436617 -52.90190162 4.81011946 -63.25 10.3125 C-65.48304841 11.46752504 -67.70016324 12.53901244 -70 13.5625 C-70.66 13.2325 -71.32 12.9025 -72 12.5625 C-53.34446321 -9.83315648 -24.92019282 -18.29688576 0 0 Z " fill="#FDFEFF" transform="translate(203,181.4375)"/>
<path d="M0 0 C0.99 0.66 1.98 1.32 3 2 C3.5 5.4375 3.5 5.4375 3 9 C-1.44705683 12.55392408 -7.28477179 13.94501409 -12.625 15.6875 C-13.57890625 16.00783203 -14.5328125 16.32816406 -15.515625 16.65820312 C-22.60592684 19 -22.60592684 19 -26 19 C-26 19.66 -26 20.32 -26 21 C-29.58003773 22.19334591 -32.24315896 22.33543224 -36 22 C-38.38460953 19.92308202 -38.8959746 18.59443084 -39.4375 15.5 C-38.85326707 12.16152613 -37.54897743 11.18616081 -35 9 C-32.62158203 7.93505859 -32.62158203 7.93505859 -30.0078125 7.1484375 C-29.05519531 6.85453125 -28.10257812 6.560625 -27.12109375 6.2578125 C-26.13238281 5.96648437 -25.14367187 5.67515625 -24.125 5.375 C-22.16923551 4.77876168 -20.21350539 4.18241063 -18.2578125 3.5859375 C-17.3407251 3.31201172 -16.4236377 3.03808594 -15.47875977 2.75585938 C-13.48420507 2.14765083 -11.50637776 1.48472559 -9.53515625 0.8046875 C-6.23612135 -0.24246379 -3.43842646 -0.25950388 0 0 Z " fill="#F9B711" transform="translate(420,85)"/>
<path d="M0 0 C1.38342407 0.5401028 2.76623967 1.08176676 4.1484375 1.625 C8.71368244 3.41716857 13.35570232 4.93563452 18.02734375 6.42578125 C20.1875 7.1875 20.1875 7.1875 21.1875 8.1875 C21.32865161 10.85808851 21.22997107 13.51182238 21.1875 16.1875 C17.37075211 18.78288856 14.58431475 17.98005521 10.1875 17.1875 C6.03492702 16.09068042 1.95184002 14.79501165 -2.13867188 13.48657227 C-4.0674999 12.87341057 -6.00204296 12.28130531 -7.9375 11.68945312 C-9.15953125 11.30080078 -10.3815625 10.91214844 -11.640625 10.51171875 C-12.7534082 10.16197998 -13.86619141 9.81224121 -15.01269531 9.4519043 C-18.04658736 8.0817851 -19.18805632 7.05459446 -20.8125 4.1875 C-21.25 1.625 -21.25 1.625 -20.8125 -0.8125 C-15.87332884 -7.25489717 -6.09818112 -2.33002984 0 0 Z " fill="#F9B60E" transform="translate(401.8125,150.8125)"/>
<path d="M0 0 C1.9140625 1.58984375 1.9140625 1.58984375 3.625 3.9375 C4.28886719 4.83210938 4.95273438 5.72671875 5.63671875 6.6484375 C6.4264993 7.76419781 7.21402483 8.8815558 8 10 C9.04801043 11.47147288 10.09619935 12.94281863 11.14453125 14.4140625 C13.75478349 18.08968435 16.34109811 21.78128602 18.91186523 25.48461914 C19.91761566 26.97159484 19.91761566 26.97159484 21 28 C21.45985401 34.2080292 21.45985401 34.2080292 19.875 36.9375 C17.03178761 38.54865369 15.2239369 38.4554702 12 38 C10.06977546 35.95147137 8.73048428 34.21661056 7.25 31.875 C6.39250054 30.59727121 5.53440915 29.31993951 4.67578125 28.04296875 C4.23959473 27.37958496 3.8034082 26.71620117 3.35400391 26.03271484 C1.1295058 22.69315999 -1.21979835 19.44465491 -3.5625 16.1875 C-3.99208008 15.58341309 -4.42166016 14.97932617 -4.86425781 14.35693359 C-6.78563886 11.55870084 -6.78563886 11.55870084 -9 9 C-9.4556962 3.75949367 -9.4556962 3.75949367 -7.875 1.125 C-5.12675209 -0.52394875 -3.15427719 -0.32097544 0 0 Z " fill="#F9B50C" transform="translate(242,27)"/>
<path d="M0 0 C3.0625 0.3125 3.0625 0.3125 4.9375 1.4375 C6.611799 4.22799833 6.40228389 6.09227537 6.0625 9.3125 C4.2265625 12.25 4.2265625 12.25 1.6875 15.3125 C0.77100301 16.44203944 -0.14297607 17.57362561 -1.0546875 18.70703125 C-1.7657666 19.58415771 -1.7657666 19.58415771 -2.49121094 20.47900391 C-5.38450725 24.14690656 -8.03128953 27.99435933 -10.71240234 31.81835938 C-12.35111644 34.14271949 -13.92197209 36.29697209 -15.9375 38.3125 C-18.9375 38.625 -18.9375 38.625 -21.9375 38.3125 C-24.43442736 34.56710895 -24.38284286 32.75171549 -23.9375 28.3125 C-22.3203125 25.49609375 -22.3203125 25.49609375 -20.0625 22.75 C-19.24910156 21.73035156 -18.43570312 20.71070312 -17.59765625 19.66015625 C-17.16469238 19.12277832 -16.73172852 18.58540039 -16.28564453 18.03173828 C-13.9084979 15.00025212 -11.7140624 11.83897115 -9.5 8.6875 C-3.66739454 0.39014835 -3.66739454 0.39014835 0 0 Z " fill="#F9B40A" transform="translate(374.9375,26.6875)"/>
<path d="M0 0 C2.56572747 2.56572747 2.25790742 4.29144471 2.30354309 7.7908783 C2.30263168 8.5804744 2.30172028 9.3700705 2.30078125 10.18359375 C2.30506638 10.9949025 2.3093515 11.80621124 2.31376648 12.6421051 C2.319514 14.35945705 2.32000694 16.07683335 2.31567383 17.79418945 C2.3125165 20.4237622 2.33595748 23.05220731 2.36132812 25.68164062 C2.36360132 27.34895691 2.36430452 29.01627623 2.36328125 30.68359375 C2.372491 31.47116562 2.38170074 32.25873749 2.39118958 33.07017517 C2.34537452 38.46964742 2.34537452 38.46964742 0.69995117 40.99633789 C-2.19462674 42.70531531 -4.74712475 42.35485912 -8 42 C-10.53222254 38.2016662 -10.30589635 35.12123906 -10.30078125 30.71875 C-10.30506638 29.9088562 -10.3093515 29.0989624 -10.31376648 28.26452637 C-10.31950638 26.55315078 -10.32001254 24.8417508 -10.31567383 23.13037109 C-10.31251167 20.50966916 -10.33598372 17.89009378 -10.36132812 15.26953125 C-10.36360091 13.60677226 -10.36430471 11.94401023 -10.36328125 10.28125 C-10.37709587 9.10459778 -10.37709587 9.10459778 -10.39118958 7.9041748 C-10.34546664 2.53925235 -10.34546664 2.53925235 -8.69995117 -0.02929688 C-5.75193845 -1.71266591 -3.16661966 -0.74847374 0 0 Z " fill="#F8B306" transform="translate(311,6)"/>
<path d="M0 0 C5.84763498 0.15051488 11.27390054 2.00210404 16.82421875 3.7109375 C18.42426758 4.18660156 18.42426758 4.18660156 20.05664062 4.671875 C34.58707332 9.03373097 34.58707332 9.03373097 36.63671875 12.3359375 C36.32421875 16.0234375 36.32421875 16.0234375 35.63671875 19.3359375 C33.56640625 20.6015625 33.56640625 20.6015625 30.63671875 21.3359375 C28.09266234 20.02481623 26.04037319 18.76156408 23.76171875 17.0859375 C16.82648062 12.10171141 10.91888604 10.2072188 2.26171875 9.7734375 C-4.26228236 9.43693639 -4.26228236 9.43693639 -5.36328125 8.3359375 C-5.55078125 5.3984375 -5.55078125 5.3984375 -5.36328125 2.3359375 C-3.36328125 0.3359375 -3.36328125 0.3359375 0 0 Z " fill="#F9B50D" transform="translate(196.36328125,85.6640625)"/>
<path d="M0 0 C0.99 0.66 1.98 1.32 3 2 C2.24074219 1.89300781 1.48148437 1.78601563 0.69921875 1.67578125 C-0.79158203 1.49595703 -0.79158203 1.49595703 -2.3125 1.3125 C-3.79169922 1.12107422 -3.79169922 1.12107422 -5.30078125 0.92578125 C-7.99937105 0.74052329 -7.99937105 0.74052329 -9.73046875 2.29296875 C-10.87051383 3.8258909 -11.94031164 5.41046747 -13 7 C-13.32152137 4.0259273 -13.41566674 2.542174 -11.5625 0.125 C-7.68770319 -1.57613031 -4.05613075 -0.99349059 0 0 Z " fill="#FAC33D" transform="translate(394,148)"/>
<path d="M0 0 C0.9075 0.103125 1.815 0.20625 2.75 0.3125 C2.75 0.6425 2.75 0.9725 2.75 1.3125 C1.1 1.3125 -0.55 1.3125 -2.25 1.3125 C-2.476875 1.89 -2.70375 2.4675 -2.9375 3.0625 C-4.58038023 5.8788661 -6.64533227 7.39327114 -9.25 9.3125 C-5.33928571 0.51339286 -5.33928571 0.51339286 0 0 Z " fill="#F9C23A" transform="translate(375.25,26.6875)"/>
</svg>
