<?xml version="1.0" encoding="UTF-8"?>
<svg version="1.1" xmlns="http://www.w3.org/2000/svg" width="319" height="218">
<path d="M0 0 C1.19625 -0.01224609 2.3925 -0.02449219 3.625 -0.03710938 C4.76453125 -0.03904297 5.9040625 -0.04097656 7.078125 -0.04296875 C8.63901855 -0.04913208 8.63901855 -0.04913208 10.23144531 -0.05541992 C12.75 0.1875 12.75 0.1875 14.75 2.1875 C14.375 4.3125 14.375 4.3125 13.75 6.1875 C13.16734375 6.16655273 12.5846875 6.14560547 11.984375 6.12402344 C-11.08949495 5.40749996 -30.00976568 9.36349252 -47.82421875 24.85546875 C-58.19905259 34.82934283 -66.83660178 48.45923945 -67.35546875 63.1796875 C-67.37247761 65.85348001 -67.33990197 68.51541368 -67.25 71.1875 C-61.10080624 70.28990527 -57.17874333 69.35099124 -53.25 64.1875 C-50.62248576 59.73175033 -48.73742982 55.14559939 -47.25 50.1875 C-46.59 50.1875 -45.93 50.1875 -45.25 50.1875 C-45.1675 49.630625 -45.085 49.07375 -45 48.5 C-44.01141235 45.45185474 -42.32497539 43.61818545 -40.25 41.1875 C-39.64800781 40.39730469 -39.04601562 39.60710938 -38.42578125 38.79296875 C-36.21345674 36.14373994 -33.94340105 34.0889362 -31.25 31.9375 C-30.404375 31.25171875 -29.55875 30.5659375 -28.6875 29.859375 C-26.25 28.1875 -26.25 28.1875 -24 27.640625 C-23.4225 27.49109375 -22.845 27.3415625 -22.25 27.1875 C-21.755 25.7025 -21.755 25.7025 -21.25 24.1875 C-18.91291652 23.01597729 -16.68376696 22.04531226 -14.25 21.125 C-13.61449219 20.86912109 -12.97898438 20.61324219 -12.32421875 20.34960938 C-3.19874427 16.79268596 5.29269602 15.84537658 15.0625 15.875 C16.11373047 15.85888672 17.16496094 15.84277344 18.24804688 15.82617188 C28.23315118 15.82003475 37.37333508 17.85492141 46.5 21.875 C47.50546875 22.31199219 48.5109375 22.74898437 49.546875 23.19921875 C50.27390625 23.52535156 51.0009375 23.85148437 51.75 24.1875 C51.75 24.8475 51.75 25.5075 51.75 26.1875 C52.69875 26.496875 53.6475 26.80625 54.625 27.125 C57.75 28.1875 57.75 28.1875 59.75 29.1875 C59.75 29.8475 59.75 30.5075 59.75 31.1875 C60.29366211 31.02451416 60.83732422 30.86152832 61.39746094 30.69360352 C64.12415471 30.10700781 66.60141293 30.07500752 69.390625 30.08984375 C70.99550781 30.09467773 70.99550781 30.09467773 72.6328125 30.09960938 C73.74398437 30.10798828 74.85515625 30.11636719 76 30.125 C77.68996094 30.13176758 77.68996094 30.13176758 79.4140625 30.13867188 C82.19276217 30.15044603 84.97135409 30.1668916 87.75 30.1875 C87.75 30.8475 87.75 31.5075 87.75 32.1875 C88.37567871 32.20731934 89.00135742 32.22713867 89.64599609 32.24755859 C92.47276519 32.34264226 95.29877815 32.45238746 98.125 32.5625 C99.10984375 32.5934375 100.0946875 32.624375 101.109375 32.65625 C102.05039063 32.69492187 102.99140625 32.73359375 103.9609375 32.7734375 C104.83024902 32.8048584 105.69956055 32.8362793 106.59521484 32.86865234 C108.75 33.1875 108.75 33.1875 110.75 35.1875 C111.1640625 37.3515625 111.1640625 37.3515625 111.375 39.8125 C111.48714844 41.03839844 111.48714844 41.03839844 111.6015625 42.2890625 C111.65054688 42.91554687 111.69953125 43.54203125 111.75 44.1875 C112.74 44.5175 113.73 44.8475 114.75 45.1875 C114.75 45.8475 114.75 46.5075 114.75 47.1875 C115.41 47.1875 116.07 47.1875 116.75 47.1875 C116.75 47.8475 116.75 48.5075 116.75 49.1875 C117.74 49.5175 118.73 49.8475 119.75 50.1875 C119.75 51.1775 119.75 52.1675 119.75 53.1875 C127.67 53.1875 135.59 53.1875 143.75 53.1875 C144.08 55.1675 144.41 57.1475 144.75 59.1875 C142.63074396 61.30675604 138.1303907 60.60581017 135.1875 60.75 C134.38119141 60.79318359 133.57488281 60.83636719 132.74414062 60.88085938 C130.74631195 60.98725262 128.7481793 61.08790888 126.75 61.1875 C127.4925 62.3321875 127.4925 62.3321875 128.25 63.5 C129.75 66.1875 129.75 66.1875 129.75 69.1875 C130.36875 69.3525 130.9875 69.5175 131.625 69.6875 C134.40210774 71.64781135 134.62799806 73.59910129 135.35742188 76.81591797 C138.32880716 94.76618951 134.62360951 111.07744711 124.75 126.1875 C113.90691473 140.47985384 99.42941577 148.78059078 81.81248856 151.90725708 C74.19178521 152.9427286 66.38827837 152.6595667 58.71484375 152.65625 C56.70276175 152.66336335 54.69068175 152.67106404 52.67860413 152.67932129 C48.48888476 152.6926864 44.29935371 152.69436752 40.10961914 152.68847656 C34.73930684 152.68254161 29.36988649 152.71336488 23.99974728 152.75359344 C19.85707218 152.77940188 15.71461521 152.78235498 11.5718708 152.77870178 C9.59069104 152.78039475 7.6095014 152.79005424 5.6284008 152.80784607 C2.86875348 152.82993506 0.11095825 152.8203911 -2.64868164 152.80273438 C-3.46479416 152.81599762 -4.28090668 152.82926086 -5.12174988 152.84292603 C-7.40174866 152.80895996 -7.40174866 152.80895996 -11.25 152.1875 C-12.60651939 150.53964968 -13.94063837 148.8730645 -15.25 147.1875 C-18.01427266 146.68879296 -20.17113972 146.51483146 -22.93334961 146.55981445 C-23.70309113 146.55254333 -24.47283264 146.54527222 -25.26589966 146.53778076 C-27.81184783 146.51917663 -30.35639448 146.53527139 -32.90234375 146.55078125 C-34.68153633 146.54273608 -36.46071929 146.53221506 -38.23988342 146.51933289 C-42.93185696 146.49074718 -47.62338952 146.49020959 -52.31542969 146.49719238 C-59.79224222 146.50450141 -67.2689098 146.47282823 -74.74560738 146.43474388 C-77.34051651 146.42598983 -79.93510635 146.43115948 -82.53001404 146.43830872 C-92.54066884 146.43380623 -102.65003975 146.38748675 -112.25 143.1875 C-112.58 144.1775 -112.91 145.1675 -113.25 146.1875 C-113.25 145.5275 -113.25 144.8675 -113.25 144.1875 C-114.13816406 144.105 -115.02632812 144.0225 -115.94140625 143.9375 C-123.76646289 142.16369731 -130.07632133 133.90352405 -134.71875 127.640625 C-142.70233879 114.85058989 -145.8597768 98.97958883 -142.4453125 84.20703125 C-137.74487554 68.56592207 -128.13739419 56.56694105 -113.91796875 48.54296875 C-101.33531586 42.15031787 -87.22485809 40.99831028 -73.5625 44.6875 C-72.11623231 45.16154222 -70.67388213 45.6499445 -69.25 46.1875 C-69.14429687 45.46691406 -69.03859375 44.74632812 -68.9296875 44.00390625 C-65.61214852 30.25709245 -50.83416735 17.33960332 -39.25 10.1875 C-26.04995633 2.83366857 -15.06735781 0.00822454 0 0 Z " fill="#D3E5EB" transform="translate(153.25,10.8125)"/>
<path d="M0 0 C1.19625 -0.01224609 2.3925 -0.02449219 3.625 -0.03710938 C4.76453125 -0.03904297 5.9040625 -0.04097656 7.078125 -0.04296875 C8.63901855 -0.04913208 8.63901855 -0.04913208 10.23144531 -0.05541992 C12.75 0.1875 12.75 0.1875 14.75 2.1875 C14.375 4.3125 14.375 4.3125 13.75 6.1875 C13.16734375 6.16655273 12.5846875 6.14560547 11.984375 6.12402344 C-11.08949495 5.40749996 -30.00976568 9.36349252 -47.82421875 24.85546875 C-61.40526534 37.91164398 -66.94331353 52.79073 -68.25 71.1875 C-69.9 71.5175 -71.55 71.8475 -73.25 72.1875 C-73.27710123 69.6249282 -73.29688771 67.06264635 -73.3125 64.5 C-73.32087891 63.77876953 -73.32925781 63.05753906 -73.33789062 62.31445312 C-73.35543632 58.47194618 -73.18524221 54.92110474 -72.25 51.1875 C-88.21887104 48.98862611 -103.46767501 48.45625227 -117.125 58.4375 C-126.78422542 66.75017912 -135.16056038 77.11153053 -136.45507812 90.27246094 C-136.55351006 92.51932043 -136.57893989 94.7510712 -136.5625 97 C-136.55758545 97.79462646 -136.5526709 98.58925293 -136.54760742 99.40795898 C-136.42796137 105.41173663 -135.72752852 110.66070561 -133.25 116.1875 C-132.92128906 116.92871094 -132.59257812 117.66992188 -132.25390625 118.43359375 C-128.04083276 126.84516262 -121.48398723 134.54268669 -113.25 139.1875 C-113.58 140.8375 -113.91 142.4875 -114.25 144.1875 C-122.33568018 143.2667108 -128.08452824 135.83331631 -133.0625 129.875 C-142.01834831 117.79305369 -144.78910505 102.89413992 -143.25 88.1875 C-140.84112425 74.37462155 -132.66598616 61.326477 -121.25 53.1875 C-108.39601905 44.19626036 -95.67637842 41.73419085 -80.25 43.1875 C-76.44763108 43.89689719 -72.86757597 44.82176345 -69.25 46.1875 C-69.14429687 45.46691406 -69.03859375 44.74632812 -68.9296875 44.00390625 C-65.61214852 30.25709245 -50.83416735 17.33960332 -39.25 10.1875 C-26.04995633 2.83366857 -15.06735781 0.00822454 0 0 Z " fill="#4C4C4C" transform="translate(153.25,10.8125)"/>
<path d="M0 0 C-0.33 2.97 -0.66 5.94 -1 9 C-1.93199219 9.08636719 -2.86398438 9.17273438 -3.82421875 9.26171875 C-16.17172238 10.62256597 -26.78026753 13.19003342 -36 22 C-36.66 22 -37.32 22 -38 22 C-38 22.99 -38 23.98 -38 25 C-38.66 25 -39.32 25 -40 25 C-40 25.66 -40 26.32 -40 27 C-41.0828125 27.99 -41.0828125 27.99 -42.1875 29 C-50.78685104 37.3550513 -52.13899693 49.4940639 -52.4375 60.875 C-52.50216049 68.72609545 -50.40242758 74.90350819 -47 82 C-50 82 -50 82 -51.8671875 80.3828125 C-62.81092185 68.07643418 -66.17467042 55.42397632 -65.23828125 39.26123047 C-64.20337695 29.44024316 -59.6339678 21.1475653 -53 14 C-52.43152344 13.36449219 -51.86304688 12.72898437 -51.27734375 12.07421875 C-37.75216459 -2.31361421 -18.47707755 -5.22541786 0 0 Z " fill="#F9FAFA" transform="translate(81,62)"/>
<path d="M0 0 C1.67542976 0.28604898 3.34385343 0.61781233 5 1 C9.94536022 17.92455948 7.67881308 35.0827702 -0.60791016 50.43701172 C-9.30892566 65.63945714 -22.27540256 74.60536188 -38.70353699 79.86567688 C-49.15185216 82.63016283 -59.44021787 82.38116071 -70.17578125 82.29296875 C-72.19744042 82.28736211 -74.2191037 82.28309707 -76.24076843 82.28010559 C-81.51955748 82.26874089 -86.79809244 82.2393473 -92.07678223 82.20599365 C-97.48018966 82.17511063 -102.88363881 82.16156157 -108.28710938 82.14648438 C-118.85818355 82.11446835 -129.42907051 82.06337528 -140 82 C-140.66 80.68 -141.32 79.36 -142 78 C-139.39177641 75.39177641 -137.57873463 75.76159076 -134.0269928 75.74324036 C-133.18970139 75.74893539 -132.35240997 75.75463043 -131.48974609 75.76049805 C-130.60807266 75.75848389 -129.72639923 75.75646973 -128.81800842 75.75439453 C-126.89679656 75.7508415 -124.97557302 75.75162534 -123.05436325 75.75617027 C-120.00002387 75.76176161 -116.94606468 75.75260313 -113.89175415 75.7389679 C-105.20483914 75.70186296 -96.51804669 75.68320308 -87.83105469 75.69458008 C-82.51818699 75.70048335 -77.20584583 75.68190687 -71.89308548 75.64869118 C-69.87999571 75.6408075 -67.86684745 75.64191714 -65.85377121 75.65271568 C-49.4736359 75.73668343 -34.64025413 74.03311162 -21 64 C-20.23300781 63.43796875 -19.46601563 62.8759375 -18.67578125 62.296875 C-8.8338229 54.3431022 -1.97990309 42.4973501 0 30 C0.56368279 21.3832445 0.76608829 12.44886937 -0.58203125 3.8984375 C-0.71996094 2.94195312 -0.85789062 1.98546875 -1 1 C-0.67 0.67 -0.34 0.34 0 0 Z " fill="#4E5050" transform="translate(282,81)"/>
<path d="M0 0 C35.64 0 71.28 0 108 0 C108.495 1.98 108.495 1.98 109 4 C107 6 107 6 105.10125637 6.24888897 C103.9334493 6.24807182 103.9334493 6.24807182 102.74205017 6.24723816 C101.40224342 6.25352989 101.40224342 6.25352989 100.03536987 6.25994873 C98.56174484 6.25151947 98.56174484 6.25151947 97.05834961 6.24291992 C96.02578537 6.24481827 94.99322113 6.24671661 93.92936707 6.24867249 C90.5036163 6.25238846 87.07807579 6.24166501 83.65234375 6.23046875 C81.28105189 6.22927739 78.90975955 6.22882369 76.53846741 6.2290802 C71.56427057 6.22751395 66.59014556 6.21921297 61.6159668 6.20581055 C55.22414434 6.18881129 48.83240085 6.18499638 42.44055843 6.18575573 C37.54312886 6.18548446 32.64571672 6.18001039 27.74829292 6.17275429 C25.39065241 6.16956121 23.03300991 6.16759873 20.67536736 6.16686058 C17.38762892 6.16470429 14.09997606 6.15597579 10.81225586 6.14526367 C9.33559448 6.14594345 9.33559448 6.14594345 7.82910156 6.14663696 C6.93871689 6.14237198 6.04833221 6.13810699 5.13096619 6.13371277 C4.35280517 6.13203692 3.57464415 6.13036108 2.77290249 6.12863445 C1 6 1 6 0 5 C0 3.35 0 1.7 0 0 Z " fill="#565656" transform="translate(46,183)"/>
<path d="M0 0 C1.1821995 0.00138269 1.1821995 0.00138269 2.38828182 0.00279331 C3.28997097 0.00141865 4.19166012 0.00004398 5.12067318 -0.00137234 C6.6160738 0.00402058 6.6160738 0.00402058 8.14168453 0.00952244 C9.18546261 0.00937641 10.22924068 0.00923038 11.3046484 0.00907993 C14.77305295 0.00977956 18.24140454 0.0175743 21.70979977 0.02539158 C24.1073367 0.02725558 26.50487401 0.02867957 28.90241146 0.0296793 C35.22684936 0.03350589 41.55126446 0.04333737 47.87569332 0.05438328 C54.32364754 0.06459438 60.77160543 0.06917627 67.21956539 0.0742197 C79.88168452 0.08495951 92.54378781 0.10184664 105.20589352 0.12304783 C106.33089352 3.87304783 106.33089352 3.87304783 105.20589352 6.12304783 C69.89589352 6.12304783 34.58589352 6.12304783 -1.79410648 6.12304783 C-2.12410648 4.47304783 -2.45410648 2.82304783 -2.79410648 1.12304783 C-1.79410648 0.12304783 -1.79410648 0.12304783 0 0 Z " fill="#54585B" transform="translate(157.79410648345947,44.876952171325684)"/>
<path d="M0 0 C1.1697553 0.00276538 1.1697553 0.00276538 2.36314201 0.00558662 C3.7051165 0.00146263 3.7051165 0.00146263 5.07420158 -0.00274467 C6.05818932 0.00444588 7.04217705 0.01163643 8.05598259 0.01904488 C9.09015312 0.01875282 10.12432365 0.01846077 11.18983269 0.01815987 C14.62039794 0.01955721 18.05074808 0.03513748 21.48127556 0.05078316 C23.8549621 0.05451185 26.22865017 0.0573595 28.60233879 0.0593586 C34.85939065 0.06700638 41.11635012 0.0866647 47.3733654 0.10876656 C53.75437482 0.12920035 60.13539912 0.13835503 66.51643181 0.14843941 C79.04381505 0.1699095 91.57113415 0.20367648 104.09846306 0.24609566 C104.48065073 1.90224223 104.81241408 3.5706659 105.09846306 5.24609566 C104.09846306 6.24609566 104.09846306 6.24609566 102.30435658 6.36914349 C101.51622357 6.36822169 100.72809057 6.3672999 99.91607475 6.36635017 C98.56354103 6.36841217 98.56354103 6.36841217 97.1836834 6.37051582 C96.18674965 6.36692055 95.1898159 6.36332527 94.16267204 6.35962105 C93.11889397 6.35976707 92.07511589 6.3599131 90.99970818 6.36006355 C87.53130363 6.35936392 84.06295203 6.35156919 80.59455681 6.34375191 C78.19701988 6.34188791 75.79948256 6.34046392 73.40194511 6.33946419 C67.07750722 6.3356376 60.75309212 6.32580612 54.42866325 6.31476021 C47.98070903 6.30454911 41.53275115 6.29996722 35.08479118 6.29492378 C22.42267206 6.28418397 9.76056877 6.26729685 -2.90153694 6.24609566 C-3.52653694 4.37109566 -3.52653694 4.37109566 -3.90153694 2.24609566 C-1.90153694 0.24609566 -1.90153694 0.24609566 0 0 Z " fill="#4F5353" transform="translate(37.90153694152832,121.75390434265137)"/>
<path d="M0 0 C35.31 0 70.62 0 107 0 C107.495 2.475 107.495 2.475 108 5 C106.45554193 6.54445807 105.02023223 6.12907996 102.86903381 6.13371277 C101.5334568 6.14011024 101.5334568 6.14011024 100.17089844 6.14663696 C99.18645752 6.14618378 98.2020166 6.14573059 97.18774414 6.14526367 C96.15693222 6.14862228 95.1261203 6.1519809 94.06407166 6.15544128 C90.63775445 6.16498331 87.21148594 6.16689601 83.78515625 6.16796875 C81.41483032 6.17117901 79.04450458 6.1745429 76.67417908 6.17805481 C71.69822734 6.18405418 66.72229299 6.18589388 61.74633789 6.18530273 C55.35568016 6.18520105 48.96513339 6.19885603 42.57450199 6.21607494 C37.6770323 6.22716801 32.77958966 6.22922278 27.88210869 6.22869301 C25.52528946 6.2298771 23.16846961 6.23432266 20.81166267 6.24202538 C17.52157847 6.25177129 14.23173813 6.24896867 10.94165039 6.24291992 C9.9592337 6.24853943 8.97681702 6.25415894 7.96463013 6.25994873 C7.07142563 6.25575424 6.17822113 6.25155975 5.25794983 6.24723816 C4.47941178 6.24778293 3.70087374 6.24832769 2.89874363 6.24888897 C1 6 1 6 -1 4 C-0.67 2.68 -0.34 1.36 0 0 Z " fill="#525455" transform="translate(190,65)"/>
<path d="M0 0 C35.64 0 71.28 0 108 0 C108.495 1.98 108.495 1.98 109 4 C108 5 108 5 106.19027615 5.12304783 C105.3947688 5.12212604 104.59926146 5.12120424 103.77964783 5.12025452 C102.86954453 5.12162918 101.95944122 5.12300385 101.02175903 5.12442017 C100.01547455 5.12082489 99.00919006 5.11722961 97.97241211 5.11352539 C96.91888046 5.11367142 95.86534882 5.11381744 94.77989197 5.1139679 C91.279022 5.11326826 87.77820448 5.10547348 84.27734375 5.09765625 C81.85738657 5.09579225 79.43742901 5.09436826 77.01747131 5.09336853 C70.63384976 5.08954192 64.25025079 5.07971041 57.86663818 5.06866455 C51.35836086 5.05845351 44.8500799 5.05387157 38.34179688 5.04882812 C25.56118825 5.03808827 12.78059533 5.02120112 0 5 C0 3.35 0 1.7 0 0 Z " fill="#474747" transform="translate(207,25)"/>
<path d="M0 0 C0.79550735 0.00092179 1.59101469 0.00184359 2.41062832 0.00279331 C3.32073162 0.00141865 4.23083492 0.00004398 5.16851711 -0.00137234 C6.1748016 0.00222294 7.18108608 0.00581821 8.21786404 0.00952244 C9.27139568 0.00937641 10.32492733 0.00923038 11.41038418 0.00907993 C14.91125415 0.00977957 18.41207166 0.01757435 21.9129324 0.02539158 C24.33288958 0.02725558 26.75284714 0.02867957 29.17280483 0.0296793 C35.55642639 0.03350591 41.94002536 0.04333742 48.32363796 0.05438328 C54.83191529 0.06459432 61.34019625 0.06917626 67.84847927 0.0742197 C80.62908789 0.08495956 93.40968082 0.10184671 106.19027615 0.12304783 C105.86027615 1.77304783 105.53027615 3.42304783 105.19027615 5.12304783 C69.88027615 5.12304783 34.57027615 5.12304783 -1.80972385 5.12304783 C-2.13972385 3.80304783 -2.46972385 2.48304783 -2.80972385 1.12304783 C-1.80972385 0.12304783 -1.80972385 0.12304783 0 0 Z " fill="#454545" transform="translate(13.809723854064941,162.87695217132568)"/>
<path d="M0 0 C35.64 0 71.28 0 108 0 C108.495 1.98 108.495 1.98 109 4 C108 5 108 5 106.20589352 5.12304783 C105.41776052 5.12212604 104.62962751 5.12120424 103.81761169 5.12025452 C102.46507797 5.12231651 102.46507797 5.12231651 101.08522034 5.12442017 C100.08828659 5.12082489 99.09135284 5.11722961 98.06420898 5.11352539 C97.02043091 5.11367142 95.97665283 5.11381744 94.90124512 5.1139679 C91.43284057 5.11326826 87.96448897 5.10547353 84.49609375 5.09765625 C82.09855682 5.09579225 79.7010195 5.09436826 77.30348206 5.09336853 C70.97904416 5.08954194 64.65462906 5.07971046 58.3302002 5.06866455 C51.88224598 5.05845345 45.43428809 5.05387156 38.98632812 5.04882812 C26.324209 5.03808832 13.66210571 5.02120119 1 5 C0.67 3.35 0.34 1.7 0 0 Z " fill="#454545" transform="translate(178,5)"/>
<path d="M0 0 C1.1821995 0.00138269 1.1821995 0.00138269 2.38828182 0.00279331 C3.28997097 0.00141865 4.19166012 0.00004398 5.12067318 -0.00137234 C6.6160738 0.00402058 6.6160738 0.00402058 8.14168453 0.00952244 C9.18546261 0.00937641 10.22924068 0.00923038 11.3046484 0.00907993 C14.77305295 0.00977956 18.24140454 0.0175743 21.70979977 0.02539158 C24.1073367 0.02725558 26.50487401 0.02867957 28.90241146 0.0296793 C35.22684936 0.03350589 41.55126446 0.04333737 47.87569332 0.05438328 C54.32364754 0.06459438 60.77160543 0.06917627 67.21956539 0.0742197 C79.88168452 0.08495951 92.54378781 0.10184664 105.20589352 0.12304783 C105.76839352 2.06054783 105.76839352 2.06054783 106.20589352 4.12304783 C105.20589352 5.12304783 105.20589352 5.12304783 103.41178703 5.24609566 C102.62365403 5.24517386 101.83552103 5.24425207 101.02350521 5.24330235 C99.67097149 5.24536434 99.67097149 5.24536434 98.29111385 5.24746799 C97.29418011 5.24387272 96.29724636 5.24027744 95.2701025 5.23657322 C94.22632442 5.23671925 93.18254635 5.23686527 92.10713863 5.23701572 C88.63873409 5.23631609 85.17038249 5.22852136 81.70198727 5.22070408 C79.30445033 5.21884008 76.90691302 5.21741609 74.50937557 5.21641636 C68.18493767 5.21258977 61.86052257 5.20275829 55.53609371 5.19171238 C49.08813949 5.18150128 42.64018161 5.17691939 36.19222164 5.17187595 C23.53010251 5.16113614 10.86799922 5.14424902 -1.79410648 5.12304783 C-2.35660648 3.18554783 -2.35660648 3.18554783 -2.79410648 1.12304783 C-1.79410648 0.12304783 -1.79410648 0.12304783 0 0 Z " fill="#444548" transform="translate(65.79410648345947,142.87695217132568)"/>
<path d="M0 0 C0.86603851 0.00444122 1.73207703 0.00888245 2.62435913 0.01345825 C3.60522491 0.01360931 4.5860907 0.01376038 5.59667969 0.01391602 C6.6581723 0.02423859 7.71966492 0.03456116 8.81332397 0.04519653 C10.44048843 0.04944138 10.44048843 0.04944138 12.1005249 0.05377197 C15.57521461 0.06499325 19.04964929 0.09010141 22.52426147 0.11550903 C24.87582026 0.12553631 27.22738307 0.1346626 29.57894897 0.14285278 C35.35247392 0.16493892 41.12584948 0.19843559 46.89926147 0.24050903 C47.28144915 1.89665561 47.61321249 3.56507928 47.89926147 5.24050903 C46.89926147 6.24050903 46.89926147 6.24050903 44.91877747 6.36076355 C44.05051834 6.35854294 43.18225922 6.35632233 42.28768921 6.35403442 C41.30674789 6.35395889 40.32580658 6.35388336 39.31513977 6.35380554 C38.24848587 6.34864426 37.18183197 6.34348297 36.08285522 6.33816528 C34.45356834 6.33604286 34.45356834 6.33604286 32.79136658 6.33387756 C29.30647072 6.32825951 25.82163806 6.31570396 22.33676147 6.30300903 C19.98064261 6.29799636 17.62452274 6.29343305 15.2684021 6.28933716 C9.47866683 6.27828422 3.68896867 6.26152854 -2.10073853 6.24050903 C-2.76073853 4.92050903 -3.42073853 3.60050903 -4.10073853 2.24050903 C-2.10073853 0.24050903 -2.10073853 0.24050903 0 0 Z " fill="#45494A" transform="translate(167.10073852539063,84.75949096679688)"/>
<path d="M0 0 C0.86825912 0.00222061 1.73651825 0.00444122 2.63108826 0.00672913 C3.61202957 0.00680466 4.59297089 0.00688019 5.6036377 0.00695801 C6.6702916 0.01211929 7.7369455 0.01728058 8.83592224 0.02259827 C9.92211349 0.02401321 11.00830475 0.02542816 12.12741089 0.02688599 C15.61230674 0.03250403 19.09713941 0.04505959 22.58201599 0.05775452 C24.93813486 0.06276719 27.29425473 0.0673305 29.65037537 0.07142639 C35.44011063 0.08247933 41.2298088 0.09923501 47.01951599 0.12025452 C47.40170366 1.77640109 47.73346701 3.44482476 48.01951599 5.12025452 C47.01951599 6.12025452 47.01951599 6.12025452 45.03903198 6.24050903 C44.17077286 6.23828842 43.30251373 6.23606781 42.40794373 6.23377991 C41.42700241 6.23370438 40.4460611 6.23362885 39.43539429 6.23355103 C38.36874039 6.22838974 37.30208649 6.22322845 36.20310974 6.21791077 C34.57382286 6.21578835 34.57382286 6.21578835 32.91162109 6.21362305 C29.42672524 6.208005 25.94189257 6.19544944 22.45701599 6.18275452 C20.10089712 6.17774184 17.74477726 6.17317853 15.38865662 6.16908264 C9.59892135 6.15802971 3.80922318 6.14127403 -1.98048401 6.12025452 C-2.36267168 4.46410794 -2.69443503 2.79568427 -2.98048401 1.12025452 C-1.98048401 0.12025452 -1.98048401 0.12025452 0 0 Z " fill="#505050" transform="translate(22.980484008789063,202.87974548339844)"/>
<path d="M0 0 C13.86 0 27.72 0 42 0 C43 4 43 4 42 6 C28.14 6 14.28 6 0 6 C0 4.02 0 2.04 0 0 Z " fill="#656565" transform="translate(86,203)"/>
<path d="M0 0 C1.72974441 0.00015918 3.45949355 0.0058569 5.18920898 0.01586914 C6.09783188 0.01728409 7.00645477 0.01869904 7.94261169 0.02015686 C10.85687494 0.02577346 13.77106254 0.03832874 16.68530273 0.05102539 C18.65600475 0.05603825 20.62670797 0.06060153 22.59741211 0.06469727 C27.43923832 0.07574828 32.28100768 0.09302401 37.12280273 0.11352539 C38.24780273 3.86352539 38.24780273 3.86352539 37.12280273 6.11352539 C23.59280273 6.11352539 10.06280273 6.11352539 -3.87719727 6.11352539 C-4.20719727 4.46352539 -4.53719727 2.81352539 -4.87719727 1.11352539 C-3.87719727 0.11352539 -3.87719727 0.11352539 0 0 Z " fill="#4F5658" transform="translate(234.877197265625,84.886474609375)"/>
<path d="M0 0 C1.67542976 0.28604898 3.34385343 0.61781233 5 1 C6.81601453 7.21496605 7.34992168 12.8508277 7.3125 19.3125 C7.31121094 20.23442139 7.30992187 21.15634277 7.30859375 22.10620117 C7.2149626 28.74289418 6.44859553 34.77648636 4 41 C3.01 41 2.02 41 1 41 C-1.17341557 37.80380063 -0.85854936 35.84871077 -0.2644043 32.16040039 C0.27003137 27.79362179 0.14271339 23.39292032 0.125 19 C0.13080078 17.56140625 0.13080078 17.56140625 0.13671875 16.09375 C0.13104727 11.9649114 0.07756982 7.95811689 -0.5703125 3.875 C-0.71210938 2.92625 -0.85390625 1.9775 -1 1 C-0.67 0.67 -0.34 0.34 0 0 Z " fill="#545553" transform="translate(282,81)"/>
<path d="M0 0 C35.31 0 70.62 0 107 0 C107.495 1.98 107.495 1.98 108 4 C107.01 3.01 107.01 3.01 106 2 C104.32825639 2.30685859 102.66305511 2.64909177 101 3 C97.69062182 3.15896553 94.38172455 3.1262523 91.0690918 3.11352539 C90.07349747 3.11367142 89.07790314 3.11381744 88.05213928 3.1139679 C84.76781012 3.11327232 81.48353798 3.10549652 78.19921875 3.09765625 C75.91950003 3.09579081 73.63978091 3.0943675 71.36006165 3.09336853 C65.36448049 3.08955329 59.36892362 3.07973146 53.37335205 3.06866455 C47.253462 3.0584291 41.13356802 3.05386633 35.01367188 3.04882812 C23.00910392 3.03810832 11.00455398 3.02104379 -1 3 C-0.67 2.01 -0.34 1.02 0 0 Z " fill="#414445" transform="translate(156,45)"/>
<path d="M0 0 C35.31 0 70.62 0 107 0 C103.98304307 3.01695693 100.51748764 2.49563645 96.44921875 2.64453125 C95.02980232 2.70191216 95.02980232 2.70191216 93.58171082 2.76045227 C78.17185862 3.27217314 62.73878297 2.96328162 47.32543945 2.75805664 C42.68324945 2.69656385 38.04103543 2.65007021 33.39864063 2.60722637 C29.79984636 2.57197674 26.20120473 2.52774884 22.60254478 2.48087502 C20.88854135 2.45986895 19.17449707 2.44195503 17.46042824 2.4272213 C15.08512341 2.40572489 12.71030986 2.37184461 10.33520508 2.3347168 C9.28113968 2.32911995 9.28113968 2.32911995 8.20578003 2.32341003 C4.58791778 2.25273775 3.09959768 2.06639845 0 0 Z " fill="#434C4F" transform="translate(190,65)"/>
<path d="M0 0 C46.53 0.495 46.53 0.495 94 1 C91.38129941 3.61870059 89.54103714 3.23608593 85.97618103 3.24884033 C85.13245438 3.24164978 84.28872772 3.23445923 83.41943359 3.22705078 C82.53156662 3.22734283 81.64369965 3.22763489 80.72892761 3.22793579 C77.78533253 3.22653907 74.84198853 3.21096184 71.8984375 3.1953125 C69.86105487 3.19158358 67.82367046 3.18873604 65.7862854 3.18673706 C60.41698275 3.17909104 55.04778784 3.15943425 49.67852783 3.1373291 C44.20236672 3.11689151 38.72618824 3.10773982 33.25 3.09765625 C22.49995259 3.07618926 11.74998525 3.04204166 1 3 C0.67 2.01 0.34 1.02 0 0 Z " fill="#5C5C5C" transform="translate(141,160)"/>
<path d="M0 0 C31.35 0 62.7 0 95 0 C95 0.33 95 0.66 95 1 C84.46041288 3.38401351 74.17732335 3.17240306 63.453125 2.9765625 C61.58698809 2.95034186 59.72083751 2.92507932 57.85467529 2.90072632 C52.98187717 2.83459906 48.10937273 2.75559735 43.23681641 2.67376709 C38.24913666 2.59233101 33.2612865 2.52327364 28.2734375 2.453125 C18.51542093 2.31408931 8.75767001 2.16143028 -1 2 C-0.67 1.34 -0.34 0.68 0 0 Z " fill="#454B4D" transform="translate(142,157)"/>
<path d="M0 0 C0.86603851 0.00444122 1.73207703 0.00888245 2.62435913 0.01345825 C3.60522491 0.01360931 4.5860907 0.01376038 5.59667969 0.01391602 C6.6581723 0.02423859 7.71966492 0.03456116 8.81332397 0.04519653 C10.44048843 0.04944138 10.44048843 0.04944138 12.1005249 0.05377197 C15.57521461 0.06499325 19.04964929 0.09010141 22.52426147 0.11550903 C24.87582026 0.12553631 27.22738307 0.1346626 29.57894897 0.14285278 C35.35247392 0.16493892 41.12584948 0.19843559 46.89926147 0.24050903 C43.21996703 2.693372 41.4254824 2.47279782 37.04379272 2.43582153 C36.38215622 2.43299164 35.72051971 2.43016174 35.03883362 2.42724609 C32.9296241 2.41606822 30.82084223 2.39096884 28.71176147 2.36550903 C27.28012699 2.3554761 25.84848584 2.3463508 24.4168396 2.33816528 C20.91084171 2.31613699 17.40509334 2.28162389 13.89926147 2.24050903 C13.89926147 2.90050903 13.89926147 3.56050903 13.89926147 4.24050903 C30.23426147 4.73550903 30.23426147 4.73550903 46.89926147 5.24050903 C46.89926147 5.57050903 46.89926147 5.90050903 46.89926147 6.24050903 C30.72926147 6.24050903 14.55926147 6.24050903 -2.10073853 6.24050903 C-2.76073853 4.92050903 -3.42073853 3.60050903 -4.10073853 2.24050903 C-2.10073853 0.24050903 -2.10073853 0.24050903 0 0 Z " fill="#565C5F" transform="translate(167.10073852539063,84.75949096679688)"/>
<path d="M0 0 C12.54 0 25.08 0 38 0 C37.67 0.99 37.34 1.98 37 3 C25.45 2.67 13.9 2.34 2 2 C2 2.66 2 3.32 2 4 C14.87 4 27.74 4 41 4 C41 4.33 41 4.66 41 5 C27.8 5 14.6 5 1 5 C0.67 3.35 0.34 1.7 0 0 Z " fill="#3C3C3C" transform="translate(86,203)"/>
<path d="M0 0 C0.99 0.33 1.98 0.66 3 1 C2.67 1.66 2.34 2.32 2 3 C2.66 3.66 3.32 4.32 4 5 C3.10464035 5.0154612 3.10464035 5.0154612 2.19119263 5.03123474 C-4.00530229 5.13917388 -10.20164807 5.25378188 -16.39794922 5.37231445 C-18.71237069 5.41570376 -21.026825 5.45737584 -23.34130859 5.49731445 C-26.66253573 5.55492032 -29.98359692 5.61864251 -33.3046875 5.68359375 C-34.86411575 5.70866249 -34.86411575 5.70866249 -36.45504761 5.73423767 C-37.41589264 5.75418289 -38.37673767 5.77412811 -39.36669922 5.79467773 C-40.21497284 5.81022202 -41.06324646 5.8257663 -41.93722534 5.84178162 C-44.06318305 5.87429958 -44.06318305 5.87429958 -46 7 C-46.66 7.99 -47.32 8.98 -48 10 C-48 8.35 -48 6.7 -48 5 C-47.34 5 -46.68 5 -46 5 C-45.67 4.01 -45.34 3.02 -45 2 C-44.67 2.66 -44.34 3.32 -44 4 C-43.34 3.34 -42.68 2.68 -42 2 C-40.16500854 1.7215271 -40.16500854 1.7215271 -37.91748047 1.68115234 C-37.07675995 1.66128265 -36.23603943 1.64141296 -35.36984253 1.62094116 C-34.46146637 1.60938995 -33.55309021 1.59783875 -32.6171875 1.5859375 C-31.68778351 1.56657135 -30.75837952 1.5472052 -29.80081177 1.5272522 C-26.8256352 1.46736315 -23.85042012 1.4210339 -20.875 1.375 C-18.86066 1.33682879 -16.84633646 1.29777757 -14.83203125 1.2578125 C-9.88815425 1.161654 -4.94420083 1.0776576 0 1 C0 0.67 0 0.34 0 0 Z " fill="#D0DDE2" transform="translate(209,80)"/>
<path d="M0 0 C1.67542976 0.28604898 3.34385343 0.61781233 5 1 C7.63537118 8.90611355 7.17981101 16.76865163 7 25 C6.67 25 6.34 25 6 25 C5.67 22.03 5.34 19.06 5 16 C4.67 16 4.34 16 4 16 C3.67 18.97 3.34 21.94 3 25 C2.67 25 2.34 25 2 25 C1.86722656 23.85402344 1.73445313 22.70804688 1.59765625 21.52734375 C1.41931812 19.99739032 1.24093004 18.46744271 1.0625 16.9375 C0.97548828 16.18533203 0.88847656 15.43316406 0.79882812 14.65820312 C0.38222764 11.09395457 -0.06464269 7.54798861 -0.62890625 4.00390625 C-0.75136719 3.01261719 -0.87382812 2.02132812 -1 1 C-0.67 0.67 -0.34 0.34 0 0 Z " fill="#565A5D" transform="translate(282,81)"/>
<path d="M0 0 C3.62493334 -0.05787784 7.24974857 -0.0935542 10.875 -0.125 C11.90753906 -0.14175781 12.94007813 -0.15851562 14.00390625 -0.17578125 C14.99003906 -0.18222656 15.97617188 -0.18867188 16.9921875 -0.1953125 C18.35899658 -0.21102295 18.35899658 -0.21102295 19.75341797 -0.22705078 C22 0 22 0 24 2 C23.67 3.32 23.34 4.64 23 6 C11.615 5.505 11.615 5.505 0 5 C0 4.67 0 4.34 0 4 C1.98 3.67 3.96 3.34 6 3 C6 2.67 6 2.34 6 2 C3.03 1.505 3.03 1.505 0 1 C0 0.67 0 0.34 0 0 Z " fill="#424242" transform="translate(144,11)"/>
<path d="M0 0 C0.66 0.99 1.32 1.98 2 3 C2.66 2.67 3.32 2.34 4 2 C3.67 7.61 3.34 13.22 3 19 C1.35 19.33 -0.3 19.66 -2 20 C-2.05407567 17.41638482 -2.093707 14.83390745 -2.125 12.25 C-2.14175781 11.52039063 -2.15851563 10.79078125 -2.17578125 10.0390625 C-2.21072239 6.1955376 -2.17499684 3.25393228 0 0 Z " fill="#3C3F3F" transform="translate(82,63)"/>
<path d="M0 0 C0.86560547 0.01353516 1.73121094 0.02707031 2.62304688 0.04101562 C4.72814174 0.0759067 6.83290974 0.12969335 8.9375 0.1875 C8.9375 0.5175 8.9375 0.8475 8.9375 1.1875 C7.88949219 1.28546875 6.84148437 1.3834375 5.76171875 1.484375 C4.38270927 1.63447127 3.00380813 1.78556522 1.625 1.9375 C0.93470703 1.999375 0.24441406 2.06125 -0.46679688 2.125 C-4.68218347 2.59233398 -4.68218347 2.59233398 -7.85546875 5.2109375 C-8.25378906 5.86320312 -8.65210938 6.51546875 -9.0625 7.1875 C-12.0625 8.0625 -12.0625 8.0625 -15.0625 8.1875 C-18.0625 6.1875 -18.0625 6.1875 -19.0625 3.1875 C-12.55597698 0.57013677 -6.98082591 -0.21121196 0 0 Z " fill="#575757" transform="translate(64.0625,53.8125)"/>
<path d="M0 0 C11.22 0 22.44 0 34 0 C34 0.33 34 0.66 34 1 C33.04287109 1.09087891 33.04287109 1.09087891 32.06640625 1.18359375 C31.24011719 1.26738281 30.41382813 1.35117188 29.5625 1.4375 C28.32693359 1.55931641 28.32693359 1.55931641 27.06640625 1.68359375 C25.01337975 1.78930815 25.01337975 1.78930815 24 3 C22.14630389 3.08737645 20.28932459 3.10698153 18.43359375 3.09765625 C17.30888672 3.09443359 16.18417969 3.09121094 15.02539062 3.08789062 C13.84138672 3.07951172 12.65738281 3.07113281 11.4375 3.0625 C10.24962891 3.05798828 9.06175781 3.05347656 7.83789062 3.04882812 C4.89187774 3.03699675 1.94596319 3.02051287 -1 3 C-0.67 2.01 -0.34 1.02 0 0 Z " fill="#494C4E" transform="translate(232,86)"/>
<path d="M0 0 C1.14982602 4.09003859 1.11094256 8.03177051 1.0625 12.25 C1.05798828 12.99507812 1.05347656 13.74015625 1.04882812 14.5078125 C1.03709246 16.3385764 1.0191585 18.16929873 1 20 C0.34 20 -0.32 20 -1 20 C-1.66 20.99 -2.32 21.98 -3 23 C-3.66 23 -4.32 23 -5 23 C-5.05404449 20.24973583 -5.09369306 17.50053797 -5.125 14.75 C-5.14175781 13.97269531 -5.15851562 13.19539063 -5.17578125 12.39453125 C-5.23662606 5.27568856 -5.23662606 5.27568856 -3 2 C-2.67 2.66 -2.34 3.32 -2 4 C-1.34 2.68 -0.68 1.36 0 0 Z " fill="#5E5E5E" transform="translate(15,93)"/>
<path d="M0 0 C0.66 0.66 1.32 1.32 2 2 C2.66 1.34 3.32 0.68 4 0 C5.4807848 2.9615696 5.35314037 5.83506295 5.5625 9.125 C5.64628906 10.40632813 5.73007812 11.68765625 5.81640625 13.0078125 C5.90728516 14.48894531 5.90728516 14.48894531 6 16 C5.67 15.01 5.34 14.02 5 13 C3.35 13.33 1.7 13.66 0 14 C0 9.38 0 4.76 0 0 Z " fill="#5B5D5E" transform="translate(283,95)"/>
<path d="M0 0 C0.33 0.99 0.66 1.98 1 3 C1.99 3 2.98 3 4 3 C3.71572583 4.58467728 3.42225182 6.1677057 3.125 7.75 C2.96257813 8.63171875 2.80015625 9.5134375 2.6328125 10.421875 C2.03203736 12.86947744 1.22002883 14.80599857 0 17 C0 14.69 0 12.38 0 10 C-0.99 10.99 -1.98 11.98 -3 13 C-3.31563182 7.73946963 -2.66590937 4.55426184 0 0 Z " fill="#464646" transform="translate(15,86)"/>
<path d="M0 0 C-1 3 -1 3 -2.8203125 3.94921875 C-7.75517738 5.53004835 -11.81897177 6.33070393 -17 6 C-16.34 5.34 -15.68 4.68 -15 4 C-15 3.01 -15 2.02 -15 1 C-13.948125 1.309375 -13.948125 1.309375 -12.875 1.625 C-8.32604396 2.21834209 -4.63155591 0 0 0 Z " fill="#464748" transform="translate(253,155)"/>
<path d="M0 0 C0.66 0.33 1.32 0.66 2 1 C2 6.28 2 11.56 2 17 C1.67 17 1.34 17 1 17 C0.67 14.03 0.34 11.06 0 8 C-0.33 8 -0.66 8 -1 8 C-1.33 10.97 -1.66 13.94 -2 17 C-2.33 17 -2.66 17 -3 17 C-3.33 11.72 -3.66 6.44 -4 1 C-3.34 1 -2.68 1 -2 1 C-1.67 1.66 -1.34 2.32 -1 3 C-0.67 2.01 -0.34 1.02 0 0 Z " fill="#414243" transform="translate(287,89)"/>
<path d="M0 0 C7.92 0 15.84 0 24 0 C21.47871644 2.52128356 20.48760987 2.29353069 16.9921875 2.4140625 C15.51298828 2.47207031 15.51298828 2.47207031 14.00390625 2.53125 C12.45509766 2.57765625 12.45509766 2.57765625 10.875 2.625 C9.83472656 2.66367188 8.79445313 2.70234375 7.72265625 2.7421875 C5.14861689 2.83664766 2.57458845 2.92221214 0 3 C0 2.01 0 1.02 0 0 Z " fill="#4A4A4A" transform="translate(273,65)"/>
<path d="M0 0 C0.99 0.33 1.98 0.66 3 1 C2.50769231 7.52307692 2.50769231 7.52307692 -0.0625 9.9375 C-0.701875 10.288125 -1.34125 10.63875 -2 11 C-4 10 -4 10 -4.9375 7.75 C-5 5 -5 5 -2.5625 2.1875 C-1.716875 1.465625 -0.87125 0.74375 0 0 Z " fill="#535353" transform="translate(28,67)"/>
<path d="M0 0 C1.32 0.99 2.64 1.98 4 3 C3.42365861 7.75481646 1.44931479 10.97048212 -1 15 C-1.33 14.01 -1.66 13.02 -2 12 C-1.67 11.34 -1.34 10.68 -1 10 C-1 9.01 -1 8.02 -1 7 C-2.485 9.475 -2.485 9.475 -4 12 C-4.33 11.34 -4.66 10.68 -5 10 C-4.00390625 7.6171875 -4.00390625 7.6171875 -2.5625 4.875 C-1.85287109 3.50988281 -1.85287109 3.50988281 -1.12890625 2.1171875 C-0.75636719 1.41851562 -0.38382812 0.71984375 0 0 Z " fill="#424745" transform="translate(281,118)"/>
<path d="M0 0 C1.6875587 0.04235213 3.37498064 0.09037788 5.06225586 0.14282227 C5.94868271 0.16643326 6.83510956 0.19004425 7.74839783 0.21437073 C10.59145347 0.29120415 13.43425007 0.37514322 16.27709961 0.45922852 C18.19961279 0.51242953 20.12213878 0.56517004 22.04467773 0.61743164 C26.76815039 0.74684577 31.49140249 0.8826347 36.21459961 1.02172852 C36.21459961 1.35172852 36.21459961 1.68172852 36.21459961 2.02172852 C34.45817139 2.04360229 34.45817139 2.04360229 32.66625977 2.06591797 C28.33114736 2.12379201 23.99656038 2.20102462 19.66186523 2.28417969 C17.78402214 2.31748054 15.90607771 2.34549628 14.02807617 2.36816406 C11.33199786 2.40161593 8.63685261 2.45392493 5.94116211 2.51000977 C4.67702988 2.51959465 4.67702988 2.51959465 3.38735962 2.52937317 C0.77521274 2.56103696 0.77521274 2.56103696 -2.78540039 3.02172852 C-3.44540039 4.01172852 -4.10540039 5.00172852 -4.78540039 6.02172852 C-4.82812139 4.35560946 -4.82603871 2.68789967 -4.78540039 1.02172852 C-3.78540039 0.02172852 -3.78540039 0.02172852 0 0 Z " fill="#CED7DC" transform="translate(233.785400390625,82.978271484375)"/>
<path d="M0 0 C0 0.33 0 0.66 0 1 C-1.134375 1.12375 -2.26875 1.2475 -3.4375 1.375 C-5.2009375 1.684375 -5.2009375 1.684375 -7 2 C-7.33 2.66 -7.66 3.32 -8 4 C-10.94140625 4.4140625 -10.94140625 4.4140625 -14.5625 4.625 C-15.76003906 4.69976562 -16.95757812 4.77453125 -18.19140625 4.8515625 C-19.58166016 4.92503906 -19.58166016 4.92503906 -21 5 C-20.01 4.67 -19.02 4.34 -18 4 C-17.67 3.01 -17.34 2.02 -17 1 C-11.29014022 0.25983299 -5.75813575 -0.10469338 0 0 Z " fill="#464646" transform="translate(75,55)"/>
<path d="M0 0 C0.99 0 1.98 0 3 0 C4.16968953 2.33937907 4.13364221 3.77369368 4.125 6.375 C4.12757812 7.14585938 4.13015625 7.91671875 4.1328125 8.7109375 C4.00389788 10.9328189 3.61383717 12.86618508 3 15 C2.34 14.67 1.68 14.34 1 14 C0.5859375 10.83984375 0.5859375 10.83984375 0.375 6.9375 C0.30023438 5.64714844 0.22546875 4.35679688 0.1484375 3.02734375 C0.09945312 2.02832031 0.05046875 1.02929688 0 0 Z " fill="#505051" transform="translate(80,67)"/>
<path d="M0 0 C2.4375 1.375 2.4375 1.375 3.25 4 C3.311875 4.78375 3.37375 5.5675 3.4375 6.375 C1.6875 7.125 1.6875 7.125 -0.5625 7.375 C-2.8125 5.4375 -2.8125 5.4375 -4.5625 3.375 C-3.9025 3.045 -3.2425 2.715 -2.5625 2.375 C-3.2225 1.715 -3.8825 1.055 -4.5625 0.375 C-2.5625 -0.625 -2.5625 -0.625 0 0 Z " fill="#48494B" transform="translate(36.5625,147.625)"/>
<path d="M0 0 C2.125 0.375 2.125 0.375 4 1 C3.67 3.31 3.34 5.62 3 8 C1.35 8 -0.3 8 -2 8 C-2.125 5.125 -2.125 5.125 -2 2 C-1.34 1.34 -0.68 0.68 0 0 Z " fill="#505050" transform="translate(17,82)"/>
<path d="M0 0 C1.32 0 2.64 0 4 0 C4 1.32 4 2.64 4 4 C3.01 4 2.02 4 1 4 C0.67 5.65 0.34 7.3 0 9 C-0.66 9 -1.32 9 -2 9 C-2.25 3.375 -2.25 3.375 0 0 Z " fill="#474B49" transform="translate(284,108)"/>
<path d="M0 0 C1.98 0.66 3.96 1.32 6 2 C6 2.99 6 3.98 6 5 C2.98968256 5.93423645 2.13349732 6.04449911 -1 5 C-0.67 3.35 -0.34 1.7 0 0 Z " fill="#555555" transform="translate(117,19)"/>
<path d="M0 0 C0.33 0.99 0.66 1.98 1 3 C-1 5 -1 5 -4 6 C-4 6.66 -4 7.32 -4 8 C-3.34 8.33 -2.68 8.66 -2 9 C-3.32 9.33 -4.64 9.66 -6 10 C-6.33 8.35 -6.66 6.7 -7 5 C-4.69 3.35 -2.38 1.7 0 0 Z " fill="#424647" transform="translate(261,145)"/>
<path d="M0 0 C1.32 0 2.64 0 4 0 C4.33 2.31 4.66 4.62 5 7 C2 7 2 7 0.25 5.75 C-1 4 -1 4 -0.6875 1.8125 C-0.460625 1.214375 -0.23375 0.61625 0 0 Z " fill="#595959" transform="translate(82,61)"/>
<path d="M0 0 C0.99 0.33 1.98 0.66 3 1 C1.66667905 4.99996286 -0.4957827 5.83782337 -4 8 C-4.66 7.67 -5.32 7.34 -6 7 C-4.02 4.69 -2.04 2.38 0 0 Z " fill="#EEEDED" transform="translate(277,137)"/>
<path d="M0 0 C1.125 1.75 1.125 1.75 2 4 C1.05773345 6.66975522 0.01384202 7.98615798 -2 10 C-2.99 9.34 -3.98 8.68 -5 8 C-3.89066788 5.78133575 -2.4862968 3.98172906 -1 2 C-0.67 1.34 -0.34 0.68 0 0 Z " fill="#505554" transform="translate(280,123)"/>
<path d="M0 0 C-5.28 0 -10.56 0 -16 0 C-16 -0.33 -16 -0.66 -16 -1 C-14.0880169 -1.41787052 -12.1700737 -1.80853809 -10.25 -2.1875 C-9.18265625 -2.40792969 -8.1153125 -2.62835938 -7.015625 -2.85546875 C-4 -3 -4 -3 0 0 Z " fill="#5A5A5A" transform="translate(75,60)"/>
<path d="M0 0 C0 1.98 0 3.96 0 6 C-0.99 6.33 -1.98 6.66 -3 7 C-3.33 5.02 -3.66 3.04 -4 1 C-2 0 -2 0 0 0 Z " fill="#4B4D51" transform="translate(287,82)"/>
<path d="M0 0 C2.64 0.33 5.28 0.66 8 1 C5.94766315 3.2477975 4.99332739 4.0022242 2 5 C1.34 4.34 0.68 3.68 0 3 C0 2.01 0 1.02 0 0 Z " fill="#D2DEE3" transform="translate(250,146)"/>
<path d="M0 0 C1.32 0.33 2.64 0.66 4 1 C4.5625 2.9375 4.5625 2.9375 5 5 C4 6 4 6 0.9375 6.0625 C-0.5165625 6.0315625 -0.5165625 6.0315625 -2 6 C1 4 1 4 3 4 C3 3.34 3 2.68 3 2 C2.01 2 1.02 2 0 2 C0 1.34 0 0.68 0 0 Z " fill="#595959" transform="translate(163,11)"/>
<path d="M0 0 C0.99 0.33 1.98 0.66 3 1 C3.99 0.67 4.98 0.34 6 0 C6 0.66 6 1.32 6 2 C4 3.625 4 3.625 2 5 C0.68 4.34 -0.64 3.68 -2 3 C-1.34 2.01 -0.68 1.02 0 0 Z " fill="#515151" transform="translate(98,34)"/>
<path d="M0 0 C0.99 0 1.98 0 3 0 C3.33 1.65 3.66 3.3 4 5 C3.01 5.66 2.02 6.32 1 7 C0 6 0 6 -0.0625 2.9375 C-0.041875 1.968125 -0.02125 0.99875 0 0 Z " fill="#5A5B5B" transform="translate(80,67)"/>
<path d="M0 0 C2.475 0.99 2.475 0.99 5 2 C3.515 4.475 3.515 4.475 2 7 C1.34 6.67 0.68 6.34 0 6 C0 4.02 0 2.04 0 0 Z " fill="#545454" transform="translate(111,23)"/>
<path d="M0 0 C-2.61941217 1.74627478 -4.03824877 2.38722388 -7 3 C-7 2.34 -7 1.68 -7 1 C-8.32 0.67 -9.64 0.34 -11 0 C-7.01803543 -1.05404945 -4.01804691 -0.84098656 0 0 Z " fill="#575D61" transform="translate(249,155)"/>
<path d="M0 0 C0.99 0 1.98 0 3 0 C3.66 2.31 4.32 4.62 5 7 C3.0625 6.3125 3.0625 6.3125 1 5 C0.25 2.375 0.25 2.375 0 0 Z " fill="#E9F3F2" transform="translate(29,138)"/>
<path d="M0 0 C0.99 0 1.98 0 3 0 C3 3.63 3 7.26 3 11 C2.67 11 2.34 11 2 11 C1.855625 9.9275 1.71125 8.855 1.5625 7.75 C1.16250558 5.08337051 0.72408076 2.58600271 0 0 Z " fill="#B6C1C3" transform="translate(77,71)"/>
<path d="M0 0 C0.33 0.66 0.66 1.32 1 2 C1.99 2.33 2.98 2.66 4 3 C3.34 4.32 2.68 5.64 2 7 C1.34 6.67 0.68 6.34 0 6 C0.33 5.34 0.66 4.68 1 4 C0.01 3.34 -0.98 2.68 -2 2 C-1.34 1.34 -0.68 0.68 0 0 Z " fill="#424141" transform="translate(269,138)"/>
<path d="M0 0 C0.99 0 1.98 0 3 0 C3.33 1.32 3.66 2.64 4 4 C2.02 4 0.04 4 -2 4 C-2 3.34 -2 2.68 -2 2 C-1.34 2 -0.68 2 0 2 C0 1.34 0 0.68 0 0 Z " fill="#53595C" transform="translate(269,85)"/>
</svg>
