<?xml version="1.0" encoding="UTF-8"?>
<svg version="1.1" xmlns="http://www.w3.org/2000/svg" width="480" height="272">
<path d="M0 0 C7.03882582 4.27753513 14.35847297 10.50273847 18 18 C18 18.66 18 19.32 18 20 C19.13695312 19.33613281 20.27390625 18.67226563 21.4453125 17.98828125 C37.78340808 8.58823235 53.12991958 2.57353494 72.25 2.6875 C73.75433594 2.69595947 73.75433594 2.69595947 75.2890625 2.70458984 C94.8301683 3.02169326 114.30663344 8.99456147 128.875 22.5 C131.2480425 24.66803949 131.2480425 24.66803949 134.375 25.125 C137.51403847 23.7796978 140.63834173 22.41262509 143.71875 20.9375 C151.87636356 17.58505607 161.36824397 18.16350627 169.58984375 20.96484375 C178.30499008 24.70797791 185.5255714 30.6564871 189.54296875 39.33203125 C193 48.11502101 193 48.11502101 193 51 C193.886875 50.9175 194.77375 50.835 195.6875 50.75 C209.14731236 50.80449317 221.21355482 58.65079276 230.6796875 67.5234375 C242.00481596 79.61120088 247.54786748 95.81505646 247.40625 112.171875 C246.87283993 117.19823912 245.38317209 121.62464941 243.71313477 126.37133789 C242.12101825 131.04907597 241.84791436 134.27672422 242.7734375 139.05859375 C243.3078493 143.63795006 241.11963301 147.34599668 238.625 151.03125 C229.86877077 161.97653654 216.30039617 167.67668521 202.625 169.43359375 C201.614375 169.53800781 200.60375 169.64242187 199.5625 169.75 C193.68916661 170.59468639 191.25592586 173.16121682 187.3984375 177.4921875 C172.89573809 192.6562478 150.65584167 200.15753666 130.06591797 201.02709961 C112.48895335 201.35901273 93.04918038 196.09123696 78.6875 185.6875 C75.41198057 183.6307785 72.75576397 183.26641232 69 183 C67.88367188 182.87496094 66.76734375 182.74992188 65.6171875 182.62109375 C64.38226563 182.49863281 63.14734375 182.37617188 61.875 182.25 C60.69679688 182.13140625 59.51859375 182.0128125 58.3046875 181.890625 C54.4884051 182.01693222 53.20576746 183.0414468 50 185 C46.99117885 185.75238988 43.94632488 186.14871047 40.875 186.5625 C39.60184937 186.75453003 39.60184937 186.75453003 38.30297852 186.95043945 C34.75855118 187.48482795 31.22536941 187.9762769 27.66015625 188.3515625 C21.02671728 189.1700356 17.59065363 191.55229795 12.58203125 195.90625 C-1.98808019 207.72104536 -20.05100426 209.19428309 -38 208 C-39.91232422 207.64421875 -39.91232422 207.64421875 -41.86328125 207.28125 C-44.99931547 206.71599588 -44.99931547 206.71599588 -47.484375 208.29296875 C-48.23203125 208.91816406 -48.9796875 209.54335937 -49.75 210.1875 C-60.36973689 218.24053311 -73.89820977 221.02942983 -87.0546875 219.53515625 C-101.47246721 216.91548009 -111.56499118 208.82009234 -120.37109375 197.484375 C-122.5283611 194.1941543 -123.74410859 190.81708561 -124.8828125 187.06640625 C-125.88582109 184.80503691 -125.88582109 184.80503691 -128.328125 183.54296875 C-130.99786455 182.7274613 -130.99786455 182.7274613 -133.2890625 184.046875 C-134.05992187 184.60890625 -134.83078125 185.1709375 -135.625 185.75 C-141.99600932 189.88357152 -148.71995292 191.96581939 -156.3125 190.375 C-162.92728214 187.90847107 -167.79117812 184.41764377 -171 178 C-171.61746094 178.19335938 -172.23492187 178.38671875 -172.87109375 178.5859375 C-177.09718192 179.88528272 -181.32745872 181.14498999 -185.625 182.1875 C-186.27726562 182.34605469 -186.92953125 182.50460938 -187.6015625 182.66796875 C-197.58252502 184.04969809 -210.24792487 182.20525342 -218.5625 176.25 C-220.32421875 174.703125 -220.32421875 174.703125 -222 173 C-222.96873047 172.03320312 -222.96873047 172.03320312 -223.95703125 171.046875 C-229.57704882 165.04913731 -231.51877048 159.87396286 -231.30859375 151.65234375 C-230.46832445 144.43028229 -227.49319149 138.46452706 -222.10546875 133.59375 C-214.75569626 128.03028586 -206.94673913 124.97278194 -198 123 C-198.04640625 121.98421875 -198.0928125 120.9684375 -198.140625 119.921875 C-198.53330855 107.68000271 -197.06331574 97.62675766 -188.8515625 87.96484375 C-180.37320896 78.96777237 -171.20208629 74.41818423 -158.765625 73.44921875 C-157.68571289 73.36373779 -156.60580078 73.27825684 -155.49316406 73.19018555 C-154.25904785 73.0960437 -154.25904785 73.0960437 -153 73 C-152.71390869 72.33581055 -152.42781738 71.67162109 -152.13305664 70.98730469 C-143.35493008 50.77781068 -133.98150192 31.90235043 -113 22 C-93.69258329 14.44224693 -75.46842977 13.42384219 -56 21 C-54.00319943 21.67618928 -52.00423617 22.34617906 -50 23 C-49.75507813 22.1234375 -49.51015625 21.246875 -49.2578125 20.34375 C-45.73592899 10.98122737 -37.32722061 2.99908376 -28.37109375 -1.24609375 C-17.99424775 -5.41703741 -10.08396709 -4.82536499 0 0 Z " fill="#C8C8C7" transform="translate(232,9)"/>
<path d="M0 0 C1.13598633 0.00483398 1.13598633 0.00483398 2.29492188 0.00976562 C3.47344727 0.02233398 3.47344727 0.02233398 4.67578125 0.03515625 C5.47306641 0.03966797 6.27035156 0.04417969 7.09179688 0.04882812 C9.05732382 0.06059775 11.0228121 0.07853277 12.98828125 0.09765625 C11.7497486 3.88869783 10.86598719 5.59603378 7.30078125 7.41015625 C0.80408958 11.15461309 -5.44738289 17.74034165 -7.58203125 25.05078125 C-8.6761121 30.74000169 -7.52855776 34.75776586 -4.7578125 39.7890625 C-1.87293896 43.60329128 1.81629731 45.861691 5.98828125 48.09765625 C4.50748087 52.14808081 2.41228153 53.19676604 -1.38671875 55.03515625 C-7.21256117 57.97716601 -7.21256117 57.97716601 -11.01171875 63.09765625 C-11.52069402 67.38538732 -11.61692861 72.03741956 -10.01171875 76.09765625 C-7.14746488 78.07961763 -4.4352708 78.44083947 -1.01171875 78.72265625 C-0.16609375 78.79742187 0.67953125 78.8721875 1.55078125 78.94921875 C3.69321603 79.07968753 5.84187754 79.09765625 7.98828125 79.09765625 C7.98828125 80.08765625 7.98828125 81.07765625 7.98828125 82.09765625 C8.64828125 82.09765625 9.30828125 82.09765625 9.98828125 82.09765625 C9.98828125 82.75765625 9.98828125 83.41765625 9.98828125 84.09765625 C10.54515625 84.36578125 11.10203125 84.63390625 11.67578125 84.91015625 C13.98828125 86.09765625 13.98828125 86.09765625 16.2734375 87.63671875 C21.01820958 90.19002056 25.75301671 89.91025456 30.98828125 89.09765625 C37.43059665 86.33666394 41.75053072 81.53066975 45.98828125 76.09765625 C47.21824074 77.01325885 48.44720511 77.93019828 49.67578125 78.84765625 C50.40925781 79.39421875 51.14273438 79.94078125 51.8984375 80.50390625 C53.51078209 81.73350736 55.07373539 83.02804551 56.61328125 84.34765625 C59.29978781 86.3271874 61.79006916 87.20513195 64.98828125 88.09765625 C64.98828125 88.75765625 64.98828125 89.41765625 64.98828125 90.09765625 C66.30828125 90.09765625 67.62828125 90.09765625 68.98828125 90.09765625 C68.98828125 90.75765625 68.98828125 91.41765625 68.98828125 92.09765625 C72.31941308 92.77573249 75.65331813 93.4387118 78.98828125 94.09765625 C79.99890625 94.30390625 81.00953125 94.51015625 82.05078125 94.72265625 C92.88097228 96.10523383 103.66190286 94.19316487 112.5859375 87.609375 C118.016023 83.47687925 118.016023 83.47687925 121.98828125 78.09765625 C122.5915625 78.30261719 123.19484375 78.50757813 123.81640625 78.71875 C124.615625 78.98816406 125.41484375 79.25757813 126.23828125 79.53515625 C127.0271875 79.80199219 127.81609375 80.06882812 128.62890625 80.34375 C139.6862921 83.87698753 152.53848392 83.26280385 162.98828125 78.09765625 C170.17196084 72.96118702 175.6133236 66.73998733 179.98828125 59.09765625 C180.66890625 59.81953125 181.34953125 60.54140625 182.05078125 61.28515625 C189.34208486 68.43389247 194.77639713 70.09765625 204.98828125 70.09765625 C204.98828125 69.43765625 204.98828125 68.77765625 204.98828125 68.09765625 C206.13296875 67.23140625 206.13296875 67.23140625 207.30078125 66.34765625 C211.23699303 63.05222313 213.02612706 59.10085805 213.98828125 54.09765625 C214.64828125 54.09765625 215.30828125 54.09765625 215.98828125 54.09765625 C217.36328125 55.49609375 217.36328125 55.49609375 218.98828125 57.47265625 C226.48283909 66.23958209 234.53028806 74.86865966 244.98828125 80.09765625 C244.98828125 80.75765625 244.98828125 81.41765625 244.98828125 82.09765625 C245.68050781 82.35804688 246.37273437 82.6184375 247.0859375 82.88671875 C250.31413215 84.23361019 253.33461499 85.83594625 256.42578125 87.47265625 C277.78533569 98.44161511 301.3366096 98.05788705 323.92480469 91.14599609 C334.4053329 87.71993188 344.79161072 83.22876993 353.98828125 77.09765625 C356.1862793 76.94995117 356.1862793 76.94995117 358.75 77.078125 C359.69673584 77.11083496 360.64347168 77.14354492 361.61889648 77.17724609 C362.62766846 77.21285645 363.63644043 77.2484668 364.67578125 77.28515625 C378.06009651 77.51309006 390.92826145 75.81169654 400.98828125 66.09765625 C401.77203125 65.31390625 402.55578125 64.53015625 403.36328125 63.72265625 C403.89953125 63.18640625 404.43578125 62.65015625 404.98828125 62.09765625 C405.64828125 62.09765625 406.30828125 62.09765625 406.98828125 62.09765625 C408.19060462 65.87161573 407.64377765 68.27036803 406.11328125 71.953125 C400.53616048 82.58451146 390.13370551 88.40938866 379.05078125 91.91015625 C374.20827671 93.39291654 369.60220069 94.32576215 364.55078125 94.84765625 C358.67744786 95.69234264 356.24420711 98.25887307 352.38671875 102.58984375 C337.88401934 117.75390405 315.64412292 125.25519291 295.05419922 126.12475586 C277.4772346 126.45666898 258.03746163 121.18889321 243.67578125 110.78515625 C240.40026182 108.72843475 237.74404522 108.36406857 233.98828125 108.09765625 C232.87195313 107.97261719 231.755625 107.84757812 230.60546875 107.71875 C229.37054688 107.59628906 228.135625 107.47382813 226.86328125 107.34765625 C225.68507813 107.2290625 224.506875 107.11046875 223.29296875 106.98828125 C219.47668635 107.11458847 218.19404871 108.13910305 214.98828125 110.09765625 C211.9794601 110.85004613 208.93460613 111.24636672 205.86328125 111.66015625 C204.59013062 111.85218628 204.59013062 111.85218628 203.29125977 112.0480957 C199.74683243 112.5824842 196.21365066 113.07393315 192.6484375 113.44921875 C186.01499853 114.26769185 182.57893488 116.6499542 177.5703125 121.00390625 C163.00020106 132.81870161 144.93727699 134.29193934 126.98828125 133.09765625 C125.07595703 132.741875 125.07595703 132.741875 123.125 132.37890625 C119.98896578 131.81365213 119.98896578 131.81365213 117.50390625 133.390625 C116.75625 134.01582031 116.00859375 134.64101562 115.23828125 135.28515625 C104.61854436 143.33818936 91.09007148 146.12708608 77.93359375 144.6328125 C63.51581404 142.01313634 53.42329007 133.91774859 44.6171875 122.58203125 C42.45992015 119.29181055 41.24417266 115.91474186 40.10546875 112.1640625 C39.10246016 109.90269316 39.10246016 109.90269316 36.66015625 108.640625 C33.9904167 107.82511755 33.9904167 107.82511755 31.69921875 109.14453125 C30.92835937 109.7065625 30.1575 110.26859375 29.36328125 110.84765625 C22.99227193 114.98122777 16.26832833 117.06347564 8.67578125 115.47265625 C2.06099911 113.00612732 -2.80289687 109.51530002 -6.01171875 103.09765625 C-6.62917969 103.29101562 -7.24664062 103.484375 -7.8828125 103.68359375 C-12.10890067 104.98293897 -16.33917747 106.24264624 -20.63671875 107.28515625 C-21.28898437 107.44371094 -21.94125 107.60226563 -22.61328125 107.765625 C-32.59424377 109.14735434 -45.25964362 107.30290967 -53.57421875 101.34765625 C-55.3359375 99.80078125 -55.3359375 99.80078125 -57.01171875 98.09765625 C-57.98044922 97.13085938 -57.98044922 97.13085938 -58.96875 96.14453125 C-64.58876757 90.14679356 -66.53048923 84.97161911 -66.3203125 76.75 C-65.4800432 69.52793854 -62.50491024 63.56218331 -57.1171875 58.69140625 C-49.76741501 53.12794211 -41.95845788 50.07043819 -33.01171875 48.09765625 C-33.058125 47.081875 -33.10453125 46.06609375 -33.15234375 45.01953125 C-33.5450273 32.77765896 -32.07503449 22.72441391 -23.86328125 13.0625 C-17.57066131 6.38488855 -9.62835515 -0.07239365 0 0 Z " fill="#BFBEBC" transform="translate(67.01171875,83.90234375)"/>
<path d="M0 0 C0.99 0 1.98 0 3 0 C6.81011282 3.98144551 10.41948106 8.72419236 10.75 14.375 C10 18 10 18 7.75 20.4375 C3.36619718 22.92829706 3.36619718 22.92829706 1 23 C-2.89935989 21.44025604 -4.64485515 20.53271727 -7 17 C-7.58854337 12.00084335 -6.40935161 9.28385401 -3.6875 5.125 C-3.07261719 4.15820312 -2.45773438 3.19140625 -1.82421875 2.1953125 C-1.22222656 1.47085938 -0.62023437 0.74640625 0 0 Z " fill="#7FC3E4" transform="translate(212,227)"/>
<path d="M0 0 C9.82110912 9.27549195 9.82110912 9.27549195 10 15 C8.44025604 18.89935989 7.53271727 20.64485515 4 23 C0.29514168 23.48324239 -1.52592056 23.26337747 -4.8125 21.4375 C-7 19 -7 19 -8.25 15.9375 C-7.86835804 9.92663916 -4.2782063 4.2782063 0 0 Z " fill="#81C5E6" transform="translate(140,238)"/>
<path d="M0 0 C4.63519694 1.54506565 6.1114851 5.08555714 8.59765625 9.1328125 C9.89084784 11.77683095 10.47741646 13.12550917 10.1875 16 C8.84304991 19.39650548 8.34491204 20.54196142 5 22 C0.90723147 22.67232337 -1.9713397 22.71214944 -5.4375 20.3125 C-7.22849814 17.66182276 -7.92366259 16.20617138 -8 13 C-6.10081428 8.14652539 -3.08006925 4.16225574 0 0 Z " fill="#7AC2E6" transform="translate(310,209)"/>
<path d="M0 0 C0.99 0 1.98 0 3 0 C7.16510052 4.56917744 10.12081393 9.71767561 10 16 C8.65437601 18.94755732 7.91445456 20.54277272 5 22 C1.48944334 22.26004123 -1.13276702 22.38797265 -4.375 20.9375 C-6.91498519 17.90905612 -7.0636219 15.9445575 -7 12 C-5.17536078 7.67546138 -2.59505985 3.89258978 0 0 Z " fill="#7BC3E7" transform="translate(385,235)"/>
<path d="M0 0 C4.00611358 3.67227078 6.73006484 7.02360369 9 12 C9.0783887 15.99782348 8.50081036 17.42554106 5.875 20.4375 C2.08311561 22.49830673 0.10581917 22.14050533 -4 21 C-6.28677547 19.47548302 -6.86026671 18.32604435 -7.9375 15.8125 C-8.07389813 9.67458407 -3.89455552 4.4509206 0 0 Z " fill="#84C6E5" transform="translate(87,212)"/>
<path d="M0 0 C2.86898796 0.337528 3.83154083 0.80239172 5.73828125 3.0390625 C9.96783711 9.9868689 9.96783711 9.9868689 10.125 14.9375 C9 18 9 18 7.5 20 C3.69847 21.520612 -0.09991646 21.18960077 -4 20 C-6.08119283 16.87821075 -6.52404718 14.99217267 -6.46875 11.2734375 C-5.56347919 6.88287408 -2.70746812 3.48103045 0 0 Z " fill="#7AC2E6" transform="translate(428,190)"/>
<path d="M0 0 C2.86898796 0.337528 3.83154083 0.80239172 5.73828125 3.0390625 C9.96783711 9.9868689 9.96783711 9.9868689 10.125 14.9375 C9 18 9 18 7.375 19.9375 C4.02317947 21.43699866 1.63019782 21.45377473 -2 21 C-4.4375 19.4375 -4.4375 19.4375 -6 17 C-7.24118147 10.79409267 -4.55847671 6.98318951 -1.3125 1.94140625 C-0.6628125 0.98041016 -0.6628125 0.98041016 0 0 Z " fill="#7EC4E5" transform="translate(38,198)"/>
<path d="M0 0 C4.80343803 1.60114601 6.68869419 5.65907878 9 10 C9.6875 13.25 9.6875 13.25 9 16 C6.54405875 19.32274404 5.0743356 20.77618008 1 21.625 C-3.0743356 20.77618008 -4.54405875 19.32274404 -7 16 C-7.86540878 12.53836488 -7.41740639 10.74219302 -5.6796875 7.65234375 C-1.91618664 1.91618664 -1.91618664 1.91618664 0 0 Z " fill="#79C2E5" transform="translate(264,240)"/>
<path d="M0 0 C2.86898796 0.337528 3.83154083 0.80239172 5.73828125 3.0390625 C9.96783711 9.9868689 9.96783711 9.9868689 10.125 14.9375 C9 18 9 18 7.5 20 C3.69847 21.520612 -0.09991646 21.18960077 -4 20 C-6.08119283 16.87821075 -6.52404718 14.99217267 -6.46875 11.2734375 C-5.56347919 6.88287408 -2.70746812 3.48103045 0 0 Z M1 4 C0.01 4.66 -0.98 5.32 -2 6 C-2 6.99 -2 7.98 -2 9 C-2.99 9 -3.98 9 -5 9 C-5.29562367 14.32170494 -5.29562367 14.32170494 -3 19 C1.65145592 19.38024775 1.65145592 19.38024775 6 18 C7.15681364 12.85898644 7.15681364 12.85898644 6 8 C5.34 7.67 4.68 7.34 4 7 C2 6 2 6 1 4 Z " fill="#AAD5E7" transform="translate(428,190)"/>
<path d="M0 0 C0.33 0 0.66 0 1 0 C1.33 1.65 1.66 3.3 2 5 C2.61875 4.505 3.2375 4.01 3.875 3.5 C6 2 6 2 8 2 C8 4.31 8 6.62 8 9 C9.65 9.33 11.3 9.66 13 10 C13 8.35 13 6.7 13 5 C13.33 5 13.66 5 14 5 C14.33 3.35 14.66 1.7 15 0 C15.66 0.66 16.32 1.32 17 2 C16.86895515 5.60373332 16.74035058 8.08196528 14.4375 10.9375 C10.91427879 12.47326309 7.77945353 12.69846164 4 12 C1.14555045 10.02384262 0.23202859 8.73178248 -0.8125 5.4375 C-1 3 -1 3 0 0 Z " fill="#A3D1E5" transform="translate(303,219)"/>
<path d="M0 0 C0.33 1.32 0.66 2.64 1 4 C1.66 4 2.32 4 3 4 C2.67 5.32 2.34 6.64 2 8 C1.34 8 0.68 8 0 8 C0 8.66 0 9.32 0 10 C0.763125 9.505 1.52625 9.01 2.3125 8.5 C5 7 5 7 8 7 C7.67 8.65 7.34 10.3 7 12 C3.75 12.75 3.75 12.75 0 13 C-2.5 11.4375 -2.5 11.4375 -4 9 C-3.93088668 5.61344731 -3.62064369 3.74477242 -1.4375 1.125 C-0.963125 0.75375 -0.48875 0.3825 0 0 Z " fill="#79C3E7" transform="translate(211,234)"/>
<path d="M0 0 C0.82638376 2.89234315 1 4.88742431 1 8 C5.455 8.99 5.455 8.99 10 10 C9.67 8.68 9.34 7.36 9 6 C9.99 5.34 10.98 4.68 12 4 C12.66 3.01 13.32 2.02 14 1 C14.8125 4.1875 14.8125 4.1875 15 8 C13 10.9375 13 10.9375 10 13 C6.00951279 13.63007693 3.98314143 13.63021887 0.5625 11.4375 C-1.54724594 8.14629634 -1.35519903 5.83614957 -1 2 C-0.67 1.34 -0.34 0.68 0 0 Z " fill="#81C6E6" transform="translate(33,206)"/>
<path d="M0 0 C0.33 0.99 0.66 1.98 1 3 C0.67 3.598125 0.34 4.19625 0 4.8125 C-1.37075926 7.81103588 -0.71524148 9.85293749 0 13 C4.71599818 13.92470553 7.67265609 14.22923777 12 12 C11.67 9.36 11.34 6.72 11 4 C11.66 4.33 12.32 4.66 13 5 C13.43344482 10.20133779 13.43344482 10.20133779 13 13 C10.80792866 15.37474395 8.93909871 16.5455974 6.0625 17.9375 C2.80716826 18.03614642 0.7327649 16.66342211 -2 15 C-4.35620437 11.46569344 -4.48991613 10.16428713 -4 6 C-2 2.625 -2 2.625 0 0 Z " fill="#A8D3E5" transform="translate(209,232)"/>
<path d="M0 0 C1 3 1 3 1 5 C0.01 5 -0.98 5 -2 5 C-1.34 8.3 -0.68 11.6 0 15 C2.64 15 5.28 15 8 15 C8 14.34 8 13.68 8 13 C8.66 13 9.32 13 10 13 C10 10.36 10 7.72 10 5 C10.99 5.66 11.98 6.32 13 7 C12.51834131 13.38197767 12.51834131 13.38197767 10.375 15.9375 C7.05609564 17.422273 4.59655194 17.38534485 1 17 C-1.375 15.9375 -1.375 15.9375 -3 14 C-4.02948328 10.65417934 -4.53922585 8.29163402 -3.16015625 4.98828125 C-2.18545061 3.2782105 -1.09951982 1.63262035 0 0 Z " fill="#A5D1E4" transform="translate(382,240)"/>
<path d="M0 0 C2.0625 0.4375 2.0625 0.4375 4 1 C4.33 3.31 4.66 5.62 5 8 C5.99 8 6.98 8 8 8 C8 8.99 8 9.98 8 11 C1.375 11.25 1.375 11.25 -2 9 C-1.125 1.125 -1.125 1.125 0 0 Z " fill="#78C2E9" transform="translate(35,205)"/>
<path d="M0 0 C4.78677923 1.59559308 6.71949341 5.65480763 9 10 C9.5 13.4375 9.5 13.4375 9 16 C8.34 16.66 7.68 17.32 7 18 C6.67 16.02 6.34 14.04 6 12 C5.34 12 4.68 12 4 12 C3.34 9.69 2.68 7.38 2 5 C0.68 4.67 -0.64 4.34 -2 4 C-1.34 2.68 -0.68 1.36 0 0 Z " fill="#9BCEE8" transform="translate(264,240)"/>
<path d="M0 0 C3.81818182 3.81818182 3.81818182 3.81818182 4 7 C2.44025604 10.89935989 1.53271727 12.64485515 -2 15 C-5.1875 15.125 -5.1875 15.125 -8 15 C-7.01 14.67 -6.02 14.34 -5 14 C-5 13.34 -5 12.68 -5 12 C-4.01 12 -3.02 12 -2 12 C-1.34 8.04 -0.68 4.08 0 0 Z " fill="#A1D0E4" transform="translate(146,246)"/>
<path d="M0 0 C2.5 2.3125 2.5 2.3125 5 5 C5 5.99 5 6.98 5 8 C0.25 9 0.25 9 -2 9 C-3.33783393 9.31478446 -4.67203709 9.64587656 -6 10 C-4.34832443 6.4213696 -2.21713508 3.25179812 0 0 Z " fill="#98CDE6" transform="translate(140,238)"/>
<path d="M0 0 C0.33 0 0.66 0 1 0 C1.103125 1.11375 1.20625 2.2275 1.3125 3.375 C1.539375 4.57125 1.76625 5.7675 2 7 C2.99 7.66 3.98 8.32 5 9 C5 9.66 5 10.32 5 11 C6.65 11 8.3 11 10 11 C10.33 10.01 10.66 9.02 11 8 C11 8.66 11 9.32 11 10 C11.66 10.33 12.32 10.66 13 11 C9.48175489 13.34549674 8.14224306 13.57991403 4 13 C1.125 10.875 1.125 10.875 -1 8 C-1.37688506 4.79647701 -1.44430855 2.88861709 0 0 Z " fill="#A1CFE3" transform="translate(258,248)"/>
<path d="M0 0 C1.875 0.3125 1.875 0.3125 4 1 C6 4 6 4 6 8 C4.35 7.67 2.7 7.34 1 7 C1 6.34 1 5.68 1 5 C0.01 5.495 0.01 5.495 -1 6 C-1.33 6.99 -1.66 7.98 -2 9 C-2.99 9 -3.98 9 -5 9 C-3.50163895 5.88801935 -1.80066242 2.9465385 0 0 Z " fill="#9BCEE4" transform="translate(428,190)"/>
<path d="M0 0 C0.33 0 0.66 0 1 0 C1.33 1.65 1.66 3.3 2 5 C2.61875 4.505 3.2375 4.01 3.875 3.5 C6 2 6 2 8 2 C7.67 4.31 7.34 6.62 7 9 C5.68 8.67 4.36 8.34 3 8 C3.33 8.99 3.66 9.98 4 11 C3.01 10.67 2.02 10.34 1 10 C-1.28070175 3.84210526 -1.28070175 3.84210526 0 0 Z " fill="#93CDE8" transform="translate(303,219)"/>
<path d="M0 0 C1.875 0.1875 1.875 0.1875 4 1 C5.25 3.5625 5.25 3.5625 6 6 C2.66666667 6.66666667 -0.66666667 7.33333333 -4 8 C-2.66666667 5.33333333 -1.33333333 2.66666667 0 0 Z " fill="#8CC9E7" transform="translate(38,198)"/>
<path d="M0 0 C3.34998521 1.11666174 3.79340222 1.74694925 5.6875 4.5625 C6.34298828 5.52349609 6.34298828 5.52349609 7.01171875 6.50390625 C7.33785156 6.99761719 7.66398437 7.49132812 8 8 C7.67 8.66 7.34 9.32 7 10 C6.01 10.33 5.02 10.66 4 11 C3.67 9.02 3.34 7.04 3 5 C1.02 5.33 -0.96 5.66 -3 6 C-1.125 1.125 -1.125 1.125 0 0 Z " fill="#A0D1E8" transform="translate(310,209)"/>
<path d="M0 0 C0.99 0 1.98 0 3 0 C5.1875 3 5.1875 3 7 6 C6 8 6 8 4 9 C4 8.01 4 7.02 4 6 C1.03 5.505 1.03 5.505 -2 5 C-1.34 3.35 -0.68 1.7 0 0 Z " fill="#A8D2E7" transform="translate(385,235)"/>
<path d="M0 0 C0.66 0.66 1.32 1.32 2 2 C1.649375 2.5775 1.29875 3.155 0.9375 3.75 C-0.14917407 6.35801776 0.06934867 7.39417629 1 10 C-0.65 10 -2.3 10 -4 10 C-4.25 7.25 -4.25 7.25 -4 4 C-2 1.625 -2 1.625 0 0 Z " fill="#78C3E8" transform="translate(85,220)"/>
<path d="M0 0 C0.82638376 2.89234315 1 4.88742431 1 8 C4.18762365 10.12508244 6.26512223 10.5020163 10 11 C10 11.66 10 12.32 10 13 C3.75 13.48076923 3.75 13.48076923 0.5625 11.4375 C-1.54724594 8.14629634 -1.35519903 5.83614957 -1 2 C-0.67 1.34 -0.34 0.68 0 0 Z " fill="#A5D2E4" transform="translate(33,206)"/>
<path d="M0 0 C3.27542151 2.77151051 4.84441111 4.43599028 6 8.625 C6 12 6 12 4.5625 13.9375 C4.046875 14.288125 3.53125 14.63875 3 15 C3 13.35 3 11.7 3 10 C2.67 10 2.34 10 2 10 C0.68373308 6.38026598 0 3.90432869 0 0 Z " fill="#A4D3E8" transform="translate(90,216)"/>
<path d="M0 0 C1 3 1 3 1 5 C0.01 5 -0.98 5 -2 5 C-1.649375 6.0725 -1.29875 7.145 -0.9375 8.25 C0.23076923 12.92307692 0.23076923 12.92307692 -1 16 C-3.35224911 12.89503117 -4.01383284 11.39423606 -3.875 7.4375 C-3.04161413 4.16348409 -2.25661417 2.45284149 0 0 Z " fill="#B7DAE9" transform="translate(382,240)"/>
<path d="M0 0 C2.125 0.9375 2.125 0.9375 4 2 C3.67 3.32 3.34 4.64 3 6 C1.68 6 0.36 6 -1 6 C-1 5.34 -1 4.68 -1 4 C-1.99 4.33 -2.98 4.66 -4 5 C-2.25 1.125 -2.25 1.125 0 0 Z " fill="#89C7E6" transform="translate(308,214)"/>
<path d="M0 0 C0.66 0 1.32 0 2 0 C0.64978174 4.41889613 -1.26115668 6.34345343 -5 9 C-5.66 8.67 -6.32 8.34 -7 8 C-5.88200014 6.66079162 -4.75538103 5.32877444 -3.625 4 C-2.68527344 2.88625 -2.68527344 2.88625 -1.7265625 1.75 C-1.15679687 1.1725 -0.58703125 0.595 0 0 Z " fill="#D7D6D5" transform="translate(194,14)"/>
<path d="M0 0 C0.99 0 1.98 0 3 0 C4.6875 2 4.6875 2 6 4 C5.67 4.66 5.34 5.32 5 6 C4.67 5.67 4.34 5.34 4 5 C2.00041636 4.95919217 -0.00045254 4.95745644 -2 5 C-1.34 3.35 -0.68 1.7 0 0 Z " fill="#B0DAEA" transform="translate(212,227)"/>
<path d="M0 0 C0.66 0 1.32 0 2 0 C1.11223998 3.69900008 0.05418136 7.34550461 -1 11 C-1.66 10.01 -2.32 9.02 -3 8 C-1.55555556 1.55555556 -1.55555556 1.55555556 0 0 Z " fill="#A5D2E7" transform="translate(82,219)"/>
<path d="M0 0 C0.66 0.66 1.32 1.32 2 2 C1.75 5.5625 1.75 5.5625 1 9 C0.01 9.495 0.01 9.495 -1 10 C-0.67 6.7 -0.34 3.4 0 0 Z " fill="#AAD4E9" transform="translate(46,207)"/>
<path d="M0 0 C1.875 0.1875 1.875 0.1875 4 1 C5.25 3.5625 5.25 3.5625 6 6 C5.01 5.67 4.02 5.34 3 5 C3 4.34 3 3.68 3 3 C1.68 3.33 0.36 3.66 -1 4 C-0.67 2.68 -0.34 1.36 0 0 Z " fill="#AED7E9" transform="translate(38,198)"/>
<path d="M0 0 C1.61949011 2.57213134 2.04408751 3.67669159 1.625 6.75 C1.41875 7.4925 1.2125 8.235 1 9 C0.34 9 -0.32 9 -1 9 C-0.67 7.35 -0.34 5.7 0 4 C-0.66 4 -1.32 4 -2 4 C-1.34 2.68 -0.68 1.36 0 0 Z " fill="#92CBE9" transform="translate(261,244)"/>
<path d="M0 0 C0.99 0.66 1.98 1.32 3 2 C2.67 2.99 2.34 3.98 2 5 C0.68 4.67 -0.64 4.34 -2 4 C-1.34 2.68 -0.68 1.36 0 0 Z " fill="#A9D4E7" transform="translate(87,212)"/>
</svg>
