<?xml version="1.0" encoding="UTF-8"?>
<svg version="1.1" xmlns="http://www.w3.org/2000/svg" width="411" height="315">
<path d="M0 0 C7.69403057 3.92164874 14.15601845 10.71841011 18.33984375 18.19140625 C20.86874975 16.939922 23.37512126 15.65319907 25.87890625 14.3515625 C43.79800394 5.10575557 63.62677835 0.25043398 83.5859375 6.21875 C105.54280104 13.97372734 105.54280104 13.97372734 112.43359375 21.46875 C113.06265625 22.03722656 113.69171875 22.60570313 114.33984375 23.19140625 C117.3485406 23.01030023 119.54873635 21.56166062 122.15234375 20.12890625 C129.6241674 16.79853748 137.98251151 16.81434854 145.7265625 19.26171875 C155.19909051 23.61171279 160.68997812 29.70532222 164.7109375 39.2109375 C165.33984375 41.19140625 165.33984375 41.19140625 165.33984375 44.19140625 C166.01789063 44.289375 166.6959375 44.38734375 167.39453125 44.48828125 C177.8623974 46.17009908 186.27150657 49.21514703 194.33984375 56.19140625 C195.00886719 56.743125 195.67789062 57.29484375 196.3671875 57.86328125 C204.98698276 65.60620674 210.84982946 77.6760468 211.515625 89.24609375 C211.67843306 96.66671354 211.31331059 103.71625839 208.2890625 110.57421875 C207.21776571 113.52800001 207.10464118 115.93382636 207.02734375 119.06640625 C206.58953334 124.83561764 205.59699058 128.22718237 201.33984375 132.19140625 C193.4622774 138.75604487 185.54818127 142.64916089 175.3918457 144.07226562 C167.81542319 145.17098248 163.55741296 146.89961758 158.46875 152.84765625 C149.11965726 163.14023541 132.67126692 169.35732454 119.05126953 170.35986328 C99.88534857 171.26998748 83.47070398 167.94531307 67.33984375 157.19140625 C63.88656421 156.64230765 60.3937895 156.58698099 56.90234375 156.44140625 C55.94779297 156.38597656 54.99324219 156.33054688 54.00976562 156.2734375 C53.08873047 156.23089844 52.16769531 156.18835938 51.21875 156.14453125 C49.95913452 156.08507324 49.95913452 156.08507324 48.67407227 156.02441406 C46.08062381 156.20995101 44.59668505 156.94907332 42.33984375 158.19140625 C40.3090736 158.6034856 38.26520693 158.95416028 36.21484375 159.25390625 C32.13997223 159.78662116 32.13997223 159.78662116 28.33984375 161.19140625 C26.81931972 161.24314431 25.29838274 161.28308145 23.77734375 161.31640625 C18.34784103 161.798683 15.73582496 163.8610428 11.6953125 167.34375 C0.95035075 175.77221916 -13.38752143 177.83492794 -26.66015625 177.19140625 C-28.36878202 176.90145763 -30.0771206 176.60981115 -31.78515625 176.31640625 C-34.67372716 175.98846585 -36.12402188 175.89171025 -38.6796875 177.3203125 C-39.98773521 178.38326776 -41.28292258 179.46219843 -42.56640625 180.5546875 C-51.19037747 187.29618739 -62.25806925 187.14330033 -72.66015625 186.19140625 C-82.38171917 184.75497479 -90.35799165 179.35017629 -96.53515625 171.81640625 C-98.79391801 168.74680694 -100.33047343 165.79402828 -101.72265625 162.25390625 C-103.04123262 159.08821024 -103.46000775 158.32787114 -106.41015625 156.31640625 C-110.58151182 156.1559695 -112.43406896 157.51365151 -115.73046875 159.9296875 C-119.89207155 162.65073549 -124.81342541 162.81480822 -129.66015625 162.19140625 C-135.54256883 160.32651096 -138.82187151 157.63145199 -141.66015625 152.19140625 C-141.66015625 151.53140625 -141.66015625 150.87140625 -141.66015625 150.19140625 C-142.40136719 150.55234375 -143.14257812 150.91328125 -143.90625 151.28515625 C-153.81056884 155.64936039 -164.12075256 157.46381911 -174.71875 154.26953125 C-177.23151223 153.09155443 -179.40203519 151.80010527 -181.66015625 150.19140625 C-182.65789062 149.50498047 -182.65789062 149.50498047 -183.67578125 148.8046875 C-188.73590304 144.92455209 -191.96050651 140.309963 -193.0390625 133.9609375 C-193.41360212 126.94134013 -190.63371414 122.2222273 -186.91015625 116.50390625 C-181.81874774 111.27106972 -175.54642548 108.37205817 -168.66015625 106.19140625 C-167.34015625 106.19140625 -166.02015625 106.19140625 -164.66015625 106.19140625 C-164.7065625 105.22460938 -164.75296875 104.2578125 -164.80078125 103.26171875 C-165.10598274 92.25266486 -163.5319043 83.777814 -156.48046875 75.0078125 C-150.55142404 69.09149106 -142.76166479 65.87216698 -134.66015625 64.19140625 C-132.68595703 64.21654297 -132.68595703 64.21654297 -130.671875 64.2421875 C-128.5646164 64.08667974 -128.5646164 64.08667974 -126.66015625 63.19140625 C-124.31466961 60.14860221 -123.00880616 56.74452306 -121.59765625 53.19140625 C-114.45093648 35.95732655 -103.58420111 25.49764917 -86.64501953 17.97631836 C-73.59512256 12.81575024 -58.74951859 14.17581125 -45.921875 19.28125 C-43.80751762 20.20525377 -41.7257605 21.1638203 -39.66015625 22.19140625 C-39.41910156 21.30710937 -39.17804688 20.4228125 -38.9296875 19.51171875 C-37.54887098 15.90035247 -35.97174505 13.88013509 -33.34765625 11.06640625 C-32.58839844 10.23882812 -31.82914063 9.41125 -31.046875 8.55859375 C-22.20252518 -0.21338005 -12.38538939 -3.76472188 0 0 Z " fill="#CBCBCB" transform="translate(196.66015625,5.80859375)"/>
<path d="M0 0 C7.69403057 3.92164874 14.15601845 10.71841011 18.33984375 18.19140625 C20.86874975 16.939922 23.37512126 15.65319907 25.87890625 14.3515625 C43.79800394 5.10575557 63.62677835 0.25043398 83.5859375 6.21875 C105.54280104 13.97372734 105.54280104 13.97372734 112.43359375 21.46875 C113.06265625 22.03722656 113.69171875 22.60570313 114.33984375 23.19140625 C117.3485406 23.01030023 119.54873635 21.56166062 122.15234375 20.12890625 C129.6241674 16.79853748 137.98251151 16.81434854 145.7265625 19.26171875 C155.19909051 23.61171279 160.68997812 29.70532222 164.7109375 39.2109375 C165.33984375 41.19140625 165.33984375 41.19140625 165.33984375 44.19140625 C166.01789063 44.289375 166.6959375 44.38734375 167.39453125 44.48828125 C177.8623974 46.17009908 186.27150657 49.21514703 194.33984375 56.19140625 C195.00886719 56.743125 195.67789062 57.29484375 196.3671875 57.86328125 C204.98698276 65.60620674 210.84982946 77.6760468 211.515625 89.24609375 C211.72480425 98.78026389 210.36963289 106.58231127 206.33984375 115.19140625 C205.13328125 114.04671875 205.13328125 114.04671875 203.90234375 112.87890625 C198.0890338 108.08666947 191.40032931 106.6767227 183.98046875 106.88671875 C179.28645913 107.42833524 174.83024992 108.75720808 170.33984375 110.19140625 C170.38625 109.38058594 170.43265625 108.56976563 170.48046875 107.734375 C170.87952506 95.49189757 167.7641888 85.33205421 159.33984375 76.19140625 C155.87276974 73.40620761 152.28908181 71.2253486 148.33984375 69.19140625 C147.65535156 68.83046875 146.97085937 68.46953125 146.265625 68.09765625 C136.82454047 64.09122352 123.87175484 64.84260615 114.40234375 68.19140625 C104.14724333 72.79520921 96.74421745 79.03732863 90.33984375 88.19140625 C89.01067083 89.86139274 87.67970273 91.52998112 86.33984375 93.19140625 C85.87835938 92.59972656 85.416875 92.00804688 84.94140625 91.3984375 C78.09819977 83.10814981 69.54331533 77.92096894 58.67578125 76.8203125 C49.43575308 76.66540079 42.68119764 77.78982677 34.33984375 82.19140625 C33.34984375 82.68640625 33.34984375 82.68640625 32.33984375 83.19140625 C32.25347656 82.53914063 32.16710937 81.886875 32.078125 81.21484375 C31.08616967 75.04469959 29.89318795 71.52792454 25.33984375 67.19140625 C21.08788236 64.66297653 17.17787412 64.39035532 12.33984375 65.19140625 C9.41923891 66.55064968 6.91482279 68.26891059 4.33984375 70.19140625 C3.34984375 70.85140625 2.35984375 71.51140625 1.33984375 72.19140625 C0.86546875 71.71703125 0.39109375 71.24265625 -0.09765625 70.75390625 C-3.73176633 68.53798547 -7.4157375 67.87547864 -11.66015625 68.19140625 C-14.89397857 69.60460369 -14.89397857 69.60460369 -17.66015625 71.19140625 C-17.87929687 70.22460938 -18.0984375 69.2578125 -18.32421875 68.26171875 C-20.28927943 60.02839008 -22.61921894 53.13219431 -27.66015625 46.19140625 C-28.11132812 45.546875 -28.5625 44.90234375 -29.02734375 44.23828125 C-34.35991027 37.30895753 -43.13509748 32.13628658 -51.66015625 30.19140625 C-61.80246318 28.98637968 -70.85740481 32.00012743 -79.39453125 37.3828125 C-84.58172373 41.52362305 -87.34421734 47.09062273 -89.66015625 53.19140625 C-90.19125 52.91425781 -90.72234375 52.63710938 -91.26953125 52.3515625 C-91.9759375 51.98933594 -92.68234375 51.62710938 -93.41015625 51.25390625 C-94.10625 50.89425781 -94.80234375 50.53460938 -95.51953125 50.1640625 C-100.05509179 48.10319649 -104.72203902 47.42668958 -109.66015625 48.19140625 C-113.45348915 49.62077807 -117.05764987 51.33717502 -120.66015625 53.19140625 C-119.14648131 42.82273291 -111.66454898 33.55934535 -103.66015625 27.19140625 C-89.33824715 17.47606042 -74.56328504 12.94948641 -57.29296875 15.734375 C-51.0873625 17.16340138 -45.35547627 19.35812836 -39.66015625 22.19140625 C-39.41910156 21.30710937 -39.17804688 20.4228125 -38.9296875 19.51171875 C-37.54887098 15.90035247 -35.97174505 13.88013509 -33.34765625 11.06640625 C-32.58839844 10.23882812 -31.82914062 9.41125 -31.046875 8.55859375 C-22.20252518 -0.21338005 -12.38538939 -3.76472188 0 0 Z " fill="#8B9094" transform="translate(196.66015625,5.80859375)"/>
<path d="M0 0 C-0.37550685 2.54147391 -0.68757953 3.72187867 -2.63671875 5.45703125 C-3.31347656 5.90433594 -3.99023438 6.35164063 -4.6875 6.8125 C-9.29094837 10.06637628 -13.4482106 13.89642119 -16 19 C-16.52841085 23.81633493 -16.54743801 27.81388431 -14.5 32.25 C-11.34696862 35.71833452 -7.85733375 38.35978612 -4 41 C-5.37458607 43.74917214 -6.96513017 44.01411102 -9.75 45.25 C-14.51755687 47.57913595 -17.21955966 49.45861411 -20 54 C-20.72848321 57.96618637 -20.37638362 59.41595646 -18.1875 62.8125 C-16.11646187 65.20963137 -16.11646187 65.20963137 -13 66 C-11.54010239 65.92071717 -10.08154306 65.81426399 -8.625 65.6875 C-6.20703125 65.6484375 -6.20703125 65.6484375 -4 66 C-1.3125 68.8125 -1.3125 68.8125 1 72 C5.4227128 74.88437792 8.75397274 75.56207435 14 75 C18.71156619 73.20960485 21.60200465 70.67350848 25 67 C26 66 27 65 28 64 C30.81917403 65.31066863 33.0957568 66.78864371 35.5 68.75 C46.84925473 77.43260653 57.99176291 80.29106555 72 79 C79.82368125 77.21260546 87.51144287 72.73283569 92 66 C93.6256807 66.30893932 95.25052748 66.6222695 96.875 66.9375 C97.77992188 67.11152344 98.68484375 67.28554687 99.6171875 67.46484375 C102 68 102 68 104 69 C114.19527856 69.91592341 122.63699026 68.50658329 131.25 62.875 C135.02503252 58.9283751 138.00875989 54.55765875 141 50 C144.71171927 51.23723976 146.2553349 53.2553349 149 56 C152.54191484 58.47934039 155.75787349 58.36570056 160 58 C163.72683585 56.95648596 165.45535319 55.89006755 167.484375 52.57421875 C168.74120085 50.0782191 169.90925181 47.57242825 171 45 C171.66 45.66 172.32 46.32 173 47 C173.4640625 47.46019531 173.928125 47.92039063 174.40625 48.39453125 C175.50523971 49.50160177 176.58775764 50.6251856 177.65625 51.76171875 C192.47732482 67.2422058 211.8448045 79.79957498 233.7746582 80.29248047 C250.87024789 80.42733745 268.94965953 76.96982075 283.3125 67.125 C288.31152583 64.13501662 293.43314369 64.83408051 299.05371094 65.01269531 C311.67213585 65.29983365 322.28436138 61.22425043 331.5625 52.625 C332.2740625 51.820625 332.2740625 51.820625 333 51 C333.4690513 55.59670278 333.7147364 59.63589727 331.125 63.625 C323.82800104 72.48417338 313.18109238 77.32145232 302.05200195 78.88085938 C294.47557944 79.97957623 290.21756921 81.70821133 285.12890625 87.65625 C275.77981351 97.94882916 259.33142317 104.16591829 245.71142578 105.16845703 C226.54550482 106.07858123 210.13086023 102.75390682 194 92 C190.54672046 91.4509014 187.05394575 91.39557474 183.5625 91.25 C182.60794922 91.19457031 181.65339844 91.13914062 180.66992188 91.08203125 C179.74888672 91.03949219 178.82785156 90.99695313 177.87890625 90.953125 C176.61929077 90.89366699 176.61929077 90.89366699 175.33422852 90.83300781 C172.74078006 91.01854476 171.2568413 91.75766707 169 93 C166.96922985 93.41207935 164.92536318 93.76275403 162.875 94.0625 C158.80012848 94.59521491 158.80012848 94.59521491 155 96 C153.47947597 96.05173806 151.95853899 96.0916752 150.4375 96.125 C145.00799728 96.60727675 142.39598121 98.66963655 138.35546875 102.15234375 C127.610507 110.58081291 113.27263482 112.64352169 100 112 C98.29137423 111.71005138 96.58303565 111.4184049 94.875 111.125 C91.98642909 110.7970596 90.53613437 110.700304 87.98046875 112.12890625 C86.67242104 113.19186151 85.37723367 114.27079218 84.09375 115.36328125 C75.46977878 122.10478114 64.402087 121.95189408 54 121 C44.27843708 119.56356854 36.3021646 114.15877004 30.125 106.625 C27.86623824 103.55540069 26.32968282 100.60262203 24.9375 97.0625 C23.61892363 93.89680399 23.2001485 93.13646489 20.25 91.125 C16.07864443 90.96456325 14.22608729 92.32224526 10.9296875 94.73828125 C6.7680847 97.45932924 1.84673084 97.62340197 -3 97 C-8.88241258 95.13510471 -12.16171526 92.44004574 -15 87 C-15 86.34 -15 85.68 -15 85 C-15.74121094 85.3609375 -16.48242188 85.721875 -17.24609375 86.09375 C-27.15041259 90.45795414 -37.46059631 92.27241286 -48.05859375 89.078125 C-50.57135598 87.90014818 -52.74187894 86.60869902 -55 85 C-55.66515625 84.54238281 -56.3303125 84.08476562 -57.015625 83.61328125 C-62.07574679 79.73314584 -65.30035026 75.11855675 -66.37890625 68.76953125 C-66.75344587 61.74993388 -63.97355789 57.03082105 -60.25 51.3125 C-55.15859149 46.07966347 -48.88626923 43.18065192 -42 41 C-40.68 41 -39.36 41 -38 41 C-38.04640625 40.03320312 -38.0928125 39.06640625 -38.140625 38.0703125 C-38.44603397 27.05377472 -36.85988695 18.60958014 -29.83203125 9.8203125 C-21.35845961 1.40094281 -11.47460259 -0.3734952 0 0 Z " fill="#B0B6BB" transform="translate(70,71)"/>
<path d="M0 0 C0.66 0 1.32 0 2 0 C3.5234375 1.9921875 3.5234375 1.9921875 5.375 4.875 C6.07496094 5.95523437 6.77492187 7.03546875 7.49609375 8.1484375 C7.88780762 8.75526367 8.27952148 9.36208984 8.68310547 9.98730469 C10.15067788 12.23029078 11.65241564 14.44788725 13.16015625 16.6640625 C13.70172363 17.46344238 14.24329102 18.26282227 14.80126953 19.08642578 C15.88056123 20.67846961 16.96349492 22.26805132 18.05029297 23.85498047 C18.54803223 24.59377441 19.04577148 25.33256836 19.55859375 26.09375 C20.00517334 26.75052734 20.45175293 27.40730469 20.91186523 28.08398438 C23.63374137 32.87673374 23.74059712 38.18483866 22.3515625 43.46484375 C19.8852764 50.47373373 16.40674845 54.3059584 10.140625 58.13671875 C4.64071507 60.35474812 -2.7044604 59.70106876 -8.3125 58 C-13.98927569 55.49937438 -17.76935618 50.5147939 -20.4375 45.0625 C-22.19400866 35.49928621 -20.31512262 29.39847959 -14.87841797 21.33691406 C-12.77865168 18.31144436 -10.6225085 15.33048058 -8.44140625 12.36328125 C-5.85230965 8.83487519 -3.47676704 5.18669149 -1.15625 1.4765625 C-0.7746875 0.98929688 -0.393125 0.50203125 0 0 Z " fill="#5F769A" transform="translate(247,251)"/>
<path d="M0 0 C2.4733112 2.39021057 4.65497274 4.72811766 6.5859375 7.57421875 C7.0392041 8.23784424 7.4924707 8.90146973 7.95947266 9.58520508 C8.66015869 10.62584106 8.66015869 10.62584106 9.375 11.6875 C9.85888184 12.39994873 10.34276367 13.11239746 10.84130859 13.84643555 C11.79790275 15.25661771 12.75255321 16.66812071 13.70507812 18.08105469 C14.80216614 19.70682991 15.9079494 21.32673227 17.015625 22.9453125 C21.62944776 29.73166345 22.76296761 34.74004635 22 43 C20.46680782 49.27925204 17.49823237 53.2760145 12.13671875 56.84375 C5.94536273 60.19409988 -0.1785222 60.6931006 -7 59 C-11.80956257 57.08753614 -15.12834665 54.30748002 -18 50 C-18.5775 49.154375 -19.155 48.30875 -19.75 47.4375 C-21.76188654 41.90481201 -22.55471934 35.57359356 -20.14379883 30.03198242 C-16.55844774 23.31503585 -12.07156696 17.14728207 -7.6875 10.9375 C-6.57665039 9.35291992 -6.57665039 9.35291992 -5.44335938 7.73632812 C-3.63278002 5.1547924 -1.81826984 2.5761219 0 0 Z " fill="#5E769A" transform="translate(329,219)"/>
<path d="M0 0 C4.66434787 4.27201954 8.0425518 9.1416593 11.5625 14.375 C12.12646484 15.2 12.69042969 16.025 13.27148438 16.875 C14.87267037 19.23464253 16.44568545 21.60926443 18 24 C18.42071777 24.64501465 18.84143555 25.2900293 19.27490234 25.95458984 C22.79624712 31.67187346 22.81477024 36.48183807 22 43 C20.41194425 49.51102857 17.35884119 53.13592547 11.90234375 56.90625 C6.19567539 60.18729136 -0.63862172 59.52767193 -7 59 C-10.5625 57.3125 -10.5625 57.3125 -13 55 C-13.886875 54.2575 -14.77375 53.515 -15.6875 52.75 C-20.17094129 47.41834008 -21.71672423 41.57283244 -21.47265625 34.6328125 C-19.98703319 26.35752374 -13.9523675 19.30179295 -9.03515625 12.7265625 C-5.92190381 8.55564081 -2.9675831 4.27517441 0 0 Z " fill="#5E769A" transform="translate(180,239)"/>
<path d="M0 0 C0.66 0 1.32 0 2 0 C3.63232422 2.09204102 3.63232422 2.09204102 5.5546875 5.00390625 C6.25207031 6.05513672 6.94945313 7.10636719 7.66796875 8.18945312 C8.21203369 9.02101929 8.21203369 9.02101929 8.76708984 9.86938477 C9.85724732 11.53537024 10.95784178 13.19451109 12.05859375 14.85351562 C14.06202597 17.88818045 16.03762254 20.93866983 18 24 C18.45673096 24.69585205 18.91346191 25.3917041 19.3840332 26.10864258 C23.01530248 31.93274247 22.67822918 37.36365627 22 44 C20.25501972 49.88930845 15.85293802 53.46974374 11 57 C5.46128391 59.76935804 -1.31607656 60.12760091 -7.24609375 58.3125 C-13.26942638 55.5797971 -16.60434401 51.50255557 -19.8125 45.75 C-21.78220088 39.52989197 -21.88005211 34.40014211 -19.625 28.25 C-16.68301361 23.07796699 -13.05327477 18.29763452 -9.54296875 13.5 C-6.71569246 9.63566733 -4.03675165 5.67514309 -1.375 1.6953125 C-0.92125 1.13585937 -0.4675 0.57640625 0 0 Z " fill="#5E769A" transform="translate(84,230)"/>
<path d="M0 0 C2.8688248 2.72606801 5.15579843 5.48193466 7.34765625 8.7734375 C7.95287109 9.6809375 8.55808594 10.5884375 9.18164062 11.5234375 C9.80232422 12.46445313 10.42300781 13.40546875 11.0625 14.375 C11.68705078 15.30828125 12.31160156 16.2415625 12.95507812 17.203125 C22.64409299 31.80386031 22.64409299 31.80386031 21 42 C18.85389083 47.94177676 15.7827165 52.01830114 10.25 55.125 C3.97519323 57.78990287 -1.70436084 58.03392601 -8.1875 56 C-13.80344815 52.00643687 -18.69736625 46.94737999 -20 40 C-21.33989436 28.51519116 -13.81691842 20.08125055 -7.3828125 11.296875 C-4.71769246 7.64722826 -2.32495321 3.87492202 0 0 Z " fill="#5F95E6" transform="translate(282,179)"/>
<path d="M0 0 C4.57153572 4.20077546 7.65023049 9.74000202 11.0625 14.875 C12.16174805 16.50888672 12.16174805 16.50888672 13.28320312 18.17578125 C13.98509766 19.22894531 14.68699219 20.28210938 15.41015625 21.3671875 C16.05090088 22.32737793 16.69164551 23.28756836 17.35180664 24.27685547 C20.73655219 29.86913096 21.85358482 34.53868706 21 41 C18.88273609 47.97302486 14.22961958 52.47601113 8.08203125 56.14453125 C3.04217483 58.21531653 -2.56582306 57.38892934 -7.6875 56 C-13.0323365 52.77292891 -16.78247266 48.59386259 -19.4375 42.9375 C-21.29606871 33.2316412 -18.27632429 26.68890127 -12.98828125 18.75 C-11.44421102 16.48973358 -9.8798391 14.2441664 -8.3125 12 C-7.50638462 10.83256727 -6.70103935 9.6646024 -5.89648438 8.49609375 C-3.9398328 5.65787049 -1.97284884 2.82699656 0 0 Z " fill="#5E95E6" transform="translate(362,167)"/>
<path d="M0 0 C3.93627054 1.31209018 4.67089394 3.04307859 6.9765625 6.4609375 C7.34727875 7.00730865 7.717995 7.55367981 8.09994507 8.11660767 C8.88190626 9.27247412 9.66002727 10.43094648 10.43457031 11.59179688 C11.61949512 13.36675397 12.81642009 15.13310547 14.015625 16.8984375 C19.67324992 25.28576375 21.92520433 30.73153501 21 41 C19.09312369 47.66861887 15.01706692 51.5708762 9.171875 55.10546875 C4.09681621 57.19573577 -2.34141822 57.0377045 -7.421875 55.0546875 C-12.4048145 52.07616351 -15.8281477 48.57807506 -18.25 43.25 C-19.91062164 36.05397289 -19.5568362 29.54267529 -16 23 C-14.15041608 20.25326157 -12.20391864 17.60636641 -10.20703125 14.96484375 C-6.59725452 10.11560386 -3.31613521 5.05357839 0 0 Z " fill="#5E95E6" transform="translate(210,190)"/>
<path d="M0 0 C0.66 0 1.32 0 2 0 C3.45927532 1.90357714 4.7870037 3.79765347 6.09765625 5.80078125 C6.49198349 6.39295944 6.88631073 6.98513763 7.29258728 7.59526062 C8.12713164 8.85161693 8.95830207 10.11021983 9.78637695 11.37084961 C11.05349324 13.29879601 12.33142952 15.21919381 13.61132812 17.13867188 C14.41992384 18.35894254 15.22788747 19.57963234 16.03515625 20.80078125 C16.41744888 21.37588943 16.79974152 21.95099762 17.19361877 22.54353333 C21.20570932 28.67017732 21.70856523 33.7962535 21 41 C18.90375276 47.88115941 15.03713533 51.33255315 8.8125 54.75 C3.76131542 56.74186146 -1.80518099 57.05655432 -6.984375 55.34375 C-12.41930504 52.55413989 -17.06369855 47.80890435 -19 42 C-19.19739062 39.9640568 -19.31216592 37.91952431 -19.375 35.875 C-19.42398438 34.79992187 -19.47296875 33.72484375 -19.5234375 32.6171875 C-18.29634299 24.137415 -12.03605068 16.89406402 -7.25 10 C-6.66089844 9.14277344 -6.07179688 8.28554687 -5.46484375 7.40234375 C-1.16477997 1.16477997 -1.16477997 1.16477997 0 0 Z " fill="#5E95E6" transform="translate(53,168)"/>
<path d="M0 0 C4.02141567 3.755715 7.0177551 7.70162864 10 12.3125 C10.43497803 12.97604492 10.86995605 13.63958984 11.31811523 14.32324219 C12.55228122 16.21114383 13.77757703 18.10448071 15 20 C15.56847656 20.87527344 16.13695312 21.75054687 16.72265625 22.65234375 C20.88470831 29.16844274 21.92211642 34.34014652 21 42 C18.47095242 48.48613496 13.64220196 52.98720418 7.625 56.3125 C0.94571205 58.06183732 -3.94741714 57.19759094 -10 54 C-14.33015829 51.18036204 -17.3714313 47.93633519 -19 43 C-20.72703437 34.31967694 -19.16989178 28.07629575 -14.5 20.8125 C-12.72534218 18.16341929 -10.88022449 15.57489872 -9 13 C-8.19583867 11.87164633 -7.39240451 10.74277391 -6.58984375 9.61328125 C-5.24250949 7.7426629 -3.88017966 5.88265379 -2.49609375 4.0390625 C-0.96804086 2.07653339 -0.96804086 2.07653339 0 0 Z " fill="#5F95E6" transform="translate(133,196)"/>
<path d="M0 0 C0.70125 0.721875 1.4025 1.44375 2.125 2.1875 C4.0975124 4.1713162 6.14389266 5.98317739 8.3125 7.75 C9.199375 8.4925 10.08625 9.235 11 10 C11 10.33 11 10.66 11 11 C8.89611431 11.05402274 6.79183286 11.09280256 4.6875 11.125 C2.92986328 11.15980469 2.92986328 11.15980469 1.13671875 11.1953125 C-2 11 -2 11 -5 9 C-4.360625 8.071875 -3.72125 7.14375 -3.0625 6.1875 C-0.91377907 3.15780057 -0.91377907 3.15780057 0 0 Z " fill="#8C9195" transform="translate(251,150)"/>
<path d="M0 0 C2.97 0.99 5.94 1.98 9 3 C9 3.66 9 4.32 9 5 C4.27537952 7.4385138 0.19845061 7.15517763 -5 7 C-3.35 4.69 -1.7 2.38 0 0 Z " fill="#8F9498" transform="translate(221,160)"/>
<path d="M0 0 C0.33 0 0.66 0 1 0 C1.07347656 1.30324219 1.07347656 1.30324219 1.1484375 2.6328125 C1.22320312 3.78523438 1.29796875 4.93765625 1.375 6.125 C1.44460937 7.26195313 1.51421875 8.39890625 1.5859375 9.5703125 C1.99443876 12.95393616 2.80967569 15.81612441 4 19 C2.35 19 0.7 19 -1 19 C-1.02690104 16.20826945 -1.04679053 13.41679652 -1.0625 10.625 C-1.07087891 9.8309375 -1.07925781 9.036875 -1.08789062 8.21875 C-1.11328125 2.2265625 -1.11328125 2.2265625 0 0 Z " fill="#8E9397" transform="translate(34,92)"/>
<path d="M0 0 C0.66 0 1.32 0 2 0 C2 1.98 2 3.96 2 6 C-0.475 5.01 -0.475 5.01 -3 4 C-2.67 3.34 -2.34 2.68 -2 2 C-1.34 2 -0.68 2 0 2 C0 1.34 0 0.68 0 0 Z " fill="#91969A" transform="translate(91,157)"/>
</svg>
