<?xml version="1.0" encoding="UTF-8"?>
<svg version="1.1" xmlns="http://www.w3.org/2000/svg" width="491" height="347">
<path d="M0 0 C1.84229549 1.446995 3.67700576 2.90376269 5.5 4.375 C6.10457031 4.83777344 6.70914062 5.30054687 7.33203125 5.77734375 C19.17125625 15.05504777 26.86616685 28.60890343 33.81933594 41.64550781 C34.26825195 42.4856543 34.71716797 43.32580078 35.1796875 44.19140625 C35.57913574 44.94881104 35.97858398 45.70621582 36.39013672 46.48657227 C37.48071152 48.5232676 37.48071152 48.5232676 39.5 50.375 C45.62400349 50.26564279 49.82064277 48.41437611 55.19140625 45.5859375 C63.03337232 41.47255428 70.77869224 41.50446814 79.24609375 43.625 C91.13134538 47.57988442 98.69162295 55.61747327 104.5 66.375 C105.28876595 67.75166604 106.08004613 69.12689787 106.875 70.5 C107.41125 71.44875 107.9475 72.3975 108.5 73.375 C113.32499199 71.81013773 118.06936764 70.0616916 122.81640625 68.27734375 C128.50630147 66.36414754 133.7982706 66.19215707 139.75 66.1875 C140.96236328 66.16913086 140.96236328 66.16913086 142.19921875 66.15039062 C156.15796049 66.11688964 167.51814029 70.96177866 178.5 79.375 C179.11617188 79.81328125 179.73234375 80.2515625 180.3671875 80.703125 C190.6444776 88.56501513 198.32787665 102.49179339 200.8125 115 C203.15256002 132.75692603 201.54568705 149.58884165 190.5 164.375 C183.03633517 173.86246626 174.65038701 180.35917255 163.53125 185.0390625 C160.90748995 186.7646893 160.40116081 188.42663692 159.5 191.375 C158.59636719 191.27960938 157.69273437 191.18421875 156.76171875 191.0859375 C155.58222656 190.97507813 154.40273438 190.86421875 153.1875 190.75 C152.01574219 190.63398438 150.84398437 190.51796875 149.63671875 190.3984375 C146.33408833 190.08051218 146.33408833 190.08051218 143.5 192.375 C145.81 193.035 148.12 193.695 150.5 194.375 C150.83 195.695 151.16 197.015 151.5 198.375 C147.40139765 199.52172087 145.08895604 199.12429209 141.125 197.6875 C137.18951782 196.45278439 137.18951782 196.45278439 133.23046875 197.0625 C131.09280172 198.26042849 131.09280172 198.26042849 128.5 200.375 C128.5 201.035 128.5 201.695 128.5 202.375 C130.84074985 204.48167487 132.63904044 205.37354568 135.8125 205.37890625 C138.39270772 205.12324542 140.93864104 204.77670381 143.5 204.375 C144.87497031 204.18728242 146.24996601 203.99975056 147.625 203.8125 C148.57375 203.668125 149.5225 203.52375 150.5 203.375 C150.83 204.695 151.16 206.015 151.5 207.375 C148.12902617 208.87321059 146.29557881 209.375 142.5 209.375 C142.5 210.035 142.5 210.695 142.5 211.375 C146.66849129 213.46311252 149.27846452 213.39684218 153.8125 212.5 C154.88113281 212.29632813 155.94976562 212.09265625 157.05078125 211.8828125 C157.85902344 211.71523437 158.66726563 211.54765625 159.5 211.375 C159.83 212.695 160.16 214.015 160.5 215.375 C158.85 216.035 157.2 216.695 155.5 217.375 C158.47 219.355 161.44 221.335 164.5 223.375 C164.17 224.695 163.84 226.015 163.5 227.375 C159.63275596 226.83788277 157.53438225 225.78157902 154.5 223.375 C153.84 223.375 153.18 223.375 152.5 223.375 C152.5 225.355 152.5 227.335 152.5 229.375 C151.18 229.375 149.86 229.375 148.5 229.375 C148.35304688 228.61574219 148.20609375 227.85648438 148.0546875 227.07421875 C146.79454546 220.62936607 146.79454546 220.62936607 142.3125 216.1875 C141.384375 215.919375 140.45625 215.65125 139.5 215.375 C139.850625 216.096875 140.20125 216.81875 140.5625 217.5625 C141.60409017 220.6872705 141.39096572 222.25661996 140.5 225.375 C139.18 225.045 137.86 224.715 136.5 224.375 C136.36464844 223.56675781 136.22929687 222.75851563 136.08984375 221.92578125 C134.77408083 214.56409284 134.77408083 214.56409284 130 209.1875 C126.65518639 207.34036904 126.65518639 207.34036904 123.5 206.375 C123.25661203 211.58350254 123.21888197 215.79677668 126.60546875 219.96875 C128.24715929 221.49590399 129.93287576 222.97744389 131.6640625 224.40234375 C132.26992188 225.05332031 132.87578125 225.70429688 133.5 226.375 C133.2734375 228.62890625 133.2734375 228.62890625 132.5 230.375 C128.70411134 229.83273019 127.02788007 228.17372437 124.5 225.375 C123.91338532 228.62106681 123.91338532 228.62106681 124.5 232.375 C126.56581634 234.76182039 128.91608882 236.57549043 131.5 238.375 C131.17 239.695 130.84 241.015 130.5 242.375 C127.63275314 241.80155063 126.6385485 241.5135485 124.5 239.375 C124.17 243.005 123.84 246.635 123.5 250.375 C121.85 250.045 120.2 249.715 118.5 249.375 C118.17 246.075 117.84 242.775 117.5 239.375 C116.51 240.365 115.52 241.355 114.5 242.375 C113.51 242.045 112.52 241.715 111.5 241.375 C111.6875 239.125 111.6875 239.125 112.5 236.375 C113.345625 235.75625 114.19125 235.1375 115.0625 234.5 C117.92798309 232.49996076 117.92798309 232.49996076 117.8125 228.625 C117.709375 227.5525 117.60625 226.48 117.5 225.375 C116.7575 226.220625 116.015 227.06625 115.25 227.9375 C114.3425 228.741875 113.435 229.54625 112.5 230.375 C110.1875 230.1875 110.1875 230.1875 108.5 229.375 C109.04012132 225.53507496 110.57175997 224.23352702 113.5 221.8125 C117.05333358 218.45586882 118.09834231 216.25137544 118.5 211.375 C118.53622333 209.70872702 118.54899842 208.04094626 118.5 206.375 C115.04946923 207.57678743 112.26049274 208.95897083 109.5 211.375 C108.06768747 214.76688213 107.21174491 218.01057431 106.44921875 221.609375 C105.97935547 222.97835937 105.97935547 222.97835937 105.5 224.375 C103.39453125 225.265625 103.39453125 225.265625 101.5 225.375 C100.03273202 221.56010326 101.06663581 219.08488378 102.5 215.375 C99.97667848 216.19649005 99.97667848 216.19649005 97.5 218.375 C96.15814845 221.63003832 95.29075397 224.94839945 94.5 228.375 C92.85 228.705 91.2 229.035 89.5 229.375 C89.5 227.395 89.5 225.415 89.5 223.375 C88.95730469 223.67535156 88.41460937 223.97570312 87.85546875 224.28515625 C87.14003906 224.66542969 86.42460937 225.04570312 85.6875 225.4375 C84.97980469 225.82035156 84.27210938 226.20320312 83.54296875 226.59765625 C81.5 227.375 81.5 227.375 78.5 226.375 C78.5 225.055 78.5 223.735 78.5 222.375 C80.25 220.890625 80.25 220.890625 82.5 219.625 C83.2425 219.19703125 83.985 218.7690625 84.75 218.328125 C85.3275 218.01359375 85.905 217.6990625 86.5 217.375 C84.85 216.715 83.2 216.055 81.5 215.375 C81.83 214.055 82.16 212.735 82.5 211.375 C83.72976563 211.62636719 83.72976563 211.62636719 84.984375 211.8828125 C86.06203125 212.08648437 87.1396875 212.29015625 88.25 212.5 C89.31734375 212.70882812 90.3846875 212.91765625 91.484375 213.1328125 C94.7919736 213.6601632 94.7919736 213.6601632 98.5 211.375 C95.86 210.055 93.22 208.735 90.5 207.375 C90.83 206.055 91.16 204.735 91.5 203.375 C92.14066406 203.519375 92.78132813 203.66375 93.44140625 203.8125 C102.54139761 206.03252952 102.54139761 206.03252952 111.3125 203.875 C112.3953125 203.1325 112.3953125 203.1325 113.5 202.375 C114.16 202.375 114.82 202.375 115.5 202.375 C115.5 201.715 115.5 201.055 115.5 200.375 C114.778125 200.08625 114.05625 199.7975 113.3125 199.5 C110.5 198.375 110.5 198.375 108.3125 197.0625 C104.38961565 196.10357271 101.7178035 197.3577265 98 198.74609375 C95.1371249 199.46628577 93.32011132 199.1454947 90.5 198.375 C90.5 197.385 90.5 196.395 90.5 195.375 C93.14 194.055 95.78 192.735 98.5 191.375 C94.13642352 189.19321176 93.5370736 189.26302694 89.05230713 190.24154663 C82.51652458 191.47232732 76.29734947 191.60773936 69.66308594 191.51025391 C68.4421373 191.50079239 67.22118866 191.49133087 65.96324158 191.48158264 C62.65603457 191.45392582 59.34918484 191.41705137 56.04213619 191.37585878 C52.57090533 191.33487346 49.09957289 191.30597547 45.62823486 191.27572632 C39.07303584 191.21680302 32.51799657 191.14720729 25.96294713 191.07365549 C18.49251363 190.99036127 11.02197969 190.91914977 3.55141401 190.84888959 C-11.7992068 190.70425058 -27.14963392 190.54464471 -42.5 190.375 C-39.280058 193.68773572 -36.49059917 196.14879555 -31.75 196.6875 C-27.56663667 196.28525353 -23.57335166 195.38881197 -19.5 194.375 C-19.5 195.695 -19.5 197.015 -19.5 198.375 C-22.14 198.705 -24.78 199.035 -27.5 199.375 C-27.5 200.035 -27.5 200.695 -27.5 201.375 C-26.71625 201.684375 -25.9325 201.99375 -25.125 202.3125 C-22.5 203.375 -22.5 203.375 -20.5 204.375 C-20.5 205.365 -20.5 206.355 -20.5 207.375 C-24.23487777 206.8770163 -26.31237635 206.50008244 -29.5 204.375 C-29.17 205.365 -28.84 206.355 -28.5 207.375 C-28.46045766 209.70799825 -28.45598268 212.04208189 -28.5 214.375 C-29.49 214.375 -30.48 214.375 -31.5 214.375 C-32.00692692 212.7938708 -32.50526443 211.20998617 -33 209.625 C-33.41765625 208.30242187 -33.41765625 208.30242187 -33.84375 206.953125 C-34.5 204.375 -34.5 204.375 -34.5 200.375 C-35.180625 200.1275 -35.86125 199.88 -36.5625 199.625 C-40.06865083 198.13302092 -43.21620368 196.30664489 -46.5 194.375 C-46.8821419 203.13737991 -46.8821419 203.13737991 -43.65234375 210.98046875 C-41.49012735 213.07155871 -41.49012735 213.07155871 -39.21484375 214.82421875 C-38.36599609 215.59185547 -38.36599609 215.59185547 -37.5 216.375 C-37.5 217.365 -37.5 218.355 -37.5 219.375 C-41.18754757 218.87668276 -43.10490662 218.27432357 -45.5 215.375 C-45.83 217.685 -46.16 219.995 -46.5 222.375 C-47.82 222.375 -49.14 222.375 -50.5 222.375 C-50.83 219.735 -51.16 217.095 -51.5 214.375 C-52.263125 215.2 -53.02625 216.025 -53.8125 216.875 C-56.5 219.375 -56.5 219.375 -59.5 219.375 C-58.94415435 215.77744342 -57.84979971 214.6607088 -55 212.5 C-51.21219673 208.97556137 -50.89591536 206.02080182 -50.5625 200.9375 C-50.5100492 198.75052968 -50.47876217 196.56249611 -50.5 194.375 C-58.66384979 197.82674931 -58.66384979 197.82674931 -63.96484375 204.51171875 C-64.669805 207.4753618 -65.20145543 210.34477264 -65.5 213.375 C-66.82 213.375 -68.14 213.375 -69.5 213.375 C-68.84 210.405 -68.18 207.435 -67.5 204.375 C-68.61375 205.1175 -68.61375 205.1175 -69.75 205.875 C-72.5 207.375 -72.5 207.375 -76.5 207.375 C-76.375 205.5 -76.375 205.5 -75.5 203.375 C-72.4375 202.125 -72.4375 202.125 -69.5 201.375 C-69.5 200.715 -69.5 200.055 -69.5 199.375 C-72.14 199.045 -74.78 198.715 -77.5 198.375 C-77.5 197.055 -77.5 195.735 -77.5 194.375 C-76.91992188 194.519375 -76.33984375 194.66375 -75.7421875 194.8125 C-67.97929822 196.99701359 -67.97929822 196.99701359 -60.46313477 195.23852539 C-59.75471436 194.77953857 -59.04629395 194.32055176 -58.31640625 193.84765625 C-57.6004126 193.3875415 -56.88441895 192.92742676 -56.14672852 192.45336914 C-55.60330811 192.09750732 -55.0598877 191.74164551 -54.5 191.375 C-55.14107413 191.37684359 -55.78214827 191.37868717 -56.44264889 191.38058662 C-72.0680143 191.42482641 -87.69335782 191.45788607 -103.31877041 191.47862434 C-110.87521558 191.48892073 -118.43161884 191.50294962 -125.98803711 191.52587891 C-132.5770421 191.54586307 -139.16601674 191.55872833 -145.7550512 191.56317699 C-149.24132012 191.56577589 -152.72750221 191.57185 -156.21374321 191.58646011 C-160.11313331 191.6026679 -164.0124398 191.60297647 -167.91186523 191.60205078 C-169.05770081 191.60924133 -170.20353638 191.61643188 -171.38409424 191.62384033 C-177.08287006 191.60923241 -182.18638603 191.26611482 -187.67472935 189.6702404 C-189.77119313 189.15943911 -189.77119313 189.15943911 -192.5625 190.75 C-193.5215625 191.554375 -193.5215625 191.554375 -194.5 192.375 C-191.86 193.035 -189.22 193.695 -186.5 194.375 C-186.5 196.025 -186.5 197.675 -186.5 199.375 C-193.89348371 198.6231203 -193.89348371 198.6231203 -197.25 197.25 C-199.93903619 196.2042637 -200.85506747 196.30049616 -203.5 197.375 C-205.17016516 198.36914593 -206.83720673 199.3685725 -208.5 200.375 C-209.16 200.375 -209.82 200.375 -210.5 200.375 C-210.5 201.035 -210.5 201.695 -210.5 202.375 C-209.71625 202.684375 -208.9325 202.99375 -208.125 203.3125 C-205.5 204.375 -205.5 204.375 -203.5 205.375 C-197.805262 205.1702872 -192.09623628 204.4337474 -186.5 203.375 C-186.83 205.025 -187.16 206.675 -187.5 208.375 C-189.81 208.705 -192.12 209.035 -194.5 209.375 C-192.80977377 211.42106333 -191.66195808 212.31959329 -189.125 213.1875 C-186.45962019 213.56987048 -186.45962019 213.56987048 -184 212.375 C-181.03674596 211.18969839 -179.51784777 211.51275778 -176.5 212.375 C-176.5 213.365 -176.5 214.355 -176.5 215.375 C-178.15 216.035 -179.8 216.695 -181.5 217.375 C-178.86 219.355 -176.22 221.335 -173.5 223.375 C-173.83 224.695 -174.16 226.015 -174.5 227.375 C-178.69360449 226.70402328 -181.90334352 224.5191606 -185.5 222.375 C-185.17 224.355 -184.84 226.335 -184.5 228.375 C-185.82 228.705 -187.14 229.035 -188.5 229.375 C-188.78875 228.488125 -189.0775 227.60125 -189.375 226.6875 C-189.74625 225.594375 -190.1175 224.50125 -190.5 223.375 C-190.9021875 222.0446875 -190.9021875 222.0446875 -191.3125 220.6875 C-192.82766417 217.73691715 -194.57931493 216.83534254 -197.5 215.375 C-197.17 216.365 -196.84 217.355 -196.5 218.375 C-196.46045766 220.70799825 -196.45598268 223.04208189 -196.5 225.375 C-197.82 225.375 -199.14 225.375 -200.5 225.375 C-200.68433594 224.42238281 -200.86867188 223.46976563 -201.05859375 222.48828125 C-202.5275125 215.19647686 -202.5275125 215.19647686 -206.76953125 209.33203125 C-209.47980204 207.80880868 -209.47980204 207.80880868 -213.5 206.375 C-213.5 210.335 -213.5 214.295 -213.5 218.375 C-211.52 219.365 -211.52 219.365 -209.5 220.375 C-207.76171875 221.7421875 -207.76171875 221.7421875 -206.1875 223.25 C-205.65511719 223.74242187 -205.12273437 224.23484375 -204.57421875 224.7421875 C-203.5 226.375 -203.5 226.375 -203.83203125 228.5703125 C-204.16267578 229.46363281 -204.16267578 229.46363281 -204.5 230.375 C-208.29588866 229.83273019 -209.97211993 228.17372437 -212.5 225.375 C-213.00196294 228.66426495 -213.00196294 228.66426495 -212.5 232.375 C-210.68811972 234.5153498 -208.84198833 235.76488302 -206.5 237.375 C-206.83 239.025 -207.16 240.675 -207.5 242.375 C-211.375 240.5 -211.375 240.5 -212.5 239.375 C-212.83 242.675 -213.16 245.975 -213.5 249.375 C-214.82 249.705 -216.14 250.035 -217.5 250.375 C-219.16342837 248.71157163 -218.86048097 246.5924291 -219.0625 244.3125 C-219.14628906 243.39339844 -219.23007813 242.47429687 -219.31640625 241.52734375 C-219.37699219 240.81707031 -219.43757813 240.10679687 -219.5 239.375 C-220.098125 239.890625 -220.69625 240.40625 -221.3125 240.9375 C-222.034375 241.411875 -222.75625 241.88625 -223.5 242.375 C-224.49 242.045 -225.48 241.715 -226.5 241.375 C-225.93261251 238.06287552 -225.05967832 236.69761629 -222.5 234.5625 C-219.20233578 231.47784279 -218.6817638 228.91909497 -218.5 224.375 C-219.16 224.375 -219.82 224.375 -220.5 224.375 C-220.726875 224.99375 -220.95375 225.6125 -221.1875 226.25 C-222.87929835 228.98910209 -224.49244161 229.42524472 -227.5 230.375 C-228.2734375 228.62890625 -228.2734375 228.62890625 -228.5 226.375 C-226.6640625 224.40234375 -226.6640625 224.40234375 -224.125 222.3125 C-220.29250682 218.74739007 -218.85027575 216.56354891 -218.4375 211.3125 C-218.41718099 209.66666024 -218.42316958 208.01917106 -218.5 206.375 C-222.23262478 207.57952432 -225.40295952 208.94232466 -228.5 211.375 C-230.23160566 215.29197544 -230.85916996 219.16294236 -231.5 223.375 C-231.83 224.035 -232.16 224.695 -232.5 225.375 C-233.82 225.045 -235.14 224.715 -236.5 224.375 C-236.17 221.405 -235.84 218.435 -235.5 215.375 C-238.04055632 216.12106262 -238.04055632 216.12106262 -240.5 218.375 C-241.85625328 221.96695204 -242.71598324 225.62064331 -243.5 229.375 C-244.82 229.375 -246.14 229.375 -247.5 229.375 C-247.83 227.395 -248.16 225.415 -248.5 223.375 C-249.5725 224.055625 -250.645 224.73625 -251.75 225.4375 C-255.16157733 227.40971002 -255.16157733 227.40971002 -257.9375 227.125 C-258.7109375 226.75375 -258.7109375 226.75375 -259.5 226.375 C-259.4375 224.625 -259.4375 224.625 -258.5 222.375 C-256.25835678 220.77998463 -253.96433357 219.62956982 -251.5 218.375 C-252.16 217.9625 -252.82 217.55 -253.5 217.125 C-254.16 216.5475 -254.82 215.97 -255.5 215.375 C-255.5 214.055 -255.5 212.735 -255.5 211.375 C-254.01886719 211.51808594 -254.01886719 211.51808594 -252.5078125 211.6640625 C-251.22648437 211.77492187 -249.94515625 211.88578125 -248.625 212 C-247.34882813 212.11601562 -246.07265625 212.23203125 -244.7578125 212.3515625 C-243.68273437 212.35929688 -242.60765625 212.36703125 -241.5 212.375 C-240.84 211.715 -240.18 211.055 -239.5 210.375 C-241.81 209.385 -244.12 208.395 -246.5 207.375 C-246.17 206.055 -245.84 204.735 -245.5 203.375 C-240.01733833 204.21848641 -240.01733833 204.21848641 -237.34375 205.02734375 C-232.86258342 206.37960032 -232.86258342 206.37960032 -228.3671875 205.61328125 C-226.21493797 204.41566567 -226.21493797 204.41566567 -223.5 202.375 C-223.5 201.715 -223.5 201.055 -223.5 200.375 C-227.82144192 197.11973017 -227.82144192 197.11973017 -233.015625 196.51953125 C-235.54526908 197.04590928 -238.01115719 197.68276559 -240.5 198.375 C-242.16421622 198.72035963 -243.8303195 199.05710709 -245.5 199.375 C-245.83 198.055 -246.16 196.735 -246.5 195.375 C-244.19 194.385 -241.88 193.395 -239.5 192.375 C-240.59219149 190.69592779 -240.59219149 190.69592779 -242.5 189.375 C-245.49639569 189.44957992 -245.49639569 189.44957992 -248.6875 190.1875 C-249.77417969 190.40019531 -250.86085938 190.61289063 -251.98046875 190.83203125 C-252.81191406 191.01121094 -253.64335937 191.19039062 -254.5 191.375 C-254.995 189.395 -254.995 189.395 -255.5 187.375 C-254.18 186.385 -252.86 185.395 -251.5 184.375 C-252.0775 184.07207031 -252.655 183.76914063 -253.25 183.45703125 C-253.9925 183.03808594 -254.735 182.61914062 -255.5 182.1875 C-256.2425 181.78144531 -256.985 181.37539062 -257.75 180.95703125 C-258.61625 180.17392578 -258.61625 180.17392578 -259.5 179.375 C-259.49226563 178.5809375 -259.48453125 177.786875 -259.4765625 176.96875 C-259.220693 174.23480569 -259.220693 174.23480569 -261.3359375 172.26171875 C-262.59277344 171.17310547 -262.59277344 171.17310547 -263.875 170.0625 C-268.4026769 165.77991102 -271.73663266 161.36622762 -275 156.0625 C-275.42071777 155.38082764 -275.84143555 154.69915527 -276.27490234 153.99682617 C-281.29055839 145.65688766 -282.79095681 138.09229591 -281.5 128.375 C-280.45670918 124.91546317 -279.1673491 121.72078131 -277.70703125 118.41796875 C-276.53404307 115.46082379 -276.12007645 113.08212489 -275.8125 109.9375 C-273.79336565 97.29037668 -260.97526354 85.28657692 -251.5 77.375 C-241.14474014 69.9269311 -231.13784853 67.30681022 -218.6015625 66.09765625 C-214.84488238 65.22235924 -213.5973058 64.62456055 -211.5 61.375 C-210.95528761 58.2927343 -210.93990704 55.24933361 -210.9375 52.125 C-210.88960237 43.40763141 -209.73311763 36.57805082 -204.125 29.625 C-203.27808594 28.54992188 -203.27808594 28.54992188 -202.4140625 27.453125 C-196.06975723 20.56502213 -186.84318579 16.46116195 -177.6484375 14.88671875 C-171.10496646 14.68937597 -163.50068148 15.69540312 -158.4921875 20.16796875 C-156.6875 22.125 -156.6875 22.125 -155.16796875 24.046875 C-153.52675432 25.64266937 -153.52675432 25.64266937 -150.98046875 25.33203125 C-147.93213488 24.15590243 -147.24692378 23.1100786 -145.625 20.3125 C-141.13939192 13.12183055 -136.42752838 7.56508969 -129.1953125 3.06640625 C-127.12196942 1.76530835 -125.12038251 0.42980296 -123.1171875 -0.97265625 C-85.76611739 -26.99077303 -37.2010443 -27.55802176 0 0 Z " fill="#BCD8E5" transform="translate(286.5,25.625)"/>
<path d="M0 0 C1.32 0.33 2.64 0.66 4 1 C4.495 5.95 4.495 5.95 5 11 C5.99 10.01 6.98 9.02 8 8 C10.1875 8.3125 10.1875 8.3125 12 9 C11.875 10.6875 11.875 10.6875 11 13 C9.989375 13.763125 8.97875 14.52625 7.9375 15.3125 C4.59387919 17.77060447 4.59387919 17.77060447 4.625 21.8125 C4.74875 22.864375 4.8725 23.91625 5 25 C5.7425 24.154375 6.485 23.30875 7.25 22.4375 C8.1575 21.633125 9.065 20.82875 10 20 C12.3125 20.1875 12.3125 20.1875 14 21 C13.45987868 24.83992504 11.92824003 26.14147298 9 28.5625 C5.44666642 31.91913118 4.40165769 34.12362456 4 39 C3.96377667 40.66627298 3.95100158 42.33405374 4 44 C10.26814404 41.2873264 10.26814404 41.2873264 14.375 36.1875 C14.58125 35.135625 14.7875 34.08375 15 33 C15.51970275 31.53369582 16.06226087 30.07533222 16.625 28.625 C17.07875 27.42875 17.5325 26.2325 18 25 C19.32 25.33 20.64 25.66 22 26 C21.34 28.97 20.68 31.94 20 35 C20.78375 34.505 21.5675 34.01 22.375 33.5 C25 32 25 32 27 32 C27.07347656 31.07767578 27.07347656 31.07767578 27.1484375 30.13671875 C27.22320312 29.32847656 27.29796875 28.52023438 27.375 27.6875 C27.44460938 26.88699219 27.51421875 26.08648437 27.5859375 25.26171875 C28 23 28 23 30 20 C31.485 20.495 31.485 20.495 33 21 C33.495 23.97 33.495 23.97 34 27 C35.0725 26.319375 36.145 25.63875 37.25 24.9375 C40.66157733 22.96528998 40.66157733 22.96528998 43.4375 23.25 C43.953125 23.4975 44.46875 23.745 45 24 C44.9375 25.75 44.9375 25.75 44 28 C41.75835678 29.59501537 39.46433357 30.74543018 37 32 C38.32 32.99 39.64 33.98 41 35 C40.67 36.32 40.34 37.64 40 39 C39.09636719 38.90460938 38.19273437 38.80921875 37.26171875 38.7109375 C36.08222656 38.60007813 34.90273438 38.48921875 33.6875 38.375 C32.51574219 38.25898438 31.34398437 38.14296875 30.13671875 38.0234375 C26.83408833 37.70551218 26.83408833 37.70551218 24 40 C26.31 40.66 28.62 41.32 31 42 C31.495 43.98 31.495 43.98 32 46 C27.90139765 47.14672087 25.58895604 46.74929209 21.625 45.3125 C17.68951782 44.07778439 17.68951782 44.07778439 13.73046875 44.6875 C11.59280172 45.88542849 11.59280172 45.88542849 9 48 C9 48.66 9 49.32 9 50 C11.34074985 52.10667487 13.13904044 52.99854568 16.3125 53.00390625 C18.89270772 52.74824542 21.43864104 52.40170381 24 52 C25.37497031 51.81228242 26.74996601 51.62475056 28.125 51.4375 C29.07375 51.293125 30.0225 51.14875 31 51 C31.495 52.98 31.495 52.98 32 55 C28.62902617 56.49821059 26.79557881 57 23 57 C23 57.66 23 58.32 23 59 C27.16849129 61.08811252 29.77846452 61.02184218 34.3125 60.125 C35.38113281 59.92132813 36.44976562 59.71765625 37.55078125 59.5078125 C38.76314453 59.25644531 38.76314453 59.25644531 40 59 C40.495 60.98 40.495 60.98 41 63 C39.35 63.66 37.7 64.32 36 65 C38.97 66.98 41.94 68.96 45 71 C44.505 72.98 44.505 72.98 44 75 C40.13275596 74.46288277 38.03438225 73.40657902 35 71 C34.34 71 33.68 71 33 71 C33 72.98 33 74.96 33 77 C31.68 77 30.36 77 29 77 C28.85304688 76.24074219 28.70609375 75.48148437 28.5546875 74.69921875 C27.29454546 68.25436607 27.29454546 68.25436607 22.8125 63.8125 C21.884375 63.544375 20.95625 63.27625 20 63 C20.350625 63.721875 20.70125 64.44375 21.0625 65.1875 C22.10409017 68.3122705 21.89096572 69.88161996 21 73 C19.68 72.67 18.36 72.34 17 72 C16.79697266 70.78763672 16.79697266 70.78763672 16.58984375 69.55078125 C15.27408083 62.18909284 15.27408083 62.18909284 10.5 56.8125 C7.15518639 54.96536904 7.15518639 54.96536904 4 54 C3.75661203 59.20850254 3.71888197 63.42177668 7.10546875 67.59375 C8.74715929 69.12090399 10.43287576 70.60244389 12.1640625 72.02734375 C12.76992188 72.67832031 13.37578125 73.32929688 14 74 C13.7734375 76.25390625 13.7734375 76.25390625 13 78 C9.20411134 77.45773019 7.52788007 75.79872437 5 73 C4.41338532 76.24606681 4.41338532 76.24606681 5 80 C7.06581634 82.38682039 9.41608882 84.20049043 12 86 C11.505 87.98 11.505 87.98 11 90 C8.13275314 89.42655063 7.1385485 89.1385485 5 87 C4.67 90.63 4.34 94.26 4 98 C2.35 97.67 0.7 97.34 -1 97 C-1.33 93.7 -1.66 90.4 -2 87 C-2.99 87.99 -3.98 88.98 -5 90 C-5.99 89.67 -6.98 89.34 -8 89 C-7.8125 86.75 -7.8125 86.75 -7 84 C-6.154375 83.38125 -5.30875 82.7625 -4.4375 82.125 C-1.57201691 80.12496076 -1.57201691 80.12496076 -1.6875 76.25 C-1.790625 75.1775 -1.89375 74.105 -2 73 C-3.11375 74.2684375 -3.11375 74.2684375 -4.25 75.5625 C-5.1575 76.366875 -6.065 77.17125 -7 78 C-9.3125 77.8125 -9.3125 77.8125 -11 77 C-10.45987868 73.16007496 -8.92824003 71.85852702 -6 69.4375 C-2.44666642 66.08086882 -1.40165769 63.87637544 -1 59 C-0.96377667 57.33372702 -0.95100158 55.66594626 -1 54 C-4.45053077 55.20178743 -7.23950726 56.58397083 -10 59 C-11.43231253 62.39188213 -12.28825509 65.63557431 -13.05078125 69.234375 C-13.36402344 70.14703125 -13.67726563 71.0596875 -14 72 C-16.10546875 72.890625 -16.10546875 72.890625 -18 73 C-19.46726798 69.18510326 -18.43336419 66.70988378 -17 63 C-19.52332152 63.82149005 -19.52332152 63.82149005 -22 66 C-23.34185155 69.25503832 -24.20924603 72.57339945 -25 76 C-27.475 76.495 -27.475 76.495 -30 77 C-30 75.02 -30 73.04 -30 71 C-30.81404297 71.45052734 -30.81404297 71.45052734 -31.64453125 71.91015625 C-32.35996094 72.29042969 -33.07539063 72.67070312 -33.8125 73.0625 C-34.52019531 73.44535156 -35.22789062 73.82820313 -35.95703125 74.22265625 C-38 75 -38 75 -41 74 C-41 72.68 -41 71.36 -41 70 C-39.25 68.515625 -39.25 68.515625 -37 67.25 C-36.2575 66.82203125 -35.515 66.3940625 -34.75 65.953125 C-34.1725 65.63859375 -33.595 65.3240625 -33 65 C-34.65 64.34 -36.3 63.68 -38 63 C-37.67 61.68 -37.34 60.36 -37 59 C-36.18015625 59.16757813 -35.3603125 59.33515625 -34.515625 59.5078125 C-33.43796875 59.71148437 -32.3603125 59.91515625 -31.25 60.125 C-30.18265625 60.33382812 -29.1153125 60.54265625 -28.015625 60.7578125 C-24.7080264 61.2851632 -24.7080264 61.2851632 -21 59 C-23.64 57.68 -26.28 56.36 -29 55 C-28.67 53.68 -28.34 52.36 -28 51 C-27.35933594 51.144375 -26.71867187 51.28875 -26.05859375 51.4375 C-16.95860239 53.65752952 -16.95860239 53.65752952 -8.1875 51.5 C-7.1046875 50.7575 -7.1046875 50.7575 -6 50 C-5.34 50 -4.68 50 -4 50 C-4 49.34 -4 48.68 -4 48 C-4.721875 47.71125 -5.44375 47.4225 -6.1875 47.125 C-9 46 -9 46 -11.1875 44.6875 C-15.11038435 43.72857271 -17.7821965 44.9827265 -21.5 46.37109375 C-24.3628751 47.09128577 -26.17988868 46.7704947 -29 46 C-29 45.01 -29 44.02 -29 43 C-26.36 41.68 -23.72 40.36 -21 39 C-25.46664695 36.76667652 -26.54035147 36.95354703 -31.25 37.875 C-32.32765625 38.07867187 -33.4053125 38.28234375 -34.515625 38.4921875 C-35.74539063 38.74355469 -35.74539063 38.74355469 -37 39 C-37.33 37.68 -37.66 36.36 -38 35 C-36.35 34.34 -34.7 33.68 -33 33 C-35.55991624 30.98863724 -38.04590299 29.37154504 -41 28 C-41 26.35 -41 24.7 -41 23 C-36.24518354 23.57634139 -33.02951788 25.55068521 -29 28 C-29.33 25.69 -29.66 23.38 -30 21 C-28.35 21.33 -26.7 21.66 -25 22 C-24.76216797 23.03060547 -24.76216797 23.03060547 -24.51953125 24.08203125 C-23.16186242 29.85411151 -23.16186242 29.85411151 -19.3125 34.125 C-18.549375 34.41375 -17.78625 34.7025 -17 35 C-17.66 32.03 -18.32 29.06 -19 26 C-17.35 25.67 -15.7 25.34 -14 25 C-13.81566406 25.95261719 -13.63132812 26.90523437 -13.44140625 27.88671875 C-11.9724875 35.17852314 -11.9724875 35.17852314 -7.73046875 41.04296875 C-5.51477196 42.23281537 -3.38706805 43.2145118 -1 44 C-0.65889481 36.18505178 -0.65889481 36.18505178 -4.0703125 29.421875 C-6.3070699 27.47260053 -8.55523126 25.6792351 -11 24 C-10.67 22.68 -10.34 21.36 -10 20 C-6.20411134 20.54226981 -4.52788007 22.20127563 -2 25 C-1.49716379 21.75290207 -1.49716379 21.75290207 -2 18 C-3.42337877 16.23118135 -4.91940403 14.87723797 -6.6875 13.45703125 C-8 12 -8 12 -8 8 C-5.13275314 8.57344937 -4.1385485 8.8614515 -2 11 C-1.90912109 9.93458984 -1.90912109 9.93458984 -1.81640625 8.84765625 C-1.73261719 7.92855469 -1.64882813 7.00945312 -1.5625 6.0625 C-1.48128906 5.14597656 -1.40007812 4.22945312 -1.31640625 3.28515625 C-1 1 -1 1 0 0 Z " fill="#3898D4" transform="translate(406,178)"/>
<path d="M0 0 C2.475 0.495 2.475 0.495 5 1 C5.495 5.95 5.495 5.95 6 11 C6.99 10.01 7.98 9.02 9 8 C9.99 8.33 10.98 8.66 12 9 C11.6389142 12.24977216 10.943007 13.05143271 8.4375 15.3125 C5.62108629 17.86955968 5.62108629 17.86955968 5.6875 21.8125 C5.8421875 23.3903125 5.8421875 23.3903125 6 25 C6.7425 24.154375 7.485 23.30875 8.25 22.4375 C9.1575 21.633125 10.065 20.82875 11 20 C13.3125 20.1875 13.3125 20.1875 15 21 C14.63089578 23.67600563 14.305434 24.74722703 12.1875 26.5 C11.465625 26.995 10.74375 27.49 10 28 C7.14043873 30.33360625 6.12331982 31.48680969 5.25 35.12109375 C5.02540037 38.10054815 4.92154921 41.01396672 5 44 C8.45053077 42.79821257 11.23950726 41.41602917 14 39 C15.43231253 35.60811787 16.28825509 32.36442569 17.05078125 28.765625 C17.36402344 27.85296875 17.67726562 26.9403125 18 26 C19.32 25.67 20.64 25.34 22 25 C22 27.97 22 30.94 22 34 C26.08817019 32.48841095 26.08817019 32.48841095 27.046875 29.6171875 C27.27890625 28.71226562 27.5109375 27.80734375 27.75 26.875 C27.99234375 25.96492188 28.2346875 25.05484375 28.484375 24.1171875 C28.65453125 23.41851562 28.8246875 22.71984375 29 22 C30.65 21.67 32.3 21.34 34 21 C33.67 23.31 33.34 25.62 33 28 C33.53109375 27.62746094 34.0621875 27.25492188 34.609375 26.87109375 C35.31578125 26.39800781 36.0221875 25.92492187 36.75 25.4375 C37.44609375 24.96183594 38.1421875 24.48617187 38.859375 23.99609375 C41 23 41 23 43.265625 23.34765625 C43.83796875 23.56292969 44.4103125 23.77820313 45 24 C45 25.32 45 26.64 45 28 C42.69 29.32 40.38 30.64 38 32 C39.32 32.99 40.64 33.98 42 35 C41.67 36.32 41.34 37.64 41 39 C40.19175781 38.82082031 39.38351563 38.64164063 38.55078125 38.45703125 C37.48214844 38.24433594 36.41351563 38.03164062 35.3125 37.8125 C33.72888672 37.48185547 33.72888672 37.48185547 32.11328125 37.14453125 C28.42849066 36.9734682 26.92430762 37.84610367 24 40 C26.64 40.66 29.28 41.32 32 42 C32 43.65 32 45.3 32 47 C24.60651629 46.2481203 24.60651629 46.2481203 21.25 44.875 C18.56096381 43.8292637 17.64493253 43.92549616 15 45 C13.32983484 45.99414593 11.66279327 46.9935725 10 48 C9.34 48 8.68 48 8 48 C8 48.66 8 49.32 8 50 C8.78375 50.309375 9.5675 50.61875 10.375 50.9375 C13 52 13 52 15 53 C20.694738 52.7952872 26.40376372 52.0587474 32 51 C31.67 52.65 31.34 54.3 31 56 C27.535 56.495 27.535 56.495 24 57 C25.69022623 59.04606333 26.83804192 59.94459329 29.375 60.8125 C32.04037981 61.19487048 32.04037981 61.19487048 34.5 60 C37.46325404 58.81469839 38.98215223 59.13775778 42 60 C42 60.99 42 61.98 42 63 C40.35 63.66 38.7 64.32 37 65 C39.64 66.98 42.28 68.96 45 71 C44.505 72.98 44.505 72.98 44 75 C39.80639551 74.32902328 36.59665648 72.1441606 33 70 C33.33 71.98 33.66 73.96 34 76 C32.68 76.33 31.36 76.66 30 77 C29.71125 76.113125 29.4225 75.22625 29.125 74.3125 C28.75375 73.219375 28.3825 72.12625 28 71 C27.5978125 69.6696875 27.5978125 69.6696875 27.1875 68.3125 C25.67233583 65.36191715 23.92068507 64.46034254 21 63 C21.495 64.485 21.495 64.485 22 66 C22.03954234 68.33299825 22.04401732 70.66708189 22 73 C20.68 73 19.36 73 18 73 C17.81566406 72.04738281 17.63132813 71.09476562 17.44140625 70.11328125 C15.9724875 62.82147686 15.9724875 62.82147686 11.73046875 56.95703125 C9.02019796 55.43380868 9.02019796 55.43380868 5 54 C5 57.96 5 61.92 5 66 C6.32 66.66 7.64 67.32 9 68 C10.73828125 69.3671875 10.73828125 69.3671875 12.3125 70.875 C12.84488281 71.36742187 13.37726563 71.85984375 13.92578125 72.3671875 C15 74 15 74 14.66796875 76.1953125 C14.33732422 77.08863281 14.33732422 77.08863281 14 78 C10.20411134 77.45773019 8.52788007 75.79872437 6 73 C5.49803706 76.28926495 5.49803706 76.28926495 6 80 C7.81188028 82.1403498 9.65801167 83.38988302 12 85 C11.67 86.65 11.34 88.3 11 90 C7.125 88.125 7.125 88.125 6 87 C5.67 90.3 5.34 93.6 5 97 C3.02 97.495 3.02 97.495 1 98 C-0.66342837 96.33657163 -0.36048097 94.2174291 -0.5625 91.9375 C-0.64628906 91.01839844 -0.73007813 90.09929687 -0.81640625 89.15234375 C-0.90728516 88.08693359 -0.90728516 88.08693359 -1 87 C-1.598125 87.515625 -2.19625 88.03125 -2.8125 88.5625 C-3.534375 89.036875 -4.25625 89.51125 -5 90 C-5.99 89.67 -6.98 89.34 -8 89 C-7.43261251 85.68787552 -6.55967832 84.32261629 -4 82.1875 C-0.70233578 79.10284279 -0.1817638 76.54409497 0 72 C-0.66 72 -1.32 72 -2 72 C-2.226875 72.61875 -2.45375 73.2375 -2.6875 73.875 C-4.37929835 76.61410209 -5.99244161 77.05024472 -9 78 C-9.7734375 76.25390625 -9.7734375 76.25390625 -10 74 C-8.1640625 72.02734375 -8.1640625 72.02734375 -5.625 69.9375 C-1.79250682 66.37239007 -0.35027575 64.18854891 0.0625 58.9375 C0.08281901 57.29166024 0.07683042 55.64417106 0 54 C-3.73262478 55.20452432 -6.90295952 56.56732466 -10 59 C-11.73160566 62.91697544 -12.35916996 66.78794236 -13 71 C-13.33 71.66 -13.66 72.32 -14 73 C-15.32 72.67 -16.64 72.34 -18 72 C-17.67 69.03 -17.34 66.06 -17 63 C-19.54055632 63.74606262 -19.54055632 63.74606262 -22 66 C-23.35625328 69.59195204 -24.21598324 73.24564331 -25 77 C-26.32 77 -27.64 77 -29 77 C-29.495 74.03 -29.495 74.03 -30 71 C-31.0725 71.680625 -32.145 72.36125 -33.25 73.0625 C-36.66157733 75.03471002 -36.66157733 75.03471002 -39.4375 74.75 C-40.2109375 74.37875 -40.2109375 74.37875 -41 74 C-40.9375 72.25 -40.9375 72.25 -40 70 C-37.75835678 68.40498463 -35.46433357 67.25456982 -33 66 C-33.66 65.5875 -34.32 65.175 -35 64.75 C-35.66 64.1725 -36.32 63.595 -37 63 C-37 61.68 -37 60.36 -37 59 C-36.01257813 59.09539062 -35.02515625 59.19078125 -34.0078125 59.2890625 C-32.72648437 59.39992187 -31.44515625 59.51078125 -30.125 59.625 C-28.84882812 59.74101562 -27.57265625 59.85703125 -26.2578125 59.9765625 C-24.64519531 59.98816406 -24.64519531 59.98816406 -23 60 C-22.34 59.34 -21.68 58.68 -21 58 C-23.31 57.01 -25.62 56.02 -28 55 C-27.67 53.68 -27.34 52.36 -27 51 C-21.51733833 51.84348641 -21.51733833 51.84348641 -18.84375 52.65234375 C-14.36258342 54.00460032 -14.36258342 54.00460032 -9.8671875 53.23828125 C-7.71493797 52.04066567 -7.71493797 52.04066567 -5 50 C-5 49.34 -5 48.68 -5 48 C-9.32144192 44.74473017 -9.32144192 44.74473017 -14.515625 44.14453125 C-17.04526908 44.67090928 -19.51115719 45.30776559 -22 46 C-23.66421622 46.34535963 -25.3303195 46.68210709 -27 47 C-27.33 45.68 -27.66 44.36 -28 43 C-25.69 42.01 -23.38 41.02 -21 40 C-22.09219149 38.32092779 -22.09219149 38.32092779 -24 37 C-26.99639569 37.07457992 -26.99639569 37.07457992 -30.1875 37.8125 C-31.27417969 38.02519531 -32.36085938 38.23789063 -33.48046875 38.45703125 C-34.31191406 38.63621094 -35.14335938 38.81539062 -36 39 C-36.33 37.68 -36.66 36.36 -37 35 C-35.68 34.01 -34.36 33.02 -33 32 C-33.86625 31.51080078 -33.86625 31.51080078 -34.75 31.01171875 C-35.4925 30.57472656 -36.235 30.13773438 -37 29.6875 C-37.7425 29.25824219 -38.485 28.82898438 -39.25 28.38671875 C-39.8275 27.92910156 -40.405 27.47148437 -41 27 C-41 26.01 -41 25.02 -41 24 C-39.4375 23.25 -39.4375 23.25 -37 23 C-34.49713591 24.13084437 -32.32992278 25.52139516 -30 27 C-29.67 25.02 -29.34 23.04 -29 21 C-27.68 21 -26.36 21 -25 21 C-23 28.625 -23 28.625 -23 32 C-20.09123087 33.390117 -20.09123087 33.390117 -17 34 C-17.33 31.36 -17.66 28.72 -18 26 C-16.68 25.67 -15.36 25.34 -14 25 C-13.54625 26.19625 -13.0925 27.3925 -12.625 28.625 C-12.34140625 29.35589844 -12.0578125 30.08679688 -11.765625 30.83984375 C-11 33 -11 33 -10.375 36.1875 C-8.2286299 40.57780249 -4.30765819 41.99685031 0 44 C0.24338797 38.79149746 0.28111803 34.57822332 -3.10546875 30.40625 C-4.74715929 28.87909601 -6.43287576 27.39755611 -8.1640625 25.97265625 C-8.76992188 25.32167969 -9.37578125 24.67070312 -10 24 C-9.7734375 21.74609375 -9.7734375 21.74609375 -9 20 C-5.20411134 20.54226981 -3.52788007 22.20127563 -1 25 C-0.41338532 21.75393319 -0.41338532 21.75393319 -1 18 C-3.06581634 15.61317961 -5.41608882 13.79950957 -8 12 C-7.67 10.68 -7.34 9.36 -7 8 C-4.13275314 8.57344937 -3.1385485 8.8614515 -1 11 C-0.67 7.37 -0.34 3.74 0 0 Z " fill="#3897D4" transform="translate(68,178)"/>
<path d="M0 0 C2.475 0.495 2.475 0.495 5 1 C5 4.3 5 7.6 5 11 C6.32 10.01 7.64 9.02 9 8 C9.99 8.33 10.98 8.66 12 9 C11.64338234 12.20955896 10.94120732 13.05438323 8.5 15.3125 C5.47596891 18.56333342 5.25606133 20.64695743 5 25 C6.3921875 23.7625 6.3921875 23.7625 7.8125 22.5 C10.625 20 10.625 20 14 20 C13.9375 22.0625 13.9375 22.0625 13 25 C11.8406736 26.07293429 10.64899965 27.11134606 9.4375 28.125 C6.93500657 30.42831538 6.08103625 31.49111984 5.5390625 34.89453125 C5.56011298 37.62758497 5.69072861 40.2852845 6 43 C9.49582938 41.95125118 11.32361157 41.38014697 14 39 C15.92078938 34.43020988 17.01187886 29.86259612 18 25 C19.32 25 20.64 25 22 25 C22 27.97 22 30.94 22 34 C26.10671804 32.50777727 26.10671804 32.50777727 26.90625 29.65234375 C27.3026269 27.83996254 27.69845878 26.02746206 28.09375 24.21484375 C28.3928125 23.48394531 28.691875 22.75304687 29 22 C31.09375 21.19140625 31.09375 21.19140625 33 21 C33.93423645 24.01031744 34.04449911 24.86650268 33 28 C33.53109375 27.62746094 34.0621875 27.25492187 34.609375 26.87109375 C35.31578125 26.39800781 36.0221875 25.92492187 36.75 25.4375 C37.44609375 24.96183594 38.1421875 24.48617188 38.859375 23.99609375 C41 23 41 23 43.265625 23.34765625 C43.83796875 23.56292969 44.4103125 23.77820313 45 24 C44.9375 25.75 44.9375 25.75 44 28 C41.75835678 29.59501537 39.46433357 30.74543018 37 32 C37.639375 32.2475 38.27875 32.495 38.9375 32.75 C41 34 41 34 41.75 36.125 C41.8325 36.74375 41.915 37.3625 42 38 C38.77818951 38.94759132 37.27645073 39.09999282 34.0625 37.9375 C30.2837805 36.78074913 28.55487996 37.42923909 25 39 C24.67 39.33 24.34 39.66 24 40 C26.31 40.66 28.62 41.32 31 42 C31.495 43.98 31.495 43.98 32 46 C29.32997107 47.33501447 28.0153982 46.75111 25.125 46.125 C24.26132812 45.94195312 23.39765625 45.75890625 22.5078125 45.5703125 C20 45 20 45 17.91015625 44.31640625 C14.29478684 43.71754138 11.93629823 46.06093513 9 48 C8.505 48.99 8.505 48.99 8 50 C8.78375 50.309375 9.5675 50.61875 10.375 50.9375 C13 52 13 52 15 53 C16.98147958 52.93742285 16.98147958 52.93742285 19.1875 52.625 C20.38246094 52.47611328 20.38246094 52.47611328 21.6015625 52.32421875 C24.73740224 51.90031859 27.87012057 51.46615226 31 51 C31.495 52.98 31.495 52.98 32 55 C28.77208445 57.1519437 27.71599191 57.20086443 24 57 C25.38893869 59.31083369 25.38893869 59.31083369 28 61 C30.37084769 60.75672272 32.5126781 60.16628638 34.8046875 59.51953125 C37.46097002 58.89090923 39.41484667 59.16607957 42 60 C42 60.99 42 61.98 42 63 C40 64.6875 40 64.6875 38 66 C40.31 67.65 42.62 69.3 45 71 C44.505 72.98 44.505 72.98 44 75 C39.80639551 74.32902328 36.59665648 72.1441606 33 70 C33.33 71.98 33.66 73.96 34 76 C32.68 76.33 31.36 76.66 30 77 C29.52014033 75.72942818 29.0411407 74.45853152 28.5625 73.1875 C28.29566406 72.47980469 28.02882813 71.77210938 27.75390625 71.04296875 C27.13774814 69.37327604 26.56280765 67.68842296 26 66 C23.50240018 64.30117552 23.50240018 64.30117552 21 63 C21.495 64.485 21.495 64.485 22 66 C22.03954234 68.33299825 22.04401732 70.66708189 22 73 C20.10546875 72.890625 20.10546875 72.890625 18 72 C17.05078125 69.234375 17.05078125 69.234375 16.3125 65.75 C15.0093933 60.79492211 15.0093933 60.79492211 11.74609375 57.02734375 C9.52763605 55.83652843 7.37619617 54.82760679 5 54 C4.69371143 61.65960772 4.69371143 61.65960772 7.84765625 68.35546875 C9.83065849 70.0516876 11.81002727 71.58325227 14 73 C13.67 74.65 13.34 76.3 13 78 C10.11562221 76.70700306 8.12780579 75.34058637 6 73 C5.49716379 76.24709793 5.49716379 76.24709793 6 80 C7.45995527 81.7677521 8.98517738 83.12665885 10.78515625 84.54296875 C11.18605469 85.02378906 11.58695312 85.50460937 12 86 C11.68359375 88.17578125 11.68359375 88.17578125 11 90 C9 89 7 88 5 87 C5 90.3 5 93.6 5 97 C2.525 97.495 2.525 97.495 0 98 C0 94.04 0 90.08 0 86 C-0.66 86 -1.32 86 -2 86 C-2 86.66 -2 87.32 -2 88 C-4.475 88.99 -4.475 88.99 -7 90 C-7.71484375 88.20703125 -7.71484375 88.20703125 -8 86 C-6.56640625 84.32421875 -6.56640625 84.32421875 -4.5625 82.6875 C-1.48834024 79.86952022 -1.04904962 79.44144654 -0.5625 75.0625 C-0.706875 74.051875 -0.85125 73.04125 -1 72 C-2.98 73.98 -4.96 75.96 -7 78 C-7.99 77.67 -8.98 77.34 -10 77 C-9.67241206 73.9800487 -9.4888023 72.44034345 -7.1875 70.3671875 C-6.465625 69.87476563 -5.74375 69.38234375 -5 68.875 C-2.25073845 66.66086257 -1.14541091 65.56119524 -0.25 62.10546875 C-0.02624967 59.38200767 0.07900341 56.73055552 0 54 C-3.78680489 55.15806604 -6.91578811 56.48693846 -10 59 C-11.75469181 63.25036785 -12.47981565 67.44505241 -13 72 C-15.475 72.495 -15.475 72.495 -18 73 C-18 70.03 -18 67.06 -18 64 C-22.10671804 65.49222273 -22.10671804 65.49222273 -22.90625 68.34765625 C-23.3026269 70.16003746 -23.69845878 71.97253794 -24.09375 73.78515625 C-24.3928125 74.51605469 -24.691875 75.24695313 -25 76 C-27.09375 76.80859375 -27.09375 76.80859375 -29 77 C-29.5534764 74.92446352 -30 73.15634036 -30 71 C-31.0725 71.680625 -32.145 72.36125 -33.25 73.0625 C-36.66157733 75.03471002 -36.66157733 75.03471002 -39.4375 74.75 C-40.2109375 74.37875 -40.2109375 74.37875 -41 74 C-40.9375 72.25 -40.9375 72.25 -40 70 C-37.75835678 68.40498463 -35.46433357 67.25456982 -33 66 C-34.65 64.68 -36.3 63.36 -38 62 C-37.67 61.01 -37.34 60.02 -37 59 C-30.29927007 59.91970803 -30.29927007 59.91970803 -27.4375 60.6875 C-24.21495397 61.10064693 -21.98429466 60.17983742 -19 59 C-19 58.34 -19 57.68 -19 57 C-21.64 56.67 -24.28 56.34 -27 56 C-27.33 54.68 -27.66 53.36 -28 52 C-25 51 -25 51 -21.75 51.9375 C-16.73783645 53.35761301 -12.88832187 54.007105 -8.1875 51.5 C-7.1046875 50.7575 -7.1046875 50.7575 -6 50 C-5.34 50 -4.68 50 -4 50 C-6.4351553 47.30851256 -8.6138836 45.36885557 -12 44 C-15.42723623 44.32183273 -18.67161607 45.14710162 -22 46 C-23.66486424 46.34222209 -25.33108028 46.67813691 -27 47 C-27.33 45.68 -27.66 44.36 -28 43 C-25.08235 41.0549 -23.37462715 40.54723683 -20 40 C-21.5787681 38.2910871 -21.5787681 38.2910871 -24 37 C-27.43793339 37.18129815 -27.43793339 37.18129815 -31 38 C-32.134375 38.185625 -33.26875 38.37125 -34.4375 38.5625 C-35.283125 38.706875 -36.12875 38.85125 -37 39 C-36.6875 36.625 -36.6875 36.625 -36 34 C-35.01 33.34 -34.02 32.68 -33 32 C-35.64 30.35 -38.28 28.7 -41 27 C-40.67 25.68 -40.34 24.36 -40 23 C-36.04179141 23.56545837 -33.3340947 24.80902348 -30 27 C-30 25.35 -30 23.7 -30 22 C-28.68 21.67 -27.36 21.34 -26 21 C-23.43383368 24.84924948 -23.44902324 27.4349304 -23 32 C-21.35 32.66 -19.7 33.32 -18 34 C-18 31.03 -18 28.06 -18 25 C-16.35 25.33 -14.7 25.66 -13 26 C-12.84917969 27.32064453 -12.84917969 27.32064453 -12.6953125 28.66796875 C-11.74642017 35.65248687 -11.74642017 35.65248687 -7.57421875 40.9765625 C-5.07693822 42.18458222 -2.65127316 43.18919789 0 44 C0.24338797 38.79149746 0.28111803 34.57822332 -3.10546875 30.40625 C-4.74715929 28.87909601 -6.43287576 27.39755611 -8.1640625 25.97265625 C-8.76992188 25.32167969 -9.37578125 24.67070312 -10 24 C-9.7734375 21.74609375 -9.7734375 21.74609375 -9 20 C-6.50638429 21.20381448 -4.31856917 22.45428722 -2 24 C-2 24.66 -2 25.32 -2 26 C-1.34 26 -0.68 26 0 26 C-0.09485415 21.11569709 -0.09485415 21.11569709 -2.66015625 17.1171875 C-3.94468352 15.93736325 -5.25820811 14.78816364 -6.6015625 13.67578125 C-7.06304687 13.12277344 -7.52453125 12.56976563 -8 12 C-7.7109375 9.79296875 -7.7109375 9.79296875 -7 8 C-4.525 8.99 -4.525 8.99 -2 10 C-2 10.66 -2 11.32 -2 12 C-1.34 12 -0.68 12 0 12 C0 8.04 0 4.08 0 0 Z " fill="#3998D5" transform="translate(289,243)"/>
<path d="M0 0 C0.99 0 1.98 0 3 0 C3 3.63 3 7.26 3 11 C3.66 11 4.32 11 5 11 C5.268125 10.401875 5.53625 9.80375 5.8125 9.1875 C7.02493496 6.95406717 7.94652273 5.50061801 10 4 C12.1875 4.3125 12.1875 4.3125 14 5 C12.56799748 8.45629928 10.87443381 9.94349068 7.9375 12.1875 C3.51589389 16.36923598 3.20660075 20.19661494 3 26 C2.9422043 28.67325831 2.95137187 31.32545271 3 34 C12.64071914 30.13772472 12.64071914 30.13772472 18.8203125 22.3515625 C19.76548269 18.89994098 20.51224342 15.5437009 21 12 C22.32 11.67 23.64 11.34 25 11 C24.67 14.63 24.34 18.26 24 22 C24.9075 21.34 25.815 20.68 26.75 20 C30 18 30 18 34 18 C34 19.32 34 20.64 34 22 C30.535 23.98 30.535 23.98 27 26 C31.455 27.98 31.455 27.98 36 30 C36 30.99 36 31.98 36 33 C32.5053596 33.17047026 29.93039321 32.97848517 26.5625 31.9375 C21.78335868 30.67983123 18.24898202 30.7569263 13.8515625 33.1875 C12.44973817 34.07818982 11.06398822 34.99491583 9.69921875 35.94140625 C8 37 8 37 6 37 C6 37.66 6 38.32 6 39 C6.680625 39.2475 7.36125 39.495 8.0625 39.75 C11 41 11 41 14.25 43.1875 C18.6199542 45.73191056 22.21330191 45.00814371 27 44 C27.84949219 43.82597656 28.69898438 43.65195312 29.57421875 43.47265625 C31.72421534 43.0102551 33.86338257 42.52026382 36 42 C36 43.32 36 44.64 36 46 C33.03 46.99 30.06 47.98 27 49 C30.32086771 51.77000825 30.32086771 51.77000825 34 54 C34 55.32 34 56.64 34 58 C30.04179141 57.43454163 27.3340947 56.19097652 24 54 C24.495 59.445 24.495 59.445 25 65 C23.68 64.67 22.36 64.34 21 64 C20.87367188 63.0821875 20.74734375 62.164375 20.6171875 61.21875 C19.06127235 53.06121351 19.06127235 53.06121351 13.6171875 47.2890625 C10.1978559 45.25305772 6.65287333 43.5724936 3 42 C2.40390325 52.14985809 2.40390325 52.14985809 6.328125 61.1484375 C9.06509349 63.76310165 9.06509349 63.76310165 11.9453125 65.984375 C12.62335938 66.64953125 13.30140625 67.3146875 14 68 C13.8046875 70.265625 13.8046875 70.265625 13 72 C9.18315774 70.44499019 6.80804268 67.96404505 4 65 C3.67 68.3 3.34 71.6 3 75 C1.68 75 0.36 75 -1 75 C-1.495 70.545 -1.495 70.545 -2 66 C-3.093125 67.010625 -4.18625 68.02125 -5.3125 69.0625 C-7.17578125 70.78515625 -7.17578125 70.78515625 -9 72 C-10.485 71.505 -10.485 71.505 -12 71 C-10.56799748 67.54370072 -8.87443381 66.05650932 -5.9375 63.8125 C-1.51589389 59.63076402 -1.20660075 55.80338506 -1 50 C-0.9422043 47.32674169 -0.95137187 44.67454729 -1 42 C-10.64071914 45.86227528 -10.64071914 45.86227528 -16.8203125 53.6484375 C-17.76548269 57.10005902 -18.51224342 60.4562991 -19 64 C-20.98 64.495 -20.98 64.495 -23 65 C-22.67 61.37 -22.34 57.74 -22 54 C-22.9075 54.680625 -23.815 55.36125 -24.75 56.0625 C-28 58 -28 58 -30.375 57.75 C-30.91125 57.5025 -31.4475 57.255 -32 57 C-32 56.01 -32 55.02 -32 54 C-29.69 52.68 -27.38 51.36 -25 50 C-27.98646769 48.00902154 -30.59687262 47.05875074 -34 46 C-33.67 44.68 -33.34 43.36 -33 42 C-32.21496094 42.22816406 -31.42992187 42.45632813 -30.62109375 42.69140625 C-21.11433547 45.44578018 -21.11433547 45.44578018 -11.87109375 42.80859375 C-10.46054116 41.92289794 -9.06786063 41.00776975 -7.69921875 40.05859375 C-6 39 -6 39 -4 39 C-8.00849221 34.66064812 -13.24334387 31.38593186 -19.125 30.5625 C-22.52262434 31.07952979 -25.70227855 32.04066285 -29 33 C-31.9375 33.125 -31.9375 33.125 -34 33 C-33.78515625 31.109375 -33.78515625 31.109375 -33 29 C-30.93359375 27.953125 -30.93359375 27.953125 -28.4375 27.25 C-27.19806641 26.88648438 -27.19806641 26.88648438 -25.93359375 26.515625 C-25.29550781 26.34546875 -24.65742188 26.1753125 -24 26 C-24.5775 25.67386719 -25.155 25.34773438 -25.75 25.01171875 C-26.4925 24.57472656 -27.235 24.13773437 -28 23.6875 C-28.7425 23.25824219 -29.485 22.82898438 -30.25 22.38671875 C-30.8275 21.92910156 -31.405 21.47148437 -32 21 C-32 20.01 -32 19.02 -32 18 C-27.6109185 18.51035831 -24.66291938 19.52214277 -21 22 C-21.495 20.39125 -21.495 20.39125 -22 18.75 C-23 15 -23 15 -23 11 C-21.68 11 -20.36 11 -19 11 C-18.491217 12.55966218 -17.99336531 14.12289241 -17.5 15.6875 C-17.2215625 16.55761719 -16.943125 17.42773438 -16.65625 18.32421875 C-16.00149195 20.99391677 -15.88168505 23.26396684 -16 26 C-15.360625 26.226875 -14.72125 26.45375 -14.0625 26.6875 C-9.86679739 28.48565826 -5.96099444 30.73904021 -2 33 C-0.71361326 22.88675224 -0.71361326 22.88675224 -4.2265625 13.7109375 C-6.71353469 11.28000976 -9.20960974 9.07286133 -12 7 C-11.67 6.01 -11.34 5.02 -11 4 C-6.75177626 4.47202486 -4.80010291 6.96655518 -2 10 C-1.90912109 9.04287109 -1.90912109 9.04287109 -1.81640625 8.06640625 C-1.73261719 7.24011719 -1.64882812 6.41382813 -1.5625 5.5625 C-1.48128906 4.73878906 -1.40007812 3.91507812 -1.31640625 3.06640625 C-1 1 -1 1 0 0 Z " fill="#3897D5" transform="translate(170,254)"/>
<path d="M0 0 C1.32 0.33 2.64 0.66 4 1 C4.495 4.465 4.495 4.465 5 8 C6.65 6.35 8.3 4.7 10 3 C10.99 3.33 11.98 3.66 13 4 C11.78125686 7.16873216 10.70709631 8.2271498 7.9375 10.375 C4.47844716 13.6068158 4.43575901 16.77391141 4.125 21.375 C4.05643907 23.58266203 4.00605128 25.79128191 4 28 C9.47793947 25.93160562 13.94700695 24.13897142 16.62109375 18.70703125 C17.58105148 15.48255786 18.38668909 12.30697244 19 9 C19.99 9 20.98 9 22 9 C21.67 11.97 21.34 14.94 21 18 C21.928125 17.484375 22.85625 16.96875 23.8125 16.4375 C27 15 27 15 30 16 C28.77065985 19.68802044 27.06140622 20.72356973 24 23 C26.64 23.99 29.28 24.98 32 26 C32 26.66 32 27.32 32 28 C27.91899754 28.17004177 25.0150506 28.05935705 21.1875 26.625 C18.20267083 25.75711254 17.17709481 25.92196681 14.26953125 27.203125 C11.76800503 28.71321417 9.36468029 30.28463765 7 32 C13.72985908 37.23197153 13.72985908 37.23197153 22 38 C25.02313244 37.42015329 28.01313417 36.74339772 31 36 C31 37.32 31 38.64 31 40 C28.36 40.33 25.72 40.66 23 41 C23 41.66 23 42.32 23 43 C23.78375 43.309375 24.5675 43.61875 25.375 43.9375 C28 45 28 45 30 46 C30 46.99 30 47.98 30 49 C26.26512223 48.5020163 24.18762365 48.12508244 21 46 C21.33 46.99 21.66 47.98 22 49 C22.03954234 51.33299825 22.04401732 53.66708189 22 56 C21.01 56 20.02 56 19 56 C18.49307308 54.4188708 17.99473557 52.83498617 17.5 51.25 C17.2215625 50.36828125 16.943125 49.4865625 16.65625 48.578125 C16 46 16 46 16 42 C15.319375 41.7525 14.63875 41.505 13.9375 41.25 C10.43134917 39.75802092 7.28379632 37.93164489 4 36 C3.6178581 44.76237991 3.6178581 44.76237991 6.84765625 52.60546875 C9.00987265 54.69655871 9.00987265 54.69655871 11.28515625 56.44921875 C11.85105469 56.96097656 12.41695312 57.47273438 13 58 C13 58.99 13 59.98 13 61 C9.31245243 60.50168276 7.39509338 59.89932357 5 57 C4.67 59.31 4.34 61.62 4 64 C2.68 64 1.36 64 0 64 C-0.33 61.36 -0.66 58.72 -1 56 C-1.763125 56.825 -2.52625 57.65 -3.3125 58.5 C-6 61 -6 61 -9 61 C-8.44415435 57.40244342 -7.34979971 56.2857088 -4.5 54.125 C-0.71219673 50.60056137 -0.39591536 47.64580182 -0.0625 42.5625 C-0.0100492 40.37552968 0.02123783 38.18749611 0 36 C-8.16384979 39.45174931 -8.16384979 39.45174931 -13.46484375 46.13671875 C-14.169805 49.1003618 -14.70145543 51.96977264 -15 55 C-16.32 55 -17.64 55 -19 55 C-18.34 52.03 -17.68 49.06 -17 46 C-17.7425 46.495 -18.485 46.99 -19.25 47.5 C-22 49 -22 49 -26 49 C-25.875 47.125 -25.875 47.125 -25 45 C-21.9375 43.75 -21.9375 43.75 -19 43 C-19 42.34 -19 41.68 -19 41 C-22.96 40.505 -22.96 40.505 -27 40 C-27 38.68 -27 37.36 -27 36 C-26.41992188 36.144375 -25.83984375 36.28875 -25.2421875 36.4375 C-17.29048215 38.65172372 -17.29048215 38.65172372 -9.6328125 36.65625 C-7.37157634 35.16284792 -5.17107243 33.62106742 -3 32 C-8.45919096 28.53384701 -12.34907396 26.28740078 -19 27 C-19.80308594 27.07992187 -20.60617188 27.15984375 -21.43359375 27.2421875 C-23.62668536 27.46799724 -25.81297212 27.72228217 -28 28 C-27.505 26.515 -27.505 26.515 -27 25 C-23.4375 23.3125 -23.4375 23.3125 -20 22 C-20.99 21.401875 -21.98 20.80375 -23 20.1875 C-24.485 19.1046875 -24.485 19.1046875 -26 18 C-26 17.01 -26 16.02 -26 15 C-23.07120629 15.62759865 -20.63904371 16.58622659 -18 18 C-18.33 15.36 -18.66 12.72 -19 10 C-17.68 10 -16.36 10 -15 10 C-14.82726562 10.79664063 -14.65453125 11.59328125 -14.4765625 12.4140625 C-12.81454799 18.68092455 -11.49566548 22.38072874 -5.75 25.75 C-4.18479243 26.53712751 -2.60649612 27.30099024 -1 28 C0.07325264 19.26734791 0.07325264 19.26734791 -2.78125 11.2890625 C-4.76726633 9.35199728 -6.74857026 7.61821513 -9 6 C-8.67 5.01 -8.34 4.02 -8 3 C-5.11562221 4.29299694 -3.12780579 5.65941363 -1 8 C-0.67 5.36 -0.34 2.72 0 0 Z " fill="#3B99D5" transform="translate(236,184)"/>
<path d="M0 0 C2.97 0.33 5.94 0.66 9 1 C9 3.31 9 5.62 9 8 C7.67968405 7.43457996 6.3688699 6.84693528 5.0625 6.25 C3.96615234 5.76273438 3.96615234 5.76273438 2.84765625 5.265625 C1 4 1 4 0 0 Z " fill="#F8FBFD" transform="translate(58,214)"/>
<path d="M0 0 C3.3 0 6.6 0 10 0 C6.98112756 3.48331435 4.43090471 4.79157144 0 6 C0 4.02 0 2.04 0 0 Z " fill="#F3F9FC" transform="translate(410,216)"/>
<path d="M0 0 C2.97 0 5.94 0 9 0 C9 1.98 9 3.96 9 6 C5.59687262 4.94124926 2.98646769 3.99097846 0 2 C0 1.34 0 0.68 0 0 Z " fill="#F6FAFD" transform="translate(396,216)"/>
<path d="M0 0 C2.97 0 5.94 0 9 0 C9 0.66 9 1.32 9 2 C2.25 6 2.25 6 0 6 C0 4.02 0 2.04 0 0 Z " fill="#F9FCFD" transform="translate(73,216)"/>
</svg>
