<?xml version="1.0" encoding="UTF-8"?>
<svg version="1.1" xmlns="http://www.w3.org/2000/svg" width="486" height="374">
<path d="M0 0 C6.49841944 4.75405928 11.15558484 9.95190554 15 17 C18.72656913 16.33769506 21.42316551 14.66013418 24.625 12.6875 C38.09785655 4.71143844 51.54252042 1.41808911 67.1875 1.5 C68.46181885 1.50572021 69.7361377 1.51144043 71.04907227 1.51733398 C81.16852458 1.70833985 89.6994065 3.06666549 99 7 C99.91990723 7.38551025 99.91990723 7.38551025 100.85839844 7.77880859 C109.00292167 11.2757586 115.69817021 15.75557701 122.37890625 21.47265625 C124.88276975 23.33876217 124.88276975 23.33876217 127.51953125 22.37890625 C128.74736328 21.69634766 128.74736328 21.69634766 130 21 C141.22684485 16.20848055 150.16330624 15.61113635 161.84765625 19.54296875 C169.71652682 23.18000558 176.53032913 30.00006018 180 38 C180.87898347 40.97645195 181.52453134 43.93429164 182 47 C182.57105469 47.01417969 183.14210938 47.02835938 183.73046875 47.04296875 C198.50199817 47.91188225 211.09456226 55.23282914 221.1875 65.7734375 C228.46502209 74.71349696 233.55036187 86.45928805 234 98 C234.0515625 98.9384375 234.103125 99.876875 234.15625 100.84375 C234.63330702 116.26859358 228.66418758 129.06726662 218.80078125 140.6953125 C217.14149072 142.81891643 216.11142172 144.6631472 215.0625 147.125 C210.5327856 156.80921698 200.49411549 161.3772454 191 165 C186.46446223 166.51388896 181.9927212 167.80661355 177.22265625 168.26953125 C169.73519272 169.0571326 166.78648234 171.72709987 161.77734375 177.203125 C148.11511688 190.96142941 128.94292951 198.06852114 109.76977539 198.38085938 C88.24059796 198.33632009 69.97811581 193.86136025 53 180 C51.02508111 178.62354138 49.01863413 177.31211218 47 176 C46.60276733 177.29587036 46.60276733 177.29587036 46.19750977 178.61791992 C45.00023162 181.99934583 43.54917913 184.96259223 41.83984375 188.11328125 C41.214729 189.27182617 40.58961426 190.43037109 39.94555664 191.62402344 C39.27625782 192.85354469 38.60690467 194.08303637 37.9375 195.3125 C37.25785674 196.56905189 36.57874119 197.82588935 35.90014648 199.08300781 C34.5570929 201.57068945 33.21222719 204.05737736 31.86621094 206.54345703 C29.40655969 211.09915331 26.97834311 215.67096015 24.5625 220.25 C23.386875 222.4775 22.21125 224.705 21 227 C32.55 227.33 44.1 227.66 56 228 C48.19401903 243.61196194 37.38886147 257.90230184 27.59521484 272.30029297 C21.1736343 281.74826867 14.79526465 291.19548397 8.8019104 300.92193604 C3.06807832 310.18783197 -3.06195365 319.19790225 -9.125 328.25 C-10.36089717 330.09881123 -11.59657524 331.94776894 -12.83203125 333.796875 C-15.17884214 337.30872753 -17.52680235 340.81980607 -19.87597656 344.33007812 C-23.59105863 349.88201027 -27.29743806 355.43971162 -31 361 C-32.24892049 357.25323853 -31.59123428 355.59883305 -30.59375 351.796875 C-30.10165039 349.88551758 -30.10165039 349.88551758 -29.59960938 347.93554688 C-29.42067139 347.25484131 -29.2417334 346.57413574 -29.05737305 345.87280273 C-28.10291944 342.23768486 -27.17655972 338.59543583 -26.25 334.953125 C-26.0590979 334.20442139 -25.8681958 333.45571777 -25.67150879 332.68432617 C-23.80527971 325.32024419 -22.1382309 317.91819651 -20.5 310.5 C-16.97128422 294.58326131 -13.00393054 278.80498898 -9 263 C-23.52 263 -38.04 263 -53 263 C-50.74987936 252.87445712 -50.74987936 252.87445712 -49.22827148 248.69555664 C-48.89129745 247.76171646 -48.55432343 246.82787628 -48.20713806 245.86573792 C-47.66954613 244.40272499 -47.66954613 244.40272499 -47.12109375 242.91015625 C-46.56289696 241.3715519 -46.56289696 241.3715519 -45.99342346 239.80186462 C-44.81332251 236.55348743 -43.62538549 233.30803741 -42.4375 230.0625 C-41.63558268 227.85629603 -40.83414559 225.64991744 -40.03320312 223.44335938 C-39.27125505 221.34880488 -38.5088998 219.25439844 -37.74609375 217.16015625 C-37.3856749 216.17064468 -37.02525604 215.18113312 -36.65391541 214.16163635 C-36.32009354 213.2498613 -35.98627167 212.33808624 -35.64233398 211.39868164 C-35.34858383 210.59531876 -35.05483368 209.79195587 -34.75218201 208.96424866 C-34 207 -34 207 -33 205 C-33.81726563 205.16242188 -34.63453125 205.32484375 -35.4765625 205.4921875 C-39.48425338 206.06979262 -43.33407536 206.14657077 -47.375 206.125 C-48.09171875 206.12886719 -48.8084375 206.13273438 -49.546875 206.13671875 C-53.21764433 206.13009281 -56.64998019 205.91958327 -60.26953125 205.29296875 C-63.900471 204.66551106 -63.900471 204.66551106 -66.36328125 206.29296875 C-67.00652344 206.91816406 -67.64976562 207.54335937 -68.3125 208.1875 C-77.07805393 215.79849223 -87.96239451 217.39126286 -99.23828125 217.2734375 C-112.17306659 216.33321427 -123.38554869 210.53474292 -131.875 200.8125 C-137.41834891 193.57728518 -142.06190116 185.3447302 -141 176 C-141.47308594 176.44730469 -141.94617188 176.89460937 -142.43359375 177.35546875 C-149.7079246 184.00588038 -156.2582606 188.65266554 -166.35546875 189.1328125 C-171.97633156 188.85052397 -175.65499548 187.16956915 -179.875 183.5 C-184 178.64705882 -184 178.64705882 -184 175 C-184.92941406 175.34933594 -185.85882813 175.69867188 -186.81640625 176.05859375 C-188.05261719 176.51363281 -189.28882813 176.96867188 -190.5625 177.4375 C-191.78066406 177.88996094 -192.99882812 178.34242188 -194.25390625 178.80859375 C-204.50038485 182.06737996 -215.04894042 182.21250925 -225 178 C-232.40153338 174.10509473 -238.6625782 168.67484361 -242.4375 161.125 C-244.03945334 152.22525924 -243.23537063 145.56644806 -238 138 C-230.20245811 129.11322277 -219.39640963 125.0553642 -208 123 C-206.68 123 -205.36 123 -204 123 C-204.28875 122.40574219 -204.5775 121.81148438 -204.875 121.19921875 C-208.12022719 113.95379832 -209.47175585 107.38192376 -207.33984375 99.5859375 C-204.26741389 91.84501031 -198.48379044 84.74189522 -191 81 C-187.74671971 80.20797103 -184.47828613 79.5322204 -181.19921875 78.85546875 C-177.46285452 77.85636769 -174.77644333 76.35907862 -171.68359375 74.0859375 C-169.81198708 72.87872949 -168.17294254 72.42793179 -166 72 C-165.88557217 75.20397919 -165.888661 77.0499001 -167 80 C-169.29161745 82.27412419 -171.74244483 84.08547561 -174.3515625 85.984375 C-179.62424684 89.99721441 -185.35183255 95.50051199 -186.3359375 102.33203125 C-186.42810794 108.18485409 -185.96268338 112.51187794 -182 117 C-178.89872735 119.70901682 -175.69007154 122.15496423 -172 124 C-172 124.66 -172 125.32 -172 126 C-173.21236328 126.56267578 -173.21236328 126.56267578 -174.44921875 127.13671875 C-183.72984457 131.32847776 -183.72984457 131.32847776 -190 139 C-190.3751455 143.97067782 -190.15878799 147.05151502 -187 151 C-183.71035814 153.14478853 -181.46735663 153.04805727 -177.625 152.6875 C-172.56260457 152.56632564 -172.56260457 152.56632564 -170.125 154.4453125 C-168.625 156.3125 -168.625 156.3125 -167.4140625 158.17578125 C-164.88126744 161.4432268 -162.1566479 162.82720334 -158.09765625 163.43359375 C-148.89446831 163.44543826 -145.11787228 161.12975604 -138.625 154.75 C-137.41166483 153.50485454 -136.20158929 152.25648423 -135 151 C-131.64636205 152.51804397 -128.96525763 154.49763468 -126.0625 156.75 C-112.84675985 166.48884744 -100.06481102 169.38887766 -84 168 C-80.55796044 167.17823066 -77.95130489 165.9239895 -75 164 C-74.24589844 163.54109375 -73.49179688 163.0821875 -72.71484375 162.609375 C-67.76802037 159.4711565 -63.36370107 155.89947755 -59 152 C-57.33984375 152.74869792 -55.6796875 153.49739583 -54.01953125 154.24609375 C-45.44025169 157.44880353 -32.49389959 157.58356154 -24.01171875 154.09375 C-15.44107947 149.43398496 -9.36284771 142.72569541 -5 134 C-4.34 134 -3.68 134 -3 134 C-1.66796875 135.42578125 -1.66796875 135.42578125 -0.1875 137.3125 C2.8399948 140.90765008 5.21734169 143.63277186 10.1015625 144.27734375 C15.11339399 144.48686848 18.78754336 143.93892324 23 141 C26.01555347 137.23055816 27.67827054 133.62605312 29 129 C29.66 129 30.32 129 31 129 C32.41015625 130.43359375 32.41015625 130.43359375 34.0625 132.4375 C48.36806199 149.11269496 66.3324648 162.72201066 88 168 C89.19625 168.391875 90.3925 168.78375 91.625 169.1875 C113.65825647 174.33299103 141.25080956 165.18537671 160.19921875 154.1640625 C161.9452426 153.12474704 161.9452426 153.12474704 163 152 C164.75854504 151.8662038 166.52204238 151.79646862 168.28515625 151.75390625 C169.37376953 151.72103516 170.46238281 151.68816406 171.58398438 151.65429688 C173.87556927 151.59382271 176.16723854 151.53645384 178.45898438 151.48242188 C187.70963207 151.19452738 194.95982091 149.80661016 203.25 145.625 C204.43078125 145.03976563 205.6115625 144.45453125 206.828125 143.8515625 C209.77184495 142.13318411 211.81836735 140.59793453 214 138 C214.83356413 135.54412036 214.83356413 135.54412036 214 133 C208.61907785 127.61907785 203.89123565 125.75835215 196.30981445 125.671875 C195.48570068 125.67703125 194.66158691 125.6821875 193.8125 125.6875 C192.54635864 125.68943359 192.54635864 125.68943359 191.25463867 125.69140625 C185.07689243 125.78656745 179.75289475 126.68573792 174 129 C174.04640625 127.81664062 174.0928125 126.63328125 174.140625 125.4140625 C174.55213259 110.68863763 171.8534427 101.41776663 162 90 C151.28481422 79.97008773 139.28154397 77.40090482 125.05859375 77.69140625 C110.70364065 78.33384705 97.76977027 85.23762469 87.97265625 95.5859375 C85.318924 98.83347519 83.20787366 102.26258899 81.19140625 105.93359375 C80 108 80 108 78 110 C77.6596875 109.49210937 77.319375 108.98421875 76.96875 108.4609375 C70.19292039 98.83781778 61.49414061 93.53958917 50 91 C34.1611456 89.88895996 34.1611456 89.88895996 19.8671875 95.60546875 C18 97 18 97 16 97 C15.87044922 96.1646875 15.87044922 96.1646875 15.73828125 95.3125 C14.49563814 88.56346584 12.39719389 82.48897624 6.69140625 78.30859375 C1.91260541 75.98508391 -2.82230793 76.16001954 -8 77 C-10.6609431 78.30522172 -12.83586245 79.75897545 -15.16015625 81.58984375 C-17 83 -17 83 -20 84 C-20.825 83.525625 -21.65 83.05125 -22.5 82.5625 C-27.28240683 80.42749695 -31.82898764 80.23225144 -37 81 C-39.78071768 82.42649533 -39.78071768 82.42649533 -42 84 C-42.20753906 82.99582031 -42.41507813 81.99164063 -42.62890625 80.95703125 C-45.74028626 66.8132887 -51.03881609 53.46744439 -63.25 44.8125 C-73.72294806 38.17371597 -84.89818559 35.05990558 -97.20703125 37.68359375 C-106.38659375 40.52348407 -114.53434531 44.87959874 -120 53 C-121.49700892 56.27963138 -122.7979526 59.60203362 -124 63 C-124.81791016 62.56880859 -124.81791016 62.56880859 -125.65234375 62.12890625 C-128.24190896 60.88367439 -130.85737074 59.90545782 -133.5625 58.9375 C-134.51253906 58.59589844 -135.46257812 58.25429687 -136.44140625 57.90234375 C-138.28828524 57.25100169 -140.1421282 56.6192906 -142 56 C-140.41712865 45.83724642 -132.96470877 38.09657072 -126 31 C-125.38511719 30.360625 -124.77023438 29.72125 -124.13671875 29.0625 C-112.50172113 17.90087487 -96.69628123 13.51140583 -80.93701172 13.57128906 C-70.20403868 13.89208093 -59.8768544 16.884644 -50 21 C-49.61328125 19.92878906 -49.61328125 19.92878906 -49.21875 18.8359375 C-44.65874942 8.22516692 -36.48742603 0.65074889 -26 -3.9375 C-16.63759645 -6.91474433 -8.38455504 -4.75014317 0 0 Z " fill="#CFE2F0" transform="translate(248,9)"/>
<path d="M0 0 C0.87398437 0.62648438 0.87398437 0.62648438 1.765625 1.265625 C3.2815625 2.3484375 3.2815625 2.3484375 4.828125 3.453125 C15.2515232 12.54527397 19.95442276 26.1695365 22.765625 39.265625 C23.58933594 38.53472656 23.58933594 38.53472656 24.4296875 37.7890625 C28.51351108 35.12569929 33.05381431 35.71853522 37.765625 36.265625 C39.78719204 37.22127488 41.79529074 38.20837247 43.765625 39.265625 C45.93512669 38.42750765 47.62645708 37.37000094 49.484375 35.9765625 C54.4408631 32.25919642 58.69728196 31.43090652 64.859375 31.7265625 C69.63157622 32.61172885 72.63894376 34.59027133 75.765625 38.265625 C78.78933045 43.08465556 80.35597854 47.50967794 79.765625 53.265625 C80.2503125 52.92789063 80.735 52.59015625 81.234375 52.2421875 C81.9046875 51.79617187 82.575 51.35015625 83.265625 50.890625 C83.9153125 50.44976562 84.565 50.00890625 85.234375 49.5546875 C91.44619748 46.39125939 97.79798207 45.90181984 104.640625 45.953125 C105.43146484 45.95876465 106.22230469 45.9644043 107.03710938 45.97021484 C118.19544382 46.20172507 128.1133849 49.65008776 136.171875 57.65625 C138.10039289 59.81564679 139.96341225 62.00027378 141.765625 64.265625 C142.40757812 63.40904297 142.40757812 63.40904297 143.0625 62.53515625 C143.62453125 61.78621094 144.1865625 61.03726563 144.765625 60.265625 C145.28640625 59.56824219 145.8071875 58.87085937 146.34375 58.15234375 C155.14488509 46.5751497 165.88998935 36.9898049 180.5234375 33.66796875 C196.73094871 31.65667519 209.928955 32.80204863 223.1875 42.9921875 C230.29020562 49.25548246 237.02217991 57.71818763 238.765625 67.265625 C238.85944829 69.78505628 238.89555398 72.30695216 238.890625 74.828125 C238.89449219 75.50037109 238.89835937 76.17261719 238.90234375 76.86523438 C238.89623573 79.94062252 238.74553729 82.32588813 237.765625 85.265625 C238.26707031 84.976875 238.76851563 84.688125 239.28515625 84.390625 C245.29844987 81.44032081 250.7967657 80.82702868 257.390625 80.765625 C258.18960205 80.74757813 258.9885791 80.72953125 259.81176758 80.7109375 C266.77315494 80.77984081 271.79718842 82.96508665 277.265625 87.203125 C279.16949666 89.82094853 279.12627984 91.08224492 278.765625 94.265625 C273.6738387 101.3879726 263.28776657 106.164899 254.92529297 107.83178711 C251.92163572 108.24420396 249.09124097 108.37596228 246.0625 108.37109375 C244.99902344 108.38591797 243.93554688 108.40074219 242.83984375 108.41601562 C240.63945386 108.44057932 238.43876097 108.4460657 236.23828125 108.43164062 C229.22267853 108.57127566 224.92032925 109.80449642 219.11132812 113.73071289 C215.51401064 116.08461954 211.67765355 117.46800817 207.640625 118.890625 C206.83020752 119.18275879 206.01979004 119.47489258 205.18481445 119.77587891 C181.09951393 128.25334047 159.57755199 130.25277235 135.796875 119.80078125 C122.51143647 113.07245993 111.13403369 103.75052363 100.578125 93.328125 C100.00054443 92.7599707 99.42296387 92.19181641 98.82788086 91.60644531 C94.765625 87.51144427 94.765625 87.51144427 94.765625 85.265625 C94.105625 85.265625 93.445625 85.265625 92.765625 85.265625 C92.724375 86.090625 92.683125 86.915625 92.640625 87.765625 C91.2772492 93.21912819 88.20393412 97.68401908 83.453125 100.765625 C74.04238282 102.51646075 74.04238282 102.51646075 69.51171875 100.02734375 C67.48797099 98.52537258 65.61074712 96.9813381 63.765625 95.265625 C63.19585937 94.74613281 62.62609375 94.22664063 62.0390625 93.69140625 C60.765625 92.265625 60.765625 92.265625 60.765625 90.265625 C60.105625 90.265625 59.445625 90.265625 58.765625 90.265625 C58.3634375 91.36777344 58.3634375 91.36777344 57.953125 92.4921875 C54.38158916 100.83360344 47.67451432 107.01695082 39.765625 111.265625 C29.11389141 115.02064272 17.20569352 114.36935866 6.765625 110.265625 C5.775625 109.935625 4.785625 109.605625 3.765625 109.265625 C3.38792969 109.68972656 3.01023438 110.11382812 2.62109375 110.55078125 C-4.52827429 118.16896031 -13.64390858 125.07154423 -24.40625 125.56640625 C-25.93217135 125.58596297 -27.45836937 125.58931624 -28.984375 125.578125 C-29.78496338 125.57248535 -30.58555176 125.5668457 -31.41040039 125.56103516 C-46.53781913 125.25096528 -57.95762005 117.90345895 -69.234375 108.265625 C-72.62853116 109.72026335 -74.71461662 111.58838172 -77.234375 114.265625 C-81.58225952 118.8852523 -84.57574801 120.56639307 -90.984375 120.765625 C-97.36234977 120.67228878 -100.81077789 118.73280434 -105.234375 114.265625 C-106.1625 113.09 -106.1625 113.09 -107.109375 111.890625 C-110.21942536 109.5123512 -112.95378129 110.21790137 -116.7578125 110.375 C-120.49496495 110.20995226 -122.50609549 108.72107656 -125.234375 106.265625 C-127.82473848 102.85105496 -127.66546241 99.43280329 -127.234375 95.265625 C-124.46438552 89.09610298 -119.16377578 86.0704417 -113.234375 83.265625 C-110.41796875 82.59765625 -110.41796875 82.59765625 -108.234375 82.265625 C-108.234375 81.605625 -108.234375 80.945625 -108.234375 80.265625 C-108.915 80.059375 -109.595625 79.853125 -110.296875 79.640625 C-115.29619383 77.30051831 -118.99794075 74.02056393 -122.171875 69.515625 C-123.8621922 64.34524297 -124.42587187 59.28849669 -122.390625 54.125 C-118.67793348 47.7532186 -113.24413445 41.99344987 -106.859375 38.328125 C-103.43781844 35.63975913 -103.53052655 33.766657 -102.83203125 29.63671875 C-101.08872997 22.72048427 -95.45896499 18.03645959 -89.578125 14.46875 C-83.24203928 11.216226 -78.9198005 10.75238151 -72.046875 12.890625 C-67.64478075 14.54351863 -63.94019862 16.38331774 -60.234375 19.265625 C-60.1415625 18.028125 -60.1415625 18.028125 -60.046875 16.765625 C-58.19649482 8.79475652 -52.94260094 2.7780323 -46.234375 -1.734375 C-30.2810844 -9.65982232 -15.15255005 -10.2248915 0 0 Z " fill="#F1F7FB" transform="translate(184.234375,52.734375)"/>
<path d="M0 0 C6.49841944 4.75405928 11.15558484 9.95190554 15 17 C18.72656913 16.33769506 21.42316551 14.66013418 24.625 12.6875 C38.09785655 4.71143844 51.54252042 1.41808911 67.1875 1.5 C68.46181885 1.50572021 69.7361377 1.51144043 71.04907227 1.51733398 C81.16852458 1.70833985 89.6994065 3.06666549 99 7 C99.61327148 7.25700684 100.22654297 7.51401367 100.85839844 7.77880859 C109.00292167 11.2757586 115.69817021 15.75557701 122.37890625 21.47265625 C124.88276975 23.33876217 124.88276975 23.33876217 127.51953125 22.37890625 C128.74736328 21.69634766 128.74736328 21.69634766 130 21 C141.22684485 16.20848055 150.16330624 15.61113635 161.84765625 19.54296875 C169.71652682 23.18000558 176.53032913 30.00006018 180 38 C180.87898347 40.97645195 181.52453134 43.93429164 182 47 C182.57105469 47.01417969 183.14210938 47.02835938 183.73046875 47.04296875 C198.50199817 47.91188225 211.09456226 55.23282914 221.1875 65.7734375 C228.46502209 74.71349696 233.55036187 86.45928805 234 98 C234.0515625 98.9384375 234.103125 99.876875 234.15625 100.84375 C234.60939068 115.49529856 229.37335458 128.96603798 219.3203125 139.671875 C218.88460938 140.11015625 218.44890625 140.5484375 218 141 C217.70867187 140.40316406 217.41734375 139.80632812 217.1171875 139.19140625 C214.30193907 133.66918818 211.46908197 129.78730269 205.9453125 126.94140625 C201.87026482 125.63890427 198.06601071 125.66088697 193.8125 125.6875 C192.54635864 125.68943359 192.54635864 125.68943359 191.25463867 125.69140625 C185.07689243 125.78656745 179.75289475 126.68573792 174 129 C174.04640625 127.81664062 174.0928125 126.63328125 174.140625 125.4140625 C174.55213259 110.68863763 171.8534427 101.41776663 162 90 C151.28481422 79.97008773 139.28154397 77.40090482 125.05859375 77.69140625 C110.70364065 78.33384705 97.76977027 85.23762469 87.97265625 95.5859375 C85.318924 98.83347519 83.20787366 102.26258899 81.19140625 105.93359375 C80 108 80 108 78 110 C77.6596875 109.49210937 77.319375 108.98421875 76.96875 108.4609375 C70.19292039 98.83781778 61.49414061 93.53958917 50 91 C34.1611456 89.88895996 34.1611456 89.88895996 19.8671875 95.60546875 C18 97 18 97 16 97 C15.87044922 96.1646875 15.87044922 96.1646875 15.73828125 95.3125 C14.49563814 88.56346584 12.39719389 82.48897624 6.69140625 78.30859375 C1.91260541 75.98508391 -2.82230793 76.16001954 -8 77 C-10.6609431 78.30522172 -12.83586245 79.75897545 -15.16015625 81.58984375 C-17 83 -17 83 -20 84 C-20.825 83.525625 -21.65 83.05125 -22.5 82.5625 C-27.28240683 80.42749695 -31.82898764 80.23225144 -37 81 C-39.78071768 82.42649533 -39.78071768 82.42649533 -42 84 C-42.20753906 82.99582031 -42.41507812 81.99164063 -42.62890625 80.95703125 C-45.74028626 66.8132887 -51.03881609 53.46744439 -63.25 44.8125 C-73.72294806 38.17371597 -84.89818559 35.05990558 -97.20703125 37.68359375 C-106.38659375 40.52348407 -114.53434531 44.87959874 -120 53 C-121.49700892 56.27963138 -122.7979526 59.60203362 -124 63 C-124.81791016 62.56880859 -124.81791016 62.56880859 -125.65234375 62.12890625 C-128.24190896 60.88367439 -130.85737074 59.90545782 -133.5625 58.9375 C-134.51253906 58.59589844 -135.46257812 58.25429687 -136.44140625 57.90234375 C-138.28828524 57.25100169 -140.1421282 56.6192906 -142 56 C-140.41712865 45.83724642 -132.96470877 38.09657072 -126 31 C-125.38511719 30.360625 -124.77023438 29.72125 -124.13671875 29.0625 C-112.50172113 17.90087487 -96.69628123 13.51140583 -80.93701172 13.57128906 C-70.20403868 13.89208093 -59.8768544 16.884644 -50 21 C-49.61328125 19.92878906 -49.61328125 19.92878906 -49.21875 18.8359375 C-44.65874942 8.22516692 -36.48742603 0.65074889 -26 -3.9375 C-16.63759645 -6.91474433 -8.38455504 -4.75014317 0 0 Z " fill="#CCCCCC" transform="translate(248,9)"/>
<path d="M0 0 C0.928125 0.185625 1.85625 0.37125 2.8125 0.5625 C3.8025 2.0475 3.8025 2.0475 4.8125 3.5625 C-1.74393444 16.24319233 -8.38203647 28.87025777 -15.26464844 41.37744141 C-15.73547852 42.2338623 -16.20630859 43.0902832 -16.69140625 43.97265625 C-17.30737671 45.08846069 -17.30737671 45.08846069 -17.93579102 46.22680664 C-19.40911822 48.97604038 -20.79258214 51.77266427 -22.1875 54.5625 C-4.8625 55.0575 -4.8625 55.0575 12.8125 55.5625 C5.00651903 71.17446194 -5.79863853 85.46480184 -15.59228516 99.86279297 C-22.0138657 109.31076867 -28.39223535 118.75798397 -34.3855896 128.48443604 C-40.11942168 137.75033197 -46.24945365 146.76040225 -52.3125 155.8125 C-53.54839717 157.66131123 -54.78407524 159.51026894 -56.01953125 161.359375 C-58.36634214 164.87122753 -60.71430235 168.38230607 -63.06347656 171.89257812 C-66.77855863 177.44451027 -70.48493806 183.00221162 -74.1875 188.5625 C-75.43642049 184.81573853 -74.77873428 183.16133305 -73.78125 179.359375 C-73.45318359 178.08513672 -73.12511719 176.81089844 -72.78710938 175.49804688 C-72.60817139 174.81734131 -72.4292334 174.13663574 -72.24487305 173.43530273 C-71.29041944 169.80018486 -70.36405972 166.15793583 -69.4375 162.515625 C-69.2465979 161.76692139 -69.0556958 161.01821777 -68.85900879 160.24682617 C-66.99277971 152.88274419 -65.3257309 145.48069651 -63.6875 138.0625 C-60.15878422 122.14576131 -56.19143054 106.36748898 -52.1875 90.5625 C-66.7075 90.5625 -81.2275 90.5625 -96.1875 90.5625 C-93.93708699 80.43564146 -93.93708699 80.43564146 -92.43164062 76.27392578 C-91.93102112 74.87800705 -91.93102112 74.87800705 -91.42028809 73.45388794 C-91.06503052 72.48168304 -90.70977295 71.50947815 -90.34375 70.5078125 C-89.97399048 69.48444794 -89.60423096 68.46108337 -89.2232666 67.40670776 C-88.44595595 65.25942502 -87.66592465 63.11312537 -86.88330078 60.96777344 C-85.68441463 57.67903635 -84.49591037 54.38667929 -83.30859375 51.09375 C-82.5500901 49.00238249 -81.79099632 46.9112289 -81.03125 44.8203125 C-80.67599243 43.83596222 -80.32073486 42.85161194 -79.95471191 41.83743286 C-79.62096558 40.92573334 -79.28721924 40.01403381 -78.94335938 39.07470703 C-78.65182983 38.27356476 -78.36030029 37.47242249 -78.05993652 36.64700317 C-77.1875 34.5625 -77.1875 34.5625 -75.1875 31.5625 C-72.1328125 30.421875 -72.1328125 30.421875 -68.3125 29.3125 C-55.62361412 25.3458903 -44.69788491 18.82807736 -37.1875 7.5625 C-34.88316485 8.09426965 -32.81746281 8.71593005 -30.625 9.625 C-23.42935752 11.58744795 -16.47183111 11.57021148 -9.890625 7.8515625 C-8.09473192 6.49228563 -6.90874777 5.11033721 -5.5625 3.3125 C-3.1875 0.5625 -3.1875 0.5625 0 0 Z " fill="#FAC647" transform="translate(291.1875,181.4375)"/>
<path d="M0 0 C3.4173502 3.25826666 6.18105117 6.47978182 8.75 10.4375 C9.42675781 11.47648438 10.10351562 12.51546875 10.80078125 13.5859375 C11.15479004 14.13604492 11.50879883 14.68615234 11.87353516 15.25292969 C13.06712782 17.10411068 14.27311666 18.94682997 15.48046875 20.7890625 C16.29998475 22.04654565 17.11900522 23.3043519 17.9375 24.5625 C18.32711914 25.15796631 18.71673828 25.75343262 19.11816406 26.36694336 C23.31093638 32.86424703 23.80570867 38.3789439 23 46 C20.66397789 53.52085166 15.70352768 57.31240128 9 61 C4.50043723 63.24978139 -1.13179168 62.56466831 -6 62 C-12.54502548 59.61599206 -16.80329153 55.88872311 -20.16015625 49.83203125 C-22.80879499 44.05430302 -23.13110849 37.62416394 -21.234375 31.546875 C-17.86097835 24.37246803 -12.91434663 18.04667236 -8.23242188 11.68652344 C-6.40945222 9.19185736 -4.64149326 6.65984602 -2.875 4.125 C-2.31554687 3.32320312 -1.75609375 2.52140625 -1.1796875 1.6953125 C-0.79039062 1.13585937 -0.40109375 0.57640625 0 0 Z " fill="#2FB8E4" transform="translate(411,197)"/>
<path d="M0 0 C3.45385894 3.29644045 6.27197095 6.59198397 8.91796875 10.5625 C9.96307617 12.12871094 9.96307617 12.12871094 11.02929688 13.7265625 C11.74150391 14.80679688 12.45371094 15.88703125 13.1875 17 C13.91130859 18.08023438 14.63511719 19.16046875 15.38085938 20.2734375 C20.73570824 28.34307022 24.14590222 34.14230273 23 44 C21.14397575 51.2243982 17.06764705 55.82032923 11 60 C5.75183318 62.68239637 -0.22632254 62.7884396 -6 62 C-12.63113691 59.45218753 -17.46435405 54.10949515 -21.1328125 48.1640625 C-23.38451715 42.5449437 -22.98526505 35.69861199 -20.9375 30.08984375 C-17.85795132 24.27384829 -13.96771976 18.98389949 -10.03125 13.72265625 C-7.38340848 10.17353021 -4.86816175 6.53852973 -2.34765625 2.8984375 C-1 1 -1 1 0 0 Z " fill="#2FB8E4" transform="translate(341,211)"/>
<path d="M0 0 C0.66 0 1.32 0 2 0 C3.41699219 1.78491211 3.41699219 1.78491211 5.046875 4.27734375 C5.645 5.18419922 6.243125 6.09105469 6.859375 7.02539062 C7.48328125 7.98638672 8.1071875 8.94738281 8.75 9.9375 C9.3584375 10.86369141 9.966875 11.78988281 10.59375 12.74414062 C11.80877521 14.59393862 13.02038909 16.445982 14.22851562 18.30029297 C16.39529239 21.60241776 18.61312493 24.86859428 20.84472656 28.12719727 C24.2861457 33.70604895 23.62026334 40.70676631 23 47 C21.06765807 52.25180067 17.65535286 55.93427982 13 59 C12.175 59.5775 11.35 60.155 10.5 60.75 C4.48047722 62.89982956 -2.32583134 63.33985081 -8.41015625 61.12109375 C-14.08155625 57.81004519 -18.5470883 53.03790628 -21.375 47.125 C-23.43996407 36.80017965 -20.64223239 29.98080058 -14.83105469 21.2421875 C-12.74442038 18.21779519 -10.59046043 15.24741821 -8.40625 12.29296875 C-5.82000827 8.79363776 -3.46337972 5.16528735 -1.15625 1.4765625 C-0.7746875 0.98929688 -0.393125 0.50203125 0 0 Z " fill="#2FB8E4" transform="translate(123,230)"/>
<path d="M0 0 C4.49208343 4.12049565 7.68471266 8.71755969 11 13.8125 C11.50789063 14.58142578 12.01578125 15.35035156 12.5390625 16.14257812 C14.03850406 18.42057588 15.52291981 20.70744845 17 23 C17.47953125 23.7429834 17.9590625 24.4859668 18.453125 25.25146484 C18.90171875 25.95609863 19.3503125 26.66073242 19.8125 27.38671875 C20.21082031 28.01151123 20.60914063 28.63630371 21.01953125 29.2800293 C23.8214041 34.19516731 23.60894996 39.52661445 23 45 C20.92672584 52.07947273 17.41426809 56.12957255 11.18359375 59.94140625 C5.74383289 62.57857117 -0.06629876 62.7937799 -6 62 C-12.86469067 59.51535517 -17.61179525 55.28508616 -20.98828125 48.83203125 C-23.28166696 42.41232221 -23.36536149 36.33321583 -20.76953125 29.99609375 C-19.00755897 26.85300306 -17.07982121 23.94272575 -15 21 C-14.59330078 20.41508789 -14.18660156 19.83017578 -13.76757812 19.22753906 C-11.3024226 15.68364349 -8.788641 12.17900664 -6.23730469 8.69677734 C-4.13529805 5.81419128 -2.06977391 2.90578579 0 0 Z " fill="#2CA2C8" transform="translate(303,263)"/>
<path d="M0 0 C3.32512687 3.09729497 5.77678458 6.41392235 8.29296875 10.19140625 C8.68446609 10.77792465 9.07596344 11.36444305 9.47932434 11.96873474 C10.30086707 13.20187473 11.12014258 14.4365279 11.93725586 15.67260742 C13.18840307 17.5638651 14.44812356 19.44919243 15.70898438 21.33398438 C16.50832739 22.53611613 17.30717297 23.73857882 18.10546875 24.94140625 C19.19057739 26.57638062 19.19057739 26.57638062 20.29760742 28.24438477 C23.73097842 33.80188634 23.95233472 39.95257742 22.46875 46.2578125 C19.87551403 53.6710849 15.93050085 57.53474957 9 61 C2.8521268 62.91803482 -4.36686112 63.10050101 -10.3125 60.5 C-15.75697659 57.36970545 -19.63474993 51.74572164 -22 46 C-22.30078125 43.484375 -22.30078125 43.484375 -22.3125 40.75 C-22.32925781 39.85796875 -22.34601563 38.9659375 -22.36328125 38.046875 C-21.489528 30.71862194 -18.04240917 25.08678418 -13.8125 19.1875 C-13.32998779 18.50042969 -12.84747559 17.81335938 -12.3503418 17.10546875 C-10.91080085 15.06252598 -9.45838694 13.02952116 -8 11 C-7.57332031 10.40525879 -7.14664062 9.81051758 -6.70703125 9.19775391 C-4.49127702 6.1170309 -2.25612637 3.05126547 0 0 Z " fill="#2CA2C8" transform="translate(386,263)"/>
<path d="M0 0 C3.96318682 3.7093172 6.93413535 7.57553184 9.875 12.125 C10.30482178 12.78081055 10.73464355 13.43662109 11.17749023 14.11230469 C12.45798038 16.07084167 13.72953651 18.03494911 15 20 C16.07314453 21.64355469 16.07314453 21.64355469 17.16796875 23.3203125 C22.009675 30.80748711 24.00450072 35.97131119 23 45 C20.8987554 52.17498156 17.35399366 56.16477351 10.98828125 59.94140625 C5.48219726 62.87293623 0.16471659 62.71505159 -6 62 C-12.49800266 59.63312 -16.78115403 55.91809713 -20.16015625 49.9296875 C-21.62912632 46.55447255 -22.17080216 43.41949986 -22.25 39.75 C-22.27578125 39.04359375 -22.3015625 38.3371875 -22.328125 37.609375 C-21.38581527 30.11576908 -17.62020029 24.54891365 -13.25 18.625 C-12.17695867 17.13941295 -11.10404157 15.65373617 -10.03125 14.16796875 C-9.51304688 13.45688965 -8.99484375 12.74581055 -8.4609375 12.01318359 C-6.52382448 9.34382632 -4.6343595 6.64433608 -2.75 3.9375 C-2.20859375 3.16277344 -1.6671875 2.38804687 -1.109375 1.58984375 C-0.74328125 1.06519531 -0.3771875 0.54054688 0 0 Z " fill="#2CA2C8" transform="translate(73,263)"/>
<path d="M0 0 C0.66 0 1.32 0 2 0 C3.50878906 1.86083984 3.50878906 1.86083984 5.265625 4.4609375 C5.90886719 5.40839844 6.55210937 6.35585938 7.21484375 7.33203125 C7.88644531 8.33621094 8.55804688 9.34039062 9.25 10.375 C9.90613281 11.34050781 10.56226563 12.30601562 11.23828125 13.30078125 C25.317825 34.15418104 25.317825 34.15418104 24 44 C21.72446089 50.79600468 18.11649572 56.1642315 12 60 C6.18821094 62.82286897 0.32877309 62.72788552 -6 62 C-12.43624904 59.76085187 -16.55290785 54.70141884 -20 49 C-21.04245304 45.87264089 -21.19999233 43.533837 -21.25 40.25 C-21.28867188 38.74179687 -21.28867188 38.74179687 -21.328125 37.203125 C-20.44149762 28.54795298 -14.69309138 21.74673215 -9.9375 14.75 C-9.20466797 13.66203125 -8.47183594 12.5740625 -7.71679688 11.453125 C-6.36322311 9.44451599 -5.00728173 7.43749896 -3.64819336 5.43261719 C-2.42466679 3.62677824 -1.20996778 1.81495167 0 0 Z " fill="#2CA3C8" transform="translate(168,263)"/>
<path d="M0 0 C3.32512687 3.09729497 5.77678458 6.41392235 8.29296875 10.19140625 C8.68446609 10.77792465 9.07596344 11.36444305 9.47932434 11.96873474 C10.30086707 13.20187473 11.12014258 14.4365279 11.93725586 15.67260742 C13.18840307 17.5638651 14.44812356 19.44919243 15.70898438 21.33398438 C16.50832739 22.53611613 17.30717297 23.73857882 18.10546875 24.94140625 C19.19057739 26.57638062 19.19057739 26.57638062 20.29760742 28.24438477 C23.46984618 33.37919888 23.61333752 38.11366353 23 44 C20.97777379 50.9788785 17.45754718 55.63874827 11.4375 59.75 C5.48989414 62.80005429 -1.87538137 63.1704046 -8.28515625 61.3515625 C-14.12068623 58.7205143 -18.3569174 54.41124414 -21.12890625 48.65625 C-23.10260059 42.63780985 -23.19484332 36.12831706 -20.92578125 30.1875 C-19.1229521 26.99054352 -17.11024672 23.99691788 -15 21 C-13.8171377 19.27903791 -12.634898 17.55764779 -11.453125 15.8359375 C-1.65743229 1.65743229 -1.65743229 1.65743229 0 0 Z " fill="#2FB8E4" transform="translate(48,197)"/>
<path d="M0 0 C-0.33 2.64 -0.66 5.28 -1 8 C-4.63 7.67 -8.26 7.34 -12 7 C-8.8380314 3.47318887 -4.98182478 0 0 0 Z " fill="#CDCECF" transform="translate(82,81)"/>
</svg>
